<svg width="56" height="56" viewBox="0 0 56 56" fill="none" xmlns="http://www.w3.org/2000/svg">
<path d="M28 0C12.5253 0 0 12.523 0 28C0 43.4748 12.523 56 28 56C43.4753 56 56 43.4767 56 28C56 12.5253 43.4771 0 28 0ZM28 53.6667C13.8473 53.6667 2.33333 42.1527 2.33333 28C2.33333 13.8473 13.8473 2.33333 28 2.33333C42.1527 2.33333 53.6667 13.8473 53.6667 28C53.6667 42.1527 42.1527 53.6667 28 53.6667Z" fill="black"/>
<path d="M38.4999 26.8333H21.4833L25.325 22.9916C25.7806 22.536 25.7806 21.7973 25.325 21.3416C24.8694 20.8859 24.1307 20.886 23.675 21.3416C17.4882 27.5293 17.7428 27.2266 17.6123 27.503C17.4659 27.8137 17.4601 28.1724 17.612 28.4963C17.7357 28.7587 17.5956 28.578 23.675 34.6583C24.1307 35.1139 24.8693 35.1138 25.325 34.6583C25.7806 34.2027 25.7806 33.464 25.325 33.0083L21.4833 29.1667H38.4999C39.1443 29.1667 39.6666 28.6442 39.6666 28C39.6666 27.3557 39.1443 26.8333 38.4999 26.8333Z" fill="black"/>
</svg>
