<svg width="602" height="389" viewBox="0 0 602 389" fill="none" xmlns="http://www.w3.org/2000/svg">
<path d="M121.376 30.158V20.942H87.5841V65.998H121.376V56.782H98.3361V47.822H117.28V39.118H98.3361V30.158H121.376ZM125.242 19.918V65.998H135.482V19.918H125.242ZM139.837 28.11H150.077V19.918H139.837V28.11ZM139.837 65.998H150.077V32.206H139.837V65.998ZM194.496 31.182C190.528 31.182 186.688 33.486 184.64 37.646C184.32 38.286 184 38.478 183.36 38.478C182.72 38.478 182.272 38.158 182.08 37.518C181.056 33.742 178.432 31.182 174.144 31.182C169.728 31.182 166.848 34.062 164.928 38.158C164.736 38.606 164.416 39.246 163.648 38.99C162.88 38.734 163.2 37.71 163.712 36.75C164.288 35.726 164.672 34.766 164.672 33.486V32.206H154.432V65.998H164.672V51.278C164.672 44.75 166.976 39.886 170.752 39.886C173.76 39.886 174.4 42.702 174.4 47.822V65.998H184.64V49.87C184.64 43.854 186.944 39.886 189.888 39.886C193.152 39.886 194.368 41.934 194.368 47.054V65.998H204.608V45.006C204.608 34.382 200.128 31.182 194.496 31.182ZM207.964 28.11H218.204V19.918H207.964V28.11ZM207.964 65.998H218.204V32.206H207.964V65.998ZM244.191 31.182C238.367 31.182 234.591 35.726 232.991 39.118C232.735 39.63 232.415 40.398 231.647 40.078C230.815 39.758 231.455 38.478 231.967 37.454C232.479 36.43 232.799 35.342 232.799 33.806V32.206H222.559V65.998H232.799V53.006C232.799 45.198 236.575 39.886 240.735 39.886C244.383 39.886 246.111 41.998 246.111 49.614V65.998H256.351V45.518C256.351 35.918 251.487 31.182 244.191 31.182ZM258.169 56.974C258.169 62.606 263.097 67.022 269.945 67.022C275.577 67.022 279.353 64.014 281.465 59.854C281.721 59.406 281.977 58.638 282.809 59.022C283.513 59.342 282.937 60.366 282.425 61.454C281.977 62.35 281.721 63.246 281.721 64.27V65.998H291.961V47.31C291.961 33.742 284.217 31.182 276.217 31.182C268.665 31.182 260.345 34.446 259.193 43.47H269.305C269.817 40.91 271.353 38.862 275.961 38.862C280.633 38.862 281.657 41.294 281.721 43.214C281.785 46.094 277.497 45.71 271.481 46.094C264.185 46.542 258.169 49.358 258.169 56.974ZM281.721 49.614C281.657 56.59 276.921 59.342 273.849 59.854C271.097 60.302 268.409 59.086 268.409 56.27C268.409 53.39 270.521 52.302 272.889 52.046C277.689 51.47 280.057 51.342 281.721 49.614ZM317.777 40.398V32.206H308.561V22.99H298.321V32.206H292.177V40.398H298.321V55.63C298.321 63.758 301.521 65.998 308.305 65.998H317.777V57.806H311.633C308.689 57.806 308.561 57.678 308.561 54.478V40.398H317.777ZM352.8 48.078C352.8 36.43 344.416 31.182 335.84 31.182C324.512 31.182 317.984 38.606 317.984 49.102C317.984 59.086 324.256 67.022 336.032 67.022C345.568 67.022 350.816 61.134 352.16 54.734H341.984C341.152 57.23 339.168 58.83 335.968 58.83C331.68 58.83 328.8 55.95 328.096 51.662H352.608C352.736 50.702 352.8 49.038 352.8 48.078ZM336.032 39.118C339.808 39.118 342.368 41.422 342.752 45.518H328.352C329.12 41.87 331.168 39.118 336.032 39.118ZM383.024 19.918H372.784V65.998H383.024V64.782C383.024 63.822 382.768 62.926 382.256 62.03C381.744 60.942 381.168 59.854 382.128 59.534C382.768 59.342 383.088 60.046 383.28 60.43C385.392 64.462 388.848 67.022 393.904 67.022C403.184 67.022 408.624 59.086 408.624 49.102C408.624 39.118 403.184 31.182 393.904 31.182C388.784 31.182 385.392 33.806 383.28 37.71C383.024 38.158 382.576 39.054 381.808 38.67C380.976 38.286 381.808 37.134 382.32 36.046C382.768 35.15 383.024 34.19 383.024 33.23V19.918ZM390.96 58.318C386.096 58.318 383.024 54.03 383.024 49.102C383.024 44.174 386.096 39.886 390.96 39.886C396.08 39.886 398.384 44.174 398.384 49.102C398.384 54.03 396.08 58.318 390.96 58.318ZM409.394 56.974C409.394 62.606 414.322 67.022 421.17 67.022C426.802 67.022 430.578 64.014 432.69 59.854C432.946 59.406 433.202 58.638 434.034 59.022C434.738 59.342 434.162 60.366 433.65 61.454C433.202 62.35 432.946 63.246 432.946 64.27V65.998H443.186V47.31C443.186 33.742 435.442 31.182 427.442 31.182C419.89 31.182 411.57 34.446 410.418 43.47H420.53C421.042 40.91 422.578 38.862 427.186 38.862C431.858 38.862 432.882 41.294 432.946 43.214C433.01 46.094 428.722 45.71 422.706 46.094C415.41 46.542 409.394 49.358 409.394 56.974ZM432.946 49.614C432.882 56.59 428.146 59.342 425.074 59.854C422.322 60.302 419.634 59.086 419.634 56.27C419.634 53.39 421.746 52.302 424.114 52.046C428.914 51.47 431.282 51.342 432.946 49.614ZM468.669 31.182C462.845 31.182 459.069 35.726 457.469 39.118C457.213 39.63 456.893 40.398 456.125 40.078C455.293 39.758 455.933 38.478 456.445 37.454C456.957 36.43 457.277 35.342 457.277 33.806V32.206H447.037V65.998H457.277V53.006C457.277 45.198 461.053 39.886 465.213 39.886C468.861 39.886 470.589 41.998 470.589 49.614V65.998H480.829V45.518C480.829 35.918 475.965 31.182 468.669 31.182ZM519.01 65.998L503.906 46.35L517.986 32.206H505.698L494.178 44.686C493.73 45.198 493.218 45.582 492.642 45.134C492.002 44.686 492.386 43.982 492.834 43.47C493.794 42.382 494.434 41.23 494.434 38.798V19.918H484.194V65.998H494.434V55.822L497.25 53.006L506.722 65.998H519.01Z" fill="white"/>
<path d="M13.3784 116.438C12.4184 116.246 12.8024 115.094 13.3144 114.07C13.8264 113.046 14.2104 111.894 14.2104 110.742V109.206H3.97038V142.998H14.2104V129.878C14.2104 121.302 17.2184 117.91 26.4984 118.55V108.694C18.3704 108.694 16.4504 111.062 14.4664 115.542C14.2744 115.99 13.9544 116.566 13.3784 116.438ZM60.2709 125.078C60.2709 113.43 51.8869 108.182 43.3109 108.182C31.9829 108.182 25.4549 115.606 25.4549 126.102C25.4549 136.086 31.7269 144.022 43.5029 144.022C53.0389 144.022 58.2869 138.134 59.6309 131.734H49.4549C48.6229 134.23 46.6389 135.83 43.4389 135.83C39.1509 135.83 36.2709 132.95 35.5669 128.662H60.0789C60.2069 127.702 60.2709 126.038 60.2709 125.078ZM43.5029 116.118C47.2789 116.118 49.8389 118.422 50.2229 122.518H35.8229C36.5909 118.87 38.6389 116.118 43.5029 116.118ZM61.0499 131.222C61.4979 139.158 67.0019 144.022 77.3699 144.022C87.6739 144.022 93.8179 139.094 93.8179 132.63C93.8179 125.334 87.9299 122.39 78.5859 121.494C73.0179 120.982 72.3139 119.894 72.3139 118.742C72.3139 117.078 73.7219 115.862 77.3699 115.862C81.0819 115.862 82.5539 117.462 82.6819 119.958H92.7939C92.2819 111.894 85.6899 108.182 77.5619 108.182C67.4499 108.182 62.0739 113.494 62.0739 119.19C62.0739 122.71 63.0339 128.662 74.8099 130.006C80.5059 130.646 83.5779 131.222 83.5779 133.27C83.5779 134.998 82.0419 136.342 77.6259 136.342C72.7619 136.342 71.2259 133.846 71.1619 131.222H61.0499ZM118.658 117.398V109.206H109.442V99.99H99.2024V109.206H93.0584V117.398H99.2024V132.63C99.2024 140.758 102.402 142.998 109.186 142.998H118.658V134.806H112.514C109.57 134.806 109.442 134.678 109.442 131.478V117.398H118.658ZM131.383 116.438C130.423 116.246 130.807 115.094 131.319 114.07C131.831 113.046 132.215 111.894 132.215 110.742V109.206H121.975V142.998H132.215V129.878C132.215 121.302 135.223 117.91 144.503 118.55V108.694C136.375 108.694 134.455 111.062 132.471 115.542C132.279 115.99 131.959 116.566 131.383 116.438ZM147.07 105.11H157.31V96.918H147.07V105.11ZM147.07 142.998H157.31V109.206H147.07V142.998ZM159.117 126.102C159.117 135.958 165.901 144.022 177.293 144.022C187.597 144.022 193.421 136.918 193.933 129.558L183.821 129.494C183.245 132.63 181.069 135.318 177.357 135.318C172.429 135.318 169.357 131.094 169.357 126.102C169.357 121.11 172.429 116.886 177.357 116.886C181.069 116.886 183.245 119.51 183.821 122.646L193.933 122.582C193.421 115.222 187.533 108.182 177.293 108.182C165.709 108.182 159.117 116.246 159.117 126.102ZM217.726 117.398V109.206H208.51V99.99H198.27V109.206H192.126V117.398H198.27V132.63C198.27 140.758 201.47 142.998 208.254 142.998H217.726V134.806H211.582C208.638 134.806 208.51 134.678 208.51 131.478V117.398H217.726ZM221.043 105.11H231.283V96.918H221.043V105.11ZM221.043 142.998H231.283V109.206H221.043V142.998ZM251.01 108.182C239.874 108.182 233.09 116.246 233.09 126.102C233.09 135.958 239.874 144.022 251.01 144.022C262.146 144.022 268.93 135.958 268.93 126.102C268.93 116.246 262.146 108.182 251.01 108.182ZM251.01 135.318C245.954 135.318 243.33 131.094 243.33 126.102C243.33 121.11 245.954 116.886 251.01 116.886C256.066 116.886 258.69 121.11 258.69 126.102C258.69 131.094 256.066 135.318 251.01 135.318ZM292.365 108.182C286.541 108.182 282.765 112.726 281.165 116.118C280.909 116.63 280.589 117.398 279.821 117.078C278.989 116.758 279.629 115.478 280.141 114.454C280.653 113.43 280.973 112.342 280.973 110.806V109.206H270.733V142.998H280.973V130.006C280.973 122.198 284.749 116.886 288.909 116.886C292.557 116.886 294.285 118.998 294.285 126.614V142.998H304.525V122.518C304.525 112.918 299.661 108.182 292.365 108.182ZM306.342 131.222C306.79 139.158 312.294 144.022 322.662 144.022C332.966 144.022 339.11 139.094 339.11 132.63C339.11 125.334 333.222 122.39 323.878 121.494C318.31 120.982 317.606 119.894 317.606 118.742C317.606 117.078 319.014 115.862 322.662 115.862C326.374 115.862 327.846 117.462 327.974 119.958H338.086C337.574 111.894 330.982 108.182 322.854 108.182C312.742 108.182 307.366 113.494 307.366 119.19C307.366 122.71 308.326 128.662 320.102 130.006C325.798 130.646 328.87 131.222 328.87 133.27C328.87 134.998 327.334 136.342 322.918 136.342C318.054 136.342 316.518 133.846 316.454 131.222H306.342ZM354.984 109.206L364.2 142.998H378.024L380.776 124.502C380.968 123.03 381.032 120.47 381.096 118.742C381.096 118.102 381.288 117.398 382.12 117.398C382.952 117.398 383.144 118.102 383.144 118.742C383.208 120.47 383.272 123.03 383.464 124.502L386.216 142.998H400.04L409.256 109.206H398.504L394.472 130.198C394.216 131.542 394.152 133.142 394.152 134.486C394.152 135.126 393.96 135.83 393.128 135.83C392.296 135.83 392.104 135.126 392.104 134.486C392.104 133.142 392.04 131.542 391.784 130.198L388.264 109.206H375.976L372.456 130.198C372.2 131.542 372.136 133.142 372.136 134.486C372.136 135.126 371.944 135.83 371.112 135.83C370.28 135.83 370.088 135.126 370.088 134.486C370.088 133.142 370.024 131.542 369.768 130.198L365.736 109.206H354.984ZM409.55 105.11H419.79V96.918H409.55V105.11ZM409.55 142.998H419.79V109.206H409.55V142.998ZM446.173 117.398V109.206H436.957V99.99H426.717V109.206H420.573V117.398H426.717V132.63C426.717 140.758 429.917 142.998 436.701 142.998H446.173V134.806H440.029C437.085 134.806 436.957 134.678 436.957 131.478V117.398H446.173ZM471.122 108.182C465.298 108.182 461.522 112.726 459.922 116.118C459.666 116.63 459.346 117.398 458.578 117.078C457.746 116.758 458.386 115.478 458.898 114.454C459.41 113.43 459.73 112.342 459.73 110.806V96.918H449.49V142.998H459.73V130.006C459.73 122.198 463.506 116.886 467.666 116.886C471.314 116.886 473.042 118.998 473.042 126.614V142.998H483.282V122.518C483.282 112.918 478.418 108.182 471.122 108.182ZM520.177 108.182C509.041 108.182 502.257 116.246 502.257 126.102C502.257 135.958 509.041 144.022 520.177 144.022C531.313 144.022 538.097 135.958 538.097 126.102C538.097 116.246 531.313 108.182 520.177 108.182ZM520.177 135.318C515.121 135.318 512.497 131.094 512.497 126.102C512.497 121.11 515.121 116.886 520.177 116.886C525.233 116.886 527.857 121.11 527.857 126.102C527.857 131.094 525.233 135.318 520.177 135.318ZM552.036 144.022C557.86 144.022 561.572 139.414 563.236 136.086C563.492 135.574 563.812 134.806 564.58 135.126C565.412 135.446 564.772 136.726 564.26 137.75C563.748 138.774 563.428 139.862 563.428 141.398V142.998H573.668V109.206H563.428V122.198C563.428 130.006 559.652 135.318 555.492 135.318C551.844 135.318 550.116 133.206 550.116 125.59V109.206H539.876V129.686C539.876 139.286 544.74 144.022 552.036 144.022ZM587.466 116.438C586.506 116.246 586.89 115.094 587.402 114.07C587.914 113.046 588.298 111.894 588.298 110.742V109.206H578.058V142.998H588.298V129.878C588.298 121.302 591.306 117.91 600.586 118.55V108.694C592.458 108.694 590.538 111.062 588.554 115.542C588.362 115.99 588.042 116.566 587.466 116.438Z" fill="white"/>
<path d="M64.5776 221.022C70.4016 221.022 74.1136 216.414 75.7776 213.086C76.0336 212.574 76.3536 211.806 77.1216 212.126C77.9536 212.446 77.3136 213.726 76.8016 214.75C76.2896 215.774 75.9696 216.862 75.9696 218.398V219.998H86.2096V186.206H75.9696V199.198C75.9696 207.006 72.1936 212.318 68.0336 212.318C64.3856 212.318 62.6576 210.206 62.6576 202.59V186.206H52.4176V206.686C52.4176 216.286 57.2816 221.022 64.5776 221.022ZM112.231 185.182C106.407 185.182 102.631 189.726 101.031 193.118C100.775 193.63 100.455 194.398 99.6871 194.078C98.8551 193.758 99.4951 192.478 100.007 191.454C100.519 190.43 100.839 189.342 100.839 187.806V186.206H90.5991V219.998H100.839V207.006C100.839 199.198 104.615 193.886 108.775 193.886C112.423 193.886 114.151 195.998 114.151 203.614V219.998H124.391V199.518C124.391 189.918 119.527 185.182 112.231 185.182ZM127.757 182.11H137.997V173.918H127.757V182.11ZM127.757 219.998H137.997V186.206H127.757V219.998ZM165.904 186.206V187.23C165.904 188.19 166.16 189.15 166.608 190.046C167.12 191.134 167.952 192.286 167.12 192.67C166.352 193.054 165.904 192.158 165.648 191.71C163.472 187.87 160.144 185.182 155.024 185.182C145.744 185.182 140.304 193.118 140.304 203.102C140.304 213.086 145.744 221.022 155.024 221.022C160.08 221.022 163.6 218.526 165.648 214.43C165.84 214.046 166.16 213.342 166.8 213.534C167.76 213.854 167.184 214.942 166.672 216.03C166.224 216.99 165.904 217.822 165.904 218.782V232.286H176.144V186.206H165.904ZM157.968 212.318C152.848 212.318 150.544 208.03 150.544 203.102C150.544 198.174 152.848 193.886 157.968 193.886C162.832 193.886 165.904 198.174 165.904 203.102C165.904 208.03 162.832 212.318 157.968 212.318ZM191.645 221.022C197.469 221.022 201.181 216.414 202.845 213.086C203.101 212.574 203.421 211.806 204.189 212.126C205.021 212.446 204.381 213.726 203.869 214.75C203.357 215.774 203.037 216.862 203.037 218.398V219.998H213.277V186.206H203.037V199.198C203.037 207.006 199.261 212.318 195.101 212.318C191.453 212.318 189.725 210.206 189.725 202.59V186.206H179.485V206.686C179.485 216.286 184.349 221.022 191.645 221.022ZM249.935 202.078C249.935 190.43 241.551 185.182 232.975 185.182C221.647 185.182 215.119 192.606 215.119 203.102C215.119 213.086 221.391 221.022 233.167 221.022C242.703 221.022 247.951 215.134 249.295 208.734H239.119C238.287 211.23 236.303 212.83 233.103 212.83C228.815 212.83 225.935 209.95 225.231 205.662H249.743C249.871 204.702 249.935 203.038 249.935 202.078ZM233.167 193.118C236.943 193.118 239.503 195.422 239.887 199.518H225.487C226.255 195.87 228.303 193.118 233.167 193.118ZM267.871 202.334C267.871 212.19 273.311 219.486 282.591 219.486C287.647 219.486 291.103 217.694 293.215 213.854C293.471 213.406 293.791 212.83 294.495 213.086C295.327 213.406 294.879 214.366 294.239 215.518C293.727 216.414 293.471 217.31 293.471 218.27C293.471 222.366 292.063 225.63 285.983 225.63C281.247 225.63 279.391 224.03 278.879 221.534H268.895C269.855 229.15 275.359 233.31 285.983 233.31C296.671 233.31 303.711 228.318 303.711 217.694V186.206H293.471V187.23C293.471 188.19 293.727 189.15 294.175 190.046C294.687 191.134 295.199 192.222 294.239 192.478C293.663 192.606 293.407 192.03 293.215 191.71C291.103 187.87 287.711 185.182 282.591 185.182C273.311 185.182 267.871 192.478 267.871 202.334ZM285.535 210.782C280.415 210.782 278.111 206.878 278.111 202.334C278.111 197.79 280.415 193.886 285.535 193.886C290.399 193.886 293.471 197.79 293.471 202.334C293.471 206.878 290.399 210.782 285.535 210.782ZM308.077 182.11H318.317V173.918H308.077V182.11ZM308.077 219.998H318.317V186.206H308.077V219.998ZM338.032 181.086H344.176V172.894H334.704C327.92 172.894 324.72 175.134 324.72 183.262V186.206H319.6V194.398H324.72V219.998H334.96V194.398H344.176V186.206H334.96V184.414C334.96 181.214 335.088 181.086 338.032 181.086ZM369.045 194.398V186.206H359.829V176.99H349.589V186.206H343.445V194.398H349.589V209.63C349.589 217.758 352.789 219.998 359.573 219.998H369.045V211.806H362.901C359.957 211.806 359.829 211.678 359.829 208.478V194.398H369.045ZM387.971 203.102C387.971 212.958 394.755 221.022 406.147 221.022C416.451 221.022 422.275 213.918 422.787 206.558L412.675 206.494C412.099 209.63 409.923 212.318 406.211 212.318C401.283 212.318 398.211 208.094 398.211 203.102C398.211 198.11 401.283 193.886 406.211 193.886C409.923 193.886 412.099 196.51 412.675 199.646L422.787 199.582C422.275 192.222 416.387 185.182 406.147 185.182C394.563 185.182 387.971 193.246 387.971 203.102ZM423.566 210.974C423.566 216.606 428.494 221.022 435.342 221.022C440.974 221.022 444.75 218.014 446.862 213.854C447.118 213.406 447.374 212.638 448.206 213.022C448.91 213.342 448.334 214.366 447.822 215.454C447.374 216.35 447.118 217.246 447.118 218.27V219.998H457.358V201.31C457.358 187.742 449.614 185.182 441.614 185.182C434.062 185.182 425.742 188.446 424.59 197.47H434.702C435.214 194.91 436.75 192.862 441.358 192.862C446.03 192.862 447.054 195.294 447.118 197.214C447.182 200.094 442.894 199.71 436.878 200.094C429.582 200.542 423.566 203.358 423.566 210.974ZM447.118 203.614C447.054 210.59 442.318 213.342 439.246 213.854C436.494 214.302 433.806 213.086 433.806 210.27C433.806 207.39 435.918 206.302 438.286 206.046C443.086 205.47 445.454 205.342 447.118 203.614ZM470.617 193.438C469.657 193.246 470.041 192.094 470.553 191.07C471.065 190.046 471.449 188.894 471.449 187.742V186.206H461.209V219.998H471.449V206.878C471.449 198.302 474.457 194.91 483.737 195.55V185.694C475.609 185.694 473.689 188.062 471.705 192.542C471.513 192.99 471.193 193.566 470.617 193.438ZM508.856 173.918V187.23C508.856 188.19 509.112 189.15 509.56 190.046C510.072 191.134 510.904 192.286 510.072 192.67C509.304 193.054 508.856 192.158 508.6 191.71C506.424 187.87 503.096 185.182 497.976 185.182C488.696 185.182 483.256 193.118 483.256 203.102C483.256 213.086 488.696 221.022 497.976 221.022C503.032 221.022 506.552 218.526 508.6 214.43C508.792 214.046 509.112 213.342 509.752 213.534C510.712 213.854 510.136 214.942 509.624 216.03C509.176 216.99 508.856 217.822 508.856 218.782V219.998H519.096V173.918H508.856ZM500.92 212.318C495.8 212.318 493.496 208.03 493.496 203.102C493.496 198.174 495.8 193.886 500.92 193.886C505.784 193.886 508.856 198.174 508.856 203.102C508.856 208.03 505.784 212.318 500.92 212.318ZM521.414 208.222C521.862 216.158 527.366 221.022 537.734 221.022C548.038 221.022 554.182 216.094 554.182 209.63C554.182 202.334 548.294 199.39 538.95 198.494C533.382 197.982 532.678 196.894 532.678 195.742C532.678 194.078 534.086 192.862 537.734 192.862C541.446 192.862 542.918 194.462 543.046 196.958H553.158C552.646 188.894 546.054 185.182 537.926 185.182C527.814 185.182 522.438 190.494 522.438 196.19C522.438 199.71 523.398 205.662 535.174 207.006C540.87 207.646 543.942 208.222 543.942 210.27C543.942 211.998 542.406 213.342 537.99 213.342C533.126 213.342 531.59 210.846 531.526 208.222H521.414ZM555.97 208.734V219.998H567.234V208.734H555.97Z" fill="white"/>
<path d="M163.131 273.964C161.395 273.768 161.213 273.124 161.213 272.746C161.213 272.326 161.577 271.598 163.019 271.598C164.447 271.598 164.881 272.522 164.881 273.166H166.687C166.659 271.57 165.609 270.03 163.047 270.03C160.709 270.03 159.323 271.29 159.323 272.83C159.323 274.51 160.219 275.42 163.019 275.784C164.713 276.008 165.147 276.498 165.147 277.17C165.147 277.716 164.657 278.542 163.019 278.542C161.213 278.542 160.863 277.282 160.835 276.526H158.987C158.987 278.346 160.275 280.11 163.019 280.11C165.651 280.11 167.051 278.682 167.051 277.058C167.051 274.818 165.441 274.23 163.131 273.964ZM172.176 272.494C170.888 272.494 170.048 273.53 169.712 274.272C169.656 274.384 169.614 274.468 169.502 274.44C169.32 274.398 169.404 274.202 169.46 274.076C169.6 273.782 169.684 273.516 169.684 273.068V269.918H167.892V279.998H169.684V276.988C169.684 275.28 170.636 274.118 171.672 274.118C172.61 274.118 173.044 274.58 173.044 276.246V279.998H174.836V275.63C174.836 273.53 173.772 272.494 172.176 272.494ZM179.145 272.494C176.835 272.494 175.449 274.202 175.449 276.302C175.449 278.402 176.835 280.11 179.145 280.11C181.455 280.11 182.841 278.402 182.841 276.302C182.841 274.202 181.455 272.494 179.145 272.494ZM179.145 278.486C177.927 278.486 177.241 277.506 177.241 276.302C177.241 275.098 177.927 274.118 179.145 274.118C180.363 274.118 181.049 275.098 181.049 276.302C181.049 277.506 180.363 278.486 179.145 278.486ZM185.256 272.606H183.464V282.686H185.256V279.676C185.256 279.396 185.186 279.172 185.06 278.92C184.99 278.78 184.934 278.64 185.088 278.584C185.214 278.542 185.27 278.682 185.298 278.724C185.746 279.536 186.516 280.11 187.636 280.11C189.554 280.11 190.856 278.43 190.856 276.302C190.856 274.174 189.554 272.494 187.636 272.494C186.488 272.494 185.746 273.082 185.298 273.866C185.27 273.922 185.186 274.104 185.046 274.034C184.906 273.964 185.004 273.796 185.06 273.656C185.186 273.404 185.256 273.18 185.256 272.886V272.606ZM187.216 278.486C186.04 278.486 185.256 277.478 185.256 276.302C185.256 275.126 186.04 274.118 187.216 274.118C188.476 274.118 189.064 275.126 189.064 276.302C189.064 277.478 188.476 278.486 187.216 278.486ZM198.922 272.494C196.612 272.494 195.226 274.202 195.226 276.302C195.226 278.402 196.612 280.11 198.922 280.11C201.232 280.11 202.618 278.402 202.618 276.302C202.618 274.202 201.232 272.494 198.922 272.494ZM198.922 278.486C197.704 278.486 197.018 277.506 197.018 276.302C197.018 275.098 197.704 274.118 198.922 274.118C200.14 274.118 200.826 275.098 200.826 276.302C200.826 277.506 200.14 278.486 198.922 278.486ZM207.526 272.494C206.238 272.494 205.398 273.53 205.062 274.272C205.006 274.384 204.964 274.468 204.852 274.44C204.67 274.398 204.754 274.202 204.81 274.076C204.95 273.782 205.034 273.516 205.034 273.068V272.606H203.242V279.998H205.034V276.988C205.034 275.28 205.986 274.118 207.022 274.118C207.96 274.118 208.394 274.58 208.394 276.246V279.998H210.186V275.63C210.186 273.53 209.122 272.494 207.526 272.494ZM222.051 279.998H224.179L220.595 270.142H217.907L214.323 279.998H216.451L217.207 277.758H221.295L222.051 279.998ZM217.725 276.19L218.859 272.816C218.985 272.424 219.069 271.906 219.083 271.416C219.083 271.332 219.111 271.22 219.251 271.22C219.391 271.22 219.419 271.332 219.419 271.416C219.433 271.906 219.517 272.424 219.643 272.816L220.777 276.19H217.725ZM232.669 272.494C231.787 272.494 231.045 273.026 230.625 273.964C230.583 274.062 230.513 274.09 230.429 274.09C230.317 274.09 230.247 274.048 230.219 273.95C230.023 273.096 229.407 272.494 228.441 272.494C227.461 272.494 226.775 273.096 226.397 274.062C226.369 274.132 226.313 274.258 226.173 274.216C226.033 274.174 226.075 274.034 226.131 273.908C226.271 273.6 226.369 273.39 226.369 273.026V272.606H224.577V279.998H226.369V276.582C226.369 275.154 227.013 274.118 227.881 274.118C228.791 274.118 228.945 274.734 228.945 275.854V279.998H230.737V276.274C230.737 274.958 231.339 274.118 232.123 274.118C232.991 274.118 233.313 274.566 233.313 275.686V279.998H235.105V275.406C235.105 273.194 233.957 272.494 232.669 272.494ZM235.717 277.968C235.717 279.214 236.907 280.11 238.293 280.11C239.609 280.11 240.421 279.522 240.841 278.5C240.869 278.43 240.925 278.29 241.065 278.346C241.191 278.402 241.135 278.542 241.079 278.668C240.953 278.906 240.869 279.144 240.869 279.48V279.998H242.661V275.91C242.661 273.054 241.135 272.494 239.441 272.494C237.789 272.494 236.193 273.208 235.941 275.07H237.705C237.803 274.468 238.125 273.95 239.385 273.95C240.659 273.95 240.855 274.51 240.869 275.014C240.883 275.7 239.721 275.574 238.405 275.644C236.921 275.728 235.717 276.33 235.717 277.968ZM240.869 276.19C240.855 278.024 239.875 278.64 238.923 278.766C238.097 278.878 237.509 278.486 237.509 277.87C237.509 277.212 237.943 276.918 238.713 276.834C239.777 276.722 240.449 276.652 240.869 276.19ZM243.508 279.998H250.004V278.43H246.462C246.112 278.43 245.846 278.542 245.594 278.64C245.51 278.668 245.398 278.696 245.356 278.57C245.314 278.444 245.412 278.388 245.482 278.36C245.762 278.248 246.098 278.094 246.364 277.856L250.004 274.51V272.606H243.508V274.174H247.05C247.4 274.174 247.666 274.048 247.918 273.964C248.002 273.936 248.114 273.908 248.156 274.034C248.198 274.16 248.1 274.216 248.03 274.244C247.75 274.356 247.414 274.51 247.148 274.748L243.508 278.094V279.998ZM254.097 272.494C251.787 272.494 250.401 274.202 250.401 276.302C250.401 278.402 251.787 280.11 254.097 280.11C256.407 280.11 257.793 278.402 257.793 276.302C257.793 274.202 256.407 272.494 254.097 272.494ZM254.097 278.486C252.879 278.486 252.193 277.506 252.193 276.302C252.193 275.098 252.879 274.118 254.097 274.118C255.315 274.118 256.001 275.098 256.001 276.302C256.001 277.506 255.315 278.486 254.097 278.486ZM262.7 272.494C261.412 272.494 260.572 273.53 260.236 274.272C260.18 274.384 260.138 274.468 260.026 274.44C259.844 274.398 259.928 274.202 259.984 274.076C260.124 273.782 260.208 273.516 260.208 273.068V272.606H258.416V279.998H260.208V276.988C260.208 275.28 261.16 274.118 262.196 274.118C263.134 274.118 263.568 274.58 263.568 276.246V279.998H265.36V275.63C265.36 273.53 264.296 272.494 262.7 272.494ZM266.197 281.678H267.401C268.003 280.572 268.213 280.32 268.213 279.802V277.982H266.197V279.998H266.631C266.771 279.998 266.911 279.984 267.079 279.928C267.275 279.858 267.373 279.844 267.401 279.956C267.429 280.068 267.289 280.11 267.093 280.208C266.967 280.278 266.855 280.404 266.799 280.516L266.197 281.678ZM280.076 279.998H282.204L278.62 270.142H275.932L272.348 279.998H274.476L275.232 277.758H279.32L280.076 279.998ZM275.75 276.19L276.884 272.816C277.01 272.424 277.094 271.906 277.108 271.416C277.108 271.332 277.136 271.22 277.276 271.22C277.416 271.22 277.444 271.332 277.444 271.416C277.458 271.906 277.542 272.424 277.668 272.816L278.802 276.19H275.75ZM286.299 273.964C284.563 273.768 284.381 273.124 284.381 272.746C284.381 272.326 284.745 271.598 286.187 271.598C287.615 271.598 288.049 272.522 288.049 273.166H289.855C289.827 271.57 288.777 270.03 286.215 270.03C283.877 270.03 282.491 271.29 282.491 272.83C282.491 274.51 283.387 275.42 286.187 275.784C287.881 276.008 288.315 276.498 288.315 277.17C288.315 277.716 287.825 278.542 286.187 278.542C284.381 278.542 284.031 277.282 284.003 276.526H282.155C282.155 278.346 283.443 280.11 286.187 280.11C288.819 280.11 290.219 278.682 290.219 277.058C290.219 274.818 288.609 274.23 286.299 273.964ZM295.539 270.03C292.459 270.03 290.611 272.284 290.611 275.07C290.611 277.856 292.459 280.11 295.539 280.11C298.619 280.11 300.467 277.856 300.467 275.07C300.467 272.284 298.619 270.03 295.539 270.03ZM295.539 278.43C293.649 278.43 292.515 276.932 292.515 275.07C292.515 273.208 293.649 271.71 295.539 271.71C297.429 271.71 298.563 273.208 298.563 275.07C298.563 276.932 297.429 278.43 295.539 278.43ZM304.784 273.964C303.048 273.768 302.866 273.124 302.866 272.746C302.866 272.326 303.23 271.598 304.672 271.598C306.1 271.598 306.534 272.522 306.534 273.166H308.34C308.312 271.57 307.262 270.03 304.7 270.03C302.362 270.03 300.976 271.29 300.976 272.83C300.976 274.51 301.872 275.42 304.672 275.784C306.366 276.008 306.8 276.498 306.8 277.17C306.8 277.716 306.31 278.542 304.672 278.542C302.866 278.542 302.516 277.282 302.488 276.526H300.64C300.64 278.346 301.928 280.11 304.672 280.11C307.304 280.11 308.704 278.682 308.704 277.058C308.704 274.818 307.094 274.23 304.784 273.964ZM309.32 281.678H310.524C311.126 280.572 311.336 280.32 311.336 279.802V277.982H309.32V279.998H309.754C309.894 279.998 310.034 279.984 310.202 279.928C310.398 279.858 310.496 279.844 310.524 279.956C310.552 280.068 310.412 280.11 310.216 280.208C310.09 280.278 309.978 280.404 309.922 280.516L309.32 281.678ZM318.159 270.142C317.963 271.57 317.823 271.99 315.695 271.99V273.334H317.935V279.998H319.727V270.142H318.159ZM327.978 275.056C327.866 275.014 327.684 274.986 327.684 274.818C327.684 274.65 327.852 274.622 327.95 274.58C328.748 274.244 329.196 273.488 329.196 272.718C329.196 271.332 328.034 270.03 325.612 270.03C323.19 270.03 322.028 271.332 322.028 272.718C322.028 273.488 322.49 274.202 323.274 274.58C323.372 274.622 323.54 274.65 323.54 274.818C323.54 274.986 323.358 275.014 323.246 275.056C322.196 275.448 321.692 276.246 321.692 277.198C321.692 278.794 323.106 280.11 325.612 280.11C328.118 280.11 329.532 278.794 329.532 277.198C329.532 276.246 329.028 275.448 327.978 275.056ZM325.612 271.654C326.872 271.654 327.404 272.2 327.404 272.886C327.404 273.572 326.872 274.118 325.612 274.118C324.352 274.118 323.82 273.572 323.82 272.886C323.82 272.2 324.352 271.654 325.612 271.654ZM325.612 278.486C324.156 278.486 323.484 277.856 323.484 277.086C323.484 276.316 324.156 275.686 325.612 275.686C327.068 275.686 327.74 276.316 327.74 277.086C327.74 277.856 327.068 278.486 325.612 278.486ZM334.627 270.03C331.995 270.03 330.595 272.186 330.595 275.07C330.595 277.954 331.995 280.11 334.627 280.11C337.259 280.11 338.659 277.954 338.659 275.07C338.659 272.186 337.259 270.03 334.627 270.03ZM334.627 278.43C333.129 278.43 332.387 277.044 332.387 275.07C332.387 273.096 333.129 271.71 334.627 271.71C336.125 271.71 336.867 273.096 336.867 275.07C336.867 277.044 336.125 278.43 334.627 278.43ZM343.534 270.03C340.902 270.03 339.502 272.186 339.502 275.07C339.502 277.954 340.902 280.11 343.534 280.11C346.166 280.11 347.566 277.954 347.566 275.07C347.566 272.186 346.166 270.03 343.534 270.03ZM343.534 278.43C342.036 278.43 341.294 277.044 341.294 275.07C341.294 273.096 342.036 271.71 343.534 271.71C345.032 271.71 345.774 273.096 345.774 275.07C345.774 277.044 345.032 278.43 343.534 278.43ZM355.616 271.486H356.862V269.918H355.238C353.754 269.918 353.054 270.408 353.054 272.186V272.606H351.934V274.174H353.054V279.998H354.846V274.174H356.862V272.606H354.846V272.354C354.846 271.542 354.86 271.486 355.616 271.486ZM357.589 269.918V279.998H359.381V269.918H357.589ZM363.702 272.494C361.392 272.494 360.006 274.202 360.006 276.302C360.006 278.402 361.392 280.11 363.702 280.11C366.012 280.11 367.398 278.402 367.398 276.302C367.398 274.202 366.012 272.494 363.702 272.494ZM363.702 278.486C362.484 278.486 361.798 277.506 361.798 276.302C361.798 275.098 362.484 274.118 363.702 274.118C364.92 274.118 365.606 275.098 365.606 276.302C365.606 277.506 364.92 278.486 363.702 278.486ZM367.126 272.606L369.254 279.998H371.606L372.6 275.28C372.67 274.944 372.67 274.58 372.67 274.286C372.67 274.188 372.698 274.076 372.838 274.076C372.978 274.076 373.006 274.188 373.006 274.286C373.006 274.58 373.006 274.944 373.076 275.28L374.07 279.998H376.422L378.55 272.606H376.646L375.484 277.702C375.414 278.01 375.414 278.304 375.414 278.598C375.414 278.696 375.386 278.808 375.246 278.808C375.106 278.808 375.078 278.696 375.078 278.598C375.078 278.304 375.078 278.01 375.008 277.702L373.902 272.606H371.774L370.668 277.702C370.598 278.01 370.598 278.304 370.598 278.598C370.598 278.696 370.57 278.808 370.43 278.808C370.29 278.808 370.262 278.696 370.262 278.598C370.262 278.304 370.262 278.01 370.192 277.702L369.03 272.606H367.126ZM385.44 276.204C385.44 273.516 383.662 272.494 381.954 272.494C379.7 272.494 378.272 273.992 378.272 276.302C378.272 278.5 379.588 280.11 381.982 280.11C383.956 280.11 384.992 278.948 385.314 277.422H383.494C383.284 278.08 382.85 278.542 381.996 278.542C380.876 278.542 380.148 277.87 380.022 276.75H385.398C385.426 276.54 385.44 276.4 385.44 276.204ZM380.092 275.518C380.274 274.636 380.792 273.95 382.01 273.95C383.046 273.95 383.578 274.622 383.648 275.518H380.092ZM387.707 274.188C387.539 274.16 387.581 273.992 387.637 273.866C387.763 273.614 387.847 273.334 387.847 273.012V272.606H386.055V279.998H387.847V276.792C387.847 274.916 388.449 274.174 390.535 274.314V272.494C388.729 272.494 388.323 273.026 387.875 274.048C387.861 274.09 387.791 274.202 387.707 274.188ZM390.591 277.506C390.661 279.088 391.795 280.11 393.937 280.11C396.121 280.11 397.311 279.228 397.311 277.688C397.311 276.204 396.009 275.616 394.203 275.434C392.761 275.294 392.607 275 392.607 274.65C392.607 274.23 392.915 273.894 393.937 273.894C394.973 273.894 395.281 274.412 395.323 274.874H397.087C396.989 273.53 395.925 272.494 393.979 272.494C391.879 272.494 390.815 273.544 390.815 274.748C390.815 275.574 391.109 276.75 393.377 277.03C394.791 277.198 395.519 277.282 395.519 277.828C395.519 278.318 395.141 278.71 393.993 278.71C392.691 278.71 392.369 278.052 392.355 277.506H390.591ZM397.931 281.678H399.135C399.737 280.572 399.947 280.32 399.947 279.802V277.982H397.931V279.998H398.365C398.505 279.998 398.645 279.984 398.813 279.928C399.009 279.858 399.107 279.844 399.135 279.956C399.163 280.068 399.023 280.11 398.827 280.208C398.701 280.278 398.589 280.404 398.533 280.516L397.931 281.678ZM404.306 270.142L406.77 279.998H409.682L410.774 273.628C410.83 273.334 410.858 272.9 410.858 272.438C410.858 272.354 410.886 272.242 411.026 272.242C411.166 272.242 411.194 272.354 411.194 272.438C411.194 272.9 411.222 273.334 411.278 273.628L412.37 279.998H415.282L417.746 270.142H415.73L414.064 277.45C413.98 277.828 413.938 278.29 413.938 278.626C413.938 278.71 413.91 278.808 413.77 278.808C413.644 278.808 413.602 278.724 413.602 278.626C413.602 278.29 413.574 277.828 413.504 277.45L412.146 270.142H409.906L408.548 277.45C408.478 277.828 408.45 278.29 408.45 278.626C408.45 278.724 408.408 278.808 408.282 278.808C408.142 278.808 408.114 278.71 408.114 278.626C408.1 278.29 408.072 277.828 407.988 277.45L406.322 270.142H404.306ZM422.531 272.494C421.243 272.494 420.403 273.53 420.067 274.272C420.011 274.384 419.969 274.468 419.857 274.44C419.675 274.398 419.759 274.202 419.815 274.076C419.955 273.782 420.039 273.516 420.039 273.068V269.918H418.247V279.998H420.039V276.988C420.039 275.28 420.991 274.118 422.027 274.118C422.965 274.118 423.399 274.58 423.399 276.246V279.998H425.191V275.63C425.191 273.53 424.127 272.494 422.531 272.494ZM426.143 271.71H427.935V269.918H426.143V271.71ZM426.143 279.998H427.935V272.606H426.143V279.998ZM429.117 269.918V279.998H430.909V269.918H429.117ZM431.643 277.506C431.713 279.088 432.847 280.11 434.989 280.11C437.173 280.11 438.363 279.228 438.363 277.688C438.363 276.204 437.061 275.616 435.255 275.434C433.813 275.294 433.659 275 433.659 274.65C433.659 274.23 433.967 273.894 434.989 273.894C436.025 273.894 436.333 274.412 436.375 274.874H438.139C438.041 273.53 436.977 272.494 435.031 272.494C432.931 272.494 431.867 273.544 431.867 274.748C431.867 275.574 432.161 276.75 434.429 277.03C435.843 277.198 436.571 277.282 436.571 277.828C436.571 278.318 436.193 278.71 435.045 278.71C433.743 278.71 433.421 278.052 433.407 277.506H431.643ZM443.578 274.174V272.606H441.562V270.59H439.77V272.606H438.426V274.174H439.77V277.73C439.77 279.508 440.47 279.998 441.954 279.998H443.578V278.43H442.332C441.576 278.43 441.562 278.36 441.562 277.548V274.174H443.578ZM197.459 292.606H195.667V302.686H197.459V299.676C197.459 299.396 197.389 299.172 197.263 298.92C197.193 298.78 197.137 298.64 197.291 298.584C197.417 298.542 197.473 298.682 197.501 298.724C197.949 299.536 198.719 300.11 199.839 300.11C201.757 300.11 203.059 298.43 203.059 296.302C203.059 294.174 201.757 292.494 199.839 292.494C198.691 292.494 197.949 293.082 197.501 293.866C197.473 293.922 197.389 294.104 197.249 294.034C197.109 293.964 197.207 293.796 197.263 293.656C197.389 293.404 197.459 293.18 197.459 292.886V292.606ZM199.419 298.486C198.243 298.486 197.459 297.478 197.459 296.302C197.459 295.126 198.243 294.118 199.419 294.118C200.679 294.118 201.267 295.126 201.267 296.302C201.267 297.478 200.679 298.486 199.419 298.486ZM203.456 297.968C203.456 299.214 204.646 300.11 206.032 300.11C207.348 300.11 208.16 299.522 208.58 298.5C208.608 298.43 208.664 298.29 208.804 298.346C208.93 298.402 208.874 298.542 208.818 298.668C208.692 298.906 208.608 299.144 208.608 299.48V299.998H210.4V295.91C210.4 293.054 208.874 292.494 207.18 292.494C205.528 292.494 203.932 293.208 203.68 295.07H205.444C205.542 294.468 205.864 293.95 207.124 293.95C208.398 293.95 208.594 294.51 208.608 295.014C208.622 295.7 207.46 295.574 206.144 295.644C204.66 295.728 203.456 296.33 203.456 297.968ZM208.608 296.19C208.594 298.024 207.614 298.64 206.662 298.766C205.836 298.878 205.248 298.486 205.248 297.87C205.248 297.212 205.682 296.918 206.452 296.834C207.516 296.722 208.188 296.652 208.608 296.19ZM210.576 292.606L213.46 300.096L213.306 300.544C213.11 301.118 212.9 301.118 211.836 301.118H211.22V302.686H212.564C213.852 302.686 214.552 302.168 215.056 300.852L218.192 292.606H216.288L214.706 297.38C214.608 297.674 214.58 297.954 214.58 298.22C214.58 298.332 214.566 298.458 214.412 298.458C214.258 298.458 214.244 298.318 214.244 298.22C214.244 297.94 214.23 297.674 214.132 297.38L212.48 292.606H210.576ZM218.479 291.71H220.271V289.918H218.479V291.71ZM218.479 299.998H220.271V292.606H218.479V299.998ZM225.737 292.494C224.449 292.494 223.609 293.53 223.273 294.272C223.217 294.384 223.175 294.468 223.063 294.44C222.881 294.398 222.965 294.202 223.021 294.076C223.161 293.782 223.245 293.516 223.245 293.068V292.606H221.453V299.998H223.245V296.988C223.245 295.28 224.197 294.118 225.233 294.118C226.171 294.118 226.605 294.58 226.605 296.246V299.998H228.397V295.63C228.397 293.53 227.333 292.494 225.737 292.494ZM229.01 296.134C229.01 298.122 230.312 299.774 232.23 299.774C233.35 299.774 234.092 299.214 234.568 298.402C234.596 298.346 234.666 298.22 234.792 298.276C234.932 298.346 234.834 298.486 234.764 298.626C234.652 298.836 234.61 299.032 234.61 299.284C234.61 300.642 233.98 301.342 232.72 301.342C231.53 301.342 231.082 300.838 230.998 300.166H229.234C229.36 301.552 230.424 302.798 232.748 302.798C235.016 302.798 236.402 301.58 236.402 299.214V292.606H234.61V292.942C234.61 293.208 234.652 293.404 234.764 293.614C234.834 293.754 234.932 293.936 234.792 293.992C234.666 294.048 234.582 293.866 234.568 293.838C234.092 293.068 233.378 292.494 232.23 292.494C230.312 292.494 229.01 294.146 229.01 296.134ZM232.65 298.15C231.39 298.15 230.802 297.226 230.802 296.134C230.802 295.042 231.39 294.118 232.65 294.118C233.826 294.118 234.61 295.042 234.61 296.134C234.61 297.226 233.826 298.15 232.65 298.15ZM244.678 291.486H245.924V289.918H244.3C242.816 289.918 242.116 290.408 242.116 292.186V292.606H240.996V294.174H242.116V299.998H243.908V294.174H245.924V292.606H243.908V292.354C243.908 291.542 243.922 291.486 244.678 291.486ZM249.667 292.494C247.357 292.494 245.971 294.202 245.971 296.302C245.971 298.402 247.357 300.11 249.667 300.11C251.977 300.11 253.363 298.402 253.363 296.302C253.363 294.202 251.977 292.494 249.667 292.494ZM249.667 298.486C248.449 298.486 247.763 297.506 247.763 296.302C247.763 295.098 248.449 294.118 249.667 294.118C250.885 294.118 251.571 295.098 251.571 296.302C251.571 297.506 250.885 298.486 249.667 298.486ZM255.639 294.188C255.471 294.16 255.513 293.992 255.569 293.866C255.695 293.614 255.779 293.334 255.779 293.012V292.606H253.987V299.998H255.779V296.792C255.779 294.916 256.381 294.174 258.467 294.314V292.494C256.661 292.494 256.255 293.026 255.807 294.048C255.793 294.09 255.723 294.202 255.639 294.188ZM265.72 300.11C267.008 300.11 267.82 299.06 268.184 298.332C268.24 298.22 268.282 298.136 268.394 298.164C268.576 298.206 268.492 298.402 268.436 298.528C268.31 298.822 268.212 299.088 268.212 299.536V299.998H270.004V292.606H268.212V295.616C268.212 297.324 267.26 298.486 266.224 298.486C265.286 298.486 264.852 298.024 264.852 296.358V292.606H263.06V296.974C263.06 299.074 264.124 300.11 265.72 300.11ZM275.66 294.174V292.606H273.644V290.59H271.852V292.606H270.508V294.174H271.852V297.73C271.852 299.508 272.552 299.998 274.036 299.998H275.66V298.43H274.414C273.658 298.43 273.644 298.36 273.644 297.548V294.174H275.66ZM276.615 291.71H278.407V289.918H276.615V291.71ZM276.615 299.998H278.407V292.606H276.615V299.998ZM279.589 289.918V299.998H281.381V289.918H279.589ZM282.562 291.71H284.354V289.918H282.562V291.71ZM282.562 299.998H284.354V292.606H282.562V299.998ZM289.907 294.174V292.606H287.891V290.59H286.099V292.606H284.755V294.174H286.099V297.73C286.099 299.508 286.799 299.998 288.283 299.998H289.907V298.43H288.661C287.905 298.43 287.891 298.36 287.891 297.548V294.174H289.907ZM290.862 291.71H292.654V289.918H290.862V291.71ZM290.862 299.998H292.654V292.606H290.862V299.998ZM300.446 296.204C300.446 293.516 298.668 292.494 296.96 292.494C294.706 292.494 293.278 293.992 293.278 296.302C293.278 298.5 294.594 300.11 296.988 300.11C298.962 300.11 299.998 298.948 300.32 297.422H298.5C298.29 298.08 297.856 298.542 297.002 298.542C295.882 298.542 295.154 297.87 295.028 296.75H300.404C300.432 296.54 300.446 296.4 300.446 296.204ZM295.098 295.518C295.28 294.636 295.798 293.95 297.016 293.95C298.052 293.95 298.584 294.622 298.654 295.518H295.098ZM300.832 297.506C300.902 299.088 302.036 300.11 304.178 300.11C306.362 300.11 307.552 299.228 307.552 297.688C307.552 296.204 306.25 295.616 304.444 295.434C303.002 295.294 302.848 295 302.848 294.65C302.848 294.23 303.156 293.894 304.178 293.894C305.214 293.894 305.522 294.412 305.564 294.874H307.328C307.23 293.53 306.166 292.494 304.22 292.494C302.12 292.494 301.056 293.544 301.056 294.748C301.056 295.574 301.35 296.75 303.618 297.03C305.032 297.198 305.76 297.282 305.76 297.828C305.76 298.318 305.382 298.71 304.234 298.71C302.932 298.71 302.61 298.052 302.596 297.506H300.832ZM311.921 297.968C311.921 299.214 313.111 300.11 314.497 300.11C315.813 300.11 316.625 299.522 317.045 298.5C317.073 298.43 317.129 298.29 317.269 298.346C317.395 298.402 317.339 298.542 317.283 298.668C317.157 298.906 317.073 299.144 317.073 299.48V299.998H318.865V295.91C318.865 293.054 317.339 292.494 315.645 292.494C313.993 292.494 312.397 293.208 312.145 295.07H313.909C314.007 294.468 314.329 293.95 315.589 293.95C316.863 293.95 317.059 294.51 317.073 295.014C317.087 295.7 315.925 295.574 314.609 295.644C313.125 295.728 311.921 296.33 311.921 297.968ZM317.073 296.19C317.059 298.024 316.079 298.64 315.127 298.766C314.301 298.878 313.713 298.486 313.713 297.87C313.713 297.212 314.147 296.918 314.917 296.834C315.981 296.722 316.653 296.652 317.073 296.19ZM324.22 292.494C322.932 292.494 322.092 293.53 321.756 294.272C321.7 294.384 321.658 294.468 321.546 294.44C321.364 294.398 321.448 294.202 321.504 294.076C321.644 293.782 321.728 293.516 321.728 293.068V292.606H319.936V299.998H321.728V296.988C321.728 295.28 322.68 294.118 323.716 294.118C324.654 294.118 325.088 294.58 325.088 296.246V299.998H326.88V295.63C326.88 293.53 325.816 292.494 324.22 292.494ZM333.094 289.918V292.886C333.094 293.18 333.164 293.404 333.29 293.656C333.36 293.796 333.444 293.964 333.304 294.034C333.164 294.104 333.08 293.922 333.052 293.866C332.646 293.054 331.862 292.494 330.714 292.494C328.796 292.494 327.494 294.174 327.494 296.302C327.494 298.43 328.796 300.11 330.714 300.11C331.834 300.11 332.534 299.494 333.052 298.724C333.08 298.682 333.136 298.542 333.262 298.584C333.416 298.64 333.36 298.78 333.29 298.92C333.164 299.172 333.094 299.396 333.094 299.676V299.998H334.886V289.918H333.094ZM331.134 298.486C329.874 298.486 329.286 297.478 329.286 296.302C329.286 295.126 329.874 294.118 331.134 294.118C332.31 294.118 333.094 295.126 333.094 296.302C333.094 297.478 332.31 298.486 331.134 298.486ZM346.871 296.204C346.871 293.516 345.093 292.494 343.385 292.494C341.131 292.494 339.703 293.992 339.703 296.302C339.703 298.5 341.019 300.11 343.413 300.11C345.387 300.11 346.423 298.948 346.745 297.422H344.925C344.715 298.08 344.281 298.542 343.427 298.542C342.307 298.542 341.579 297.87 341.453 296.75H346.829C346.857 296.54 346.871 296.4 346.871 296.204ZM341.523 295.518C341.705 294.636 342.223 293.95 343.441 293.95C344.477 293.95 345.009 294.622 345.079 295.518H341.523ZM346.59 292.606L349.11 299.998H351.686L354.206 292.606H352.302L350.664 298.01C350.58 298.29 350.566 298.556 350.566 298.822C350.566 298.92 350.538 299.032 350.398 299.032C350.258 299.032 350.23 298.92 350.23 298.822C350.23 298.556 350.216 298.29 350.132 298.01L348.494 292.606H346.59ZM361.104 296.204C361.104 293.516 359.326 292.494 357.618 292.494C355.364 292.494 353.936 293.992 353.936 296.302C353.936 298.5 355.252 300.11 357.646 300.11C359.62 300.11 360.656 298.948 360.978 297.422H359.158C358.948 298.08 358.514 298.542 357.66 298.542C356.54 298.542 355.812 297.87 355.686 296.75H361.062C361.09 296.54 361.104 296.4 361.104 296.204ZM355.756 295.518C355.938 294.636 356.456 293.95 357.674 293.95C358.71 293.95 359.242 294.622 359.312 295.518H355.756ZM366.003 292.494C364.715 292.494 363.875 293.53 363.539 294.272C363.483 294.384 363.441 294.468 363.329 294.44C363.147 294.398 363.231 294.202 363.287 294.076C363.427 293.782 363.511 293.516 363.511 293.068V292.606H361.719V299.998H363.511V296.988C363.511 295.28 364.463 294.118 365.499 294.118C366.437 294.118 366.871 294.58 366.871 296.246V299.998H368.663V295.63C368.663 293.53 367.599 292.494 366.003 292.494ZM381.788 292.494C380.906 292.494 380.164 293.026 379.744 293.964C379.702 294.062 379.632 294.09 379.548 294.09C379.436 294.09 379.366 294.048 379.338 293.95C379.142 293.096 378.526 292.494 377.56 292.494C376.58 292.494 375.894 293.096 375.516 294.062C375.488 294.132 375.432 294.258 375.292 294.216C375.152 294.174 375.194 294.034 375.25 293.908C375.39 293.6 375.488 293.39 375.488 293.026V292.606H373.696V299.998H375.488V296.582C375.488 295.154 376.132 294.118 377 294.118C377.91 294.118 378.064 294.734 378.064 295.854V299.998H379.856V296.274C379.856 294.958 380.458 294.118 381.242 294.118C382.11 294.118 382.432 294.566 382.432 295.686V299.998H384.224V295.406C384.224 293.194 383.076 292.494 381.788 292.494ZM388.532 292.494C386.222 292.494 384.836 294.202 384.836 296.302C384.836 298.402 386.222 300.11 388.532 300.11C390.842 300.11 392.228 298.402 392.228 296.302C392.228 294.202 390.842 292.494 388.532 292.494ZM388.532 298.486C387.314 298.486 386.628 297.506 386.628 296.302C386.628 295.098 387.314 294.118 388.532 294.118C389.75 294.118 390.436 295.098 390.436 296.302C390.436 297.506 389.75 298.486 388.532 298.486ZM394.503 294.188C394.335 294.16 394.377 293.992 394.433 293.866C394.559 293.614 394.643 293.334 394.643 293.012V292.606H392.851V299.998H394.643V296.792C394.643 294.916 395.245 294.174 397.331 294.314V292.494C395.525 292.494 395.119 293.026 394.671 294.048C394.657 294.09 394.587 294.202 394.503 294.188ZM404.446 296.204C404.446 293.516 402.668 292.494 400.96 292.494C398.706 292.494 397.278 293.992 397.278 296.302C397.278 298.5 398.594 300.11 400.988 300.11C402.962 300.11 403.998 298.948 404.32 297.422H402.5C402.29 298.08 401.856 298.542 401.002 298.542C399.882 298.542 399.154 297.87 399.028 296.75H404.404C404.432 296.54 404.446 296.4 404.446 296.204ZM399.098 295.518C399.28 294.636 399.798 293.95 401.016 293.95C402.052 293.95 402.584 294.622 402.654 295.518H399.098ZM405.056 297.982V299.998H407.072V297.982H405.056Z" fill="white"/>
<g filter="url(#filter0_d_1_6513)">
<rect x="217.255" y="335.998" width="168" height="49" rx="4" fill="white" shape-rendering="crispEdges"/>
<path d="M257.235 359.964C255.499 359.768 255.317 359.124 255.317 358.746C255.317 358.326 255.681 357.598 257.123 357.598C258.551 357.598 258.985 358.522 258.985 359.166H260.791C260.763 357.57 259.713 356.03 257.151 356.03C254.813 356.03 253.427 357.29 253.427 358.83C253.427 360.51 254.323 361.42 257.123 361.784C258.817 362.008 259.251 362.498 259.251 363.17C259.251 363.716 258.761 364.542 257.123 364.542C255.317 364.542 254.967 363.282 254.939 362.526H253.091C253.091 364.346 254.379 366.11 257.123 366.11C259.755 366.11 261.155 364.682 261.155 363.058C261.155 360.818 259.545 360.23 257.235 359.964ZM266.475 360.174V358.606H264.459V356.59H262.667V358.606H261.323V360.174H262.667V363.73C262.667 365.508 263.367 365.998 264.851 365.998H266.475V364.43H265.229C264.473 364.43 264.459 364.36 264.459 363.548V360.174H266.475ZM266.982 363.968C266.982 365.214 268.172 366.11 269.558 366.11C270.874 366.11 271.686 365.522 272.106 364.5C272.134 364.43 272.19 364.29 272.33 364.346C272.456 364.402 272.4 364.542 272.344 364.668C272.218 364.906 272.134 365.144 272.134 365.48V365.998H273.926V361.91C273.926 359.054 272.4 358.494 270.706 358.494C269.054 358.494 267.458 359.208 267.206 361.07H268.97C269.068 360.468 269.39 359.95 270.65 359.95C271.924 359.95 272.12 360.51 272.134 361.014C272.148 361.7 270.986 361.574 269.67 361.644C268.186 361.728 266.982 362.33 266.982 363.968ZM272.134 362.19C272.12 364.024 271.14 364.64 270.188 364.766C269.362 364.878 268.774 364.486 268.774 363.87C268.774 363.212 269.208 362.918 269.978 362.834C271.042 362.722 271.714 362.652 272.134 362.19ZM276.649 360.188C276.481 360.16 276.523 359.992 276.579 359.866C276.705 359.614 276.789 359.334 276.789 359.012V358.606H274.997V365.998H276.789V362.792C276.789 360.916 277.391 360.174 279.477 360.314V358.494C277.671 358.494 277.265 359.026 276.817 360.048C276.803 360.09 276.733 360.202 276.649 360.188ZM284.803 360.174V358.606H282.787V356.59H280.995V358.606H279.651V360.174H280.995V363.73C280.995 365.508 281.695 365.998 283.179 365.998H284.803V364.43H283.557C282.801 364.43 282.787 364.36 282.787 363.548V360.174H284.803ZM293.535 359.964C291.799 359.768 291.617 359.124 291.617 358.746C291.617 358.326 291.981 357.598 293.423 357.598C294.851 357.598 295.285 358.522 295.285 359.166H297.091C297.063 357.57 296.013 356.03 293.451 356.03C291.113 356.03 289.727 357.29 289.727 358.83C289.727 360.51 290.623 361.42 293.423 361.784C295.117 362.008 295.551 362.498 295.551 363.17C295.551 363.716 295.061 364.542 293.423 364.542C291.617 364.542 291.267 363.282 291.239 362.526H289.391C289.391 364.346 290.679 366.11 293.423 366.11C296.055 366.11 297.455 364.682 297.455 363.058C297.455 360.818 295.845 360.23 293.535 359.964ZM302.579 358.494C301.291 358.494 300.451 359.53 300.115 360.272C300.059 360.384 300.017 360.468 299.905 360.44C299.723 360.398 299.807 360.202 299.863 360.076C300.003 359.782 300.087 359.516 300.087 359.068V355.918H298.295V365.998H300.087V362.988C300.087 361.28 301.039 360.118 302.075 360.118C303.013 360.118 303.447 360.58 303.447 362.246V365.998H305.239V361.63C305.239 359.53 304.175 358.494 302.579 358.494ZM309.549 358.494C307.239 358.494 305.853 360.202 305.853 362.302C305.853 364.402 307.239 366.11 309.549 366.11C311.859 366.11 313.245 364.402 313.245 362.302C313.245 360.202 311.859 358.494 309.549 358.494ZM309.549 364.486C308.331 364.486 307.645 363.506 307.645 362.302C307.645 361.098 308.331 360.118 309.549 360.118C310.767 360.118 311.453 361.098 311.453 362.302C311.453 363.506 310.767 364.486 309.549 364.486ZM315.66 358.606H313.868V368.686H315.66V365.676C315.66 365.396 315.59 365.172 315.464 364.92C315.394 364.78 315.338 364.64 315.492 364.584C315.618 364.542 315.674 364.682 315.702 364.724C316.15 365.536 316.92 366.11 318.04 366.11C319.958 366.11 321.26 364.43 321.26 362.302C321.26 360.174 319.958 358.494 318.04 358.494C316.892 358.494 316.15 359.082 315.702 359.866C315.674 359.922 315.59 360.104 315.45 360.034C315.31 359.964 315.408 359.796 315.464 359.656C315.59 359.404 315.66 359.18 315.66 358.886V358.606ZM317.62 364.486C316.444 364.486 315.66 363.478 315.66 362.302C315.66 361.126 316.444 360.118 317.62 360.118C318.88 360.118 319.468 361.126 319.468 362.302C319.468 363.478 318.88 364.486 317.62 364.486ZM323.788 358.606H321.996V368.686H323.788V365.676C323.788 365.396 323.718 365.172 323.592 364.92C323.522 364.78 323.466 364.64 323.62 364.584C323.746 364.542 323.802 364.682 323.83 364.724C324.278 365.536 325.048 366.11 326.168 366.11C328.086 366.11 329.388 364.43 329.388 362.302C329.388 360.174 328.086 358.494 326.168 358.494C325.02 358.494 324.278 359.082 323.83 359.866C323.802 359.922 323.718 360.104 323.578 360.034C323.438 359.964 323.536 359.796 323.592 359.656C323.718 359.404 323.788 359.18 323.788 358.886V358.606ZM325.748 364.486C324.572 364.486 323.788 363.478 323.788 362.302C323.788 361.126 324.572 360.118 325.748 360.118C327.008 360.118 327.596 361.126 327.596 362.302C327.596 363.478 327.008 364.486 325.748 364.486ZM330.125 357.71H331.917V355.918H330.125V357.71ZM330.125 365.998H331.917V358.606H330.125V365.998ZM337.382 358.494C336.094 358.494 335.254 359.53 334.918 360.272C334.862 360.384 334.82 360.468 334.708 360.44C334.526 360.398 334.61 360.202 334.666 360.076C334.806 359.782 334.89 359.516 334.89 359.068V358.606H333.098V365.998H334.89V362.988C334.89 361.28 335.842 360.118 336.878 360.118C337.816 360.118 338.25 360.58 338.25 362.246V365.998H340.042V361.63C340.042 359.53 338.978 358.494 337.382 358.494ZM340.656 362.134C340.656 364.122 341.958 365.774 343.876 365.774C344.996 365.774 345.738 365.214 346.214 364.402C346.242 364.346 346.312 364.22 346.438 364.276C346.578 364.346 346.48 364.486 346.41 364.626C346.298 364.836 346.256 365.032 346.256 365.284C346.256 366.642 345.626 367.342 344.366 367.342C343.176 367.342 342.728 366.838 342.644 366.166H340.88C341.006 367.552 342.07 368.798 344.394 368.798C346.662 368.798 348.048 367.58 348.048 365.214V358.606H346.256V358.942C346.256 359.208 346.298 359.404 346.41 359.614C346.48 359.754 346.578 359.936 346.438 359.992C346.312 360.048 346.228 359.866 346.214 359.838C345.738 359.068 345.024 358.494 343.876 358.494C341.958 358.494 340.656 360.146 340.656 362.134ZM344.296 364.15C343.036 364.15 342.448 363.226 342.448 362.134C342.448 361.042 343.036 360.118 344.296 360.118C345.472 360.118 346.256 361.042 346.256 362.134C346.256 363.226 345.472 364.15 344.296 364.15Z" fill="#0069E0"/>
</g>
<defs>
<filter id="filter0_d_1_6513" x="217.255" y="335.998" width="172" height="53" filterUnits="userSpaceOnUse" color-interpolation-filters="sRGB">
<feFlood flood-opacity="0" result="BackgroundImageFix"/>
<feColorMatrix in="SourceAlpha" type="matrix" values="0 0 0 0 0 0 0 0 0 0 0 0 0 0 0 0 0 0 127 0" result="hardAlpha"/>
<feOffset dx="4" dy="4"/>
<feComposite in2="hardAlpha" operator="out"/>
<feColorMatrix type="matrix" values="0 0 0 0 0.360784 0 0 0 0 0.647059 0 0 0 0 1 0 0 0 1 0"/>
<feBlend mode="normal" in2="BackgroundImageFix" result="effect1_dropShadow_1_6513"/>
<feBlend mode="normal" in="SourceGraphic" in2="effect1_dropShadow_1_6513" result="shape"/>
</filter>
</defs>
</svg>
