<svg width="143" height="27" viewBox="0 0 143 27" fill="none" xmlns="http://www.w3.org/2000/svg">
<path d="M3.78557 4.93108V15.2369L6.41853 12.8299C6.976 12.3177 7.29994 11.9937 7.39035 11.8581C7.45061 11.7677 7.48075 11.6773 7.48075 11.5869C7.48075 11.4362 7.41671 11.3082 7.28864 11.2027C7.16811 11.0897 6.9647 11.0257 6.67843 11.0106V10.649H11.1759V11.0106C10.5582 11.0257 10.0421 11.1198 9.62779 11.2931C9.22098 11.4664 8.77274 11.7753 8.28306 12.2197L5.62751 14.6719L8.28306 18.028C9.02135 18.9547 9.51856 19.5423 9.77469 19.7909C10.1363 20.1449 10.4527 20.3747 10.7239 20.4802C10.9122 20.5555 11.24 20.5932 11.707 20.5932V21H6.67843V20.5932C6.9647 20.5857 7.15681 20.5442 7.25474 20.4689C7.36021 20.386 7.41295 20.273 7.41295 20.1299C7.41295 19.9566 7.26228 19.6779 6.96094 19.2937L3.78557 15.2369V18.6722C3.78557 19.3426 3.83078 19.7833 3.92118 19.9943C4.01911 20.2052 4.15472 20.3559 4.32799 20.4463C4.50126 20.5367 4.87793 20.5857 5.45801 20.5932V21H0.192104V20.5932C0.719448 20.5932 1.11496 20.5292 1.37863 20.4011C1.53683 20.3182 1.65737 20.1902 1.74023 20.0169C1.85324 19.7683 1.90974 19.3389 1.90974 18.7287V9.30427C1.90974 8.10644 1.88337 7.3757 1.83064 7.11202C1.7779 6.84082 1.69127 6.65625 1.57073 6.55831C1.4502 6.45285 1.29199 6.40011 1.09612 6.40011C0.937919 6.40011 0.700614 6.46415 0.384208 6.59221L0.192104 6.19671L3.26576 4.93108H3.78557ZM14.9276 4.93108C15.244 4.93108 15.5114 5.04408 15.7299 5.27009C15.9559 5.48856 16.0689 5.756 16.0689 6.0724C16.0689 6.38881 15.9559 6.66002 15.7299 6.88602C15.5114 7.11202 15.244 7.22503 14.9276 7.22503C14.6112 7.22503 14.34 7.11202 14.114 6.88602C13.888 6.66002 13.775 6.38881 13.775 6.0724C13.775 5.756 13.8842 5.48856 14.1027 5.27009C14.3287 5.04408 14.6037 4.93108 14.9276 4.93108ZM15.8655 10.3439V18.6609C15.8655 19.3087 15.9107 19.7419 16.0011 19.9604C16.0991 20.1713 16.2384 20.3295 16.4192 20.435C16.6076 20.5405 16.9466 20.5932 17.4362 20.5932V21H12.4076V20.5932C12.9124 20.5932 13.2514 20.5442 13.4247 20.4463C13.5979 20.3484 13.7335 20.1864 13.8315 19.9604C13.9369 19.7344 13.9897 19.3012 13.9897 18.6609V14.6719C13.9897 13.5494 13.9558 12.8224 13.888 12.4909C13.8352 12.2499 13.7524 12.0841 13.6394 11.9937C13.5264 11.8958 13.3719 11.8468 13.1761 11.8468C12.9651 11.8468 12.709 11.9033 12.4076 12.0163L12.2494 11.6095L15.3683 10.3439H15.8655ZM21.7529 12.5361C22.9658 11.0746 24.1222 10.3439 25.2221 10.3439C25.7871 10.3439 26.273 10.487 26.6798 10.7733C27.0866 11.052 27.4106 11.5153 27.6516 12.1632C27.8174 12.6152 27.9003 13.3083 27.9003 14.2425V18.6609C27.9003 19.3163 27.953 19.7607 28.0585 19.9943C28.1413 20.1826 28.2732 20.3295 28.454 20.435C28.6423 20.5405 28.9851 20.5932 29.4823 20.5932V21H24.3633V20.5932H24.578C25.0601 20.5932 25.3954 20.5216 25.5837 20.3785C25.7796 20.2278 25.9152 20.0093 25.9905 19.7231C26.0206 19.6101 26.0357 19.256 26.0357 18.6609V14.4233C26.0357 13.4816 25.9114 12.7998 25.6628 12.3779C25.4217 11.9485 25.0112 11.7338 24.4311 11.7338C23.5346 11.7338 22.6419 12.2235 21.7529 13.2028V18.6609C21.7529 19.3615 21.7944 19.7946 21.8772 19.9604C21.9827 20.1789 22.1258 20.3408 22.3066 20.4463C22.495 20.5442 22.8717 20.5932 23.4367 20.5932V21H18.3177V20.5932H18.5437C19.071 20.5932 19.4251 20.4614 19.6059 20.1977C19.7942 19.9265 19.8884 19.4142 19.8884 18.6609V14.8188C19.8884 13.5758 19.8583 12.8186 19.798 12.5474C19.7453 12.2762 19.6586 12.0917 19.5381 11.9937C19.4251 11.8958 19.2706 11.8468 19.0748 11.8468C18.8638 11.8468 18.6115 11.9033 18.3177 12.0163L18.1482 11.6095L21.267 10.3439H21.7529V12.5361ZM33.0758 17.2257C32.4429 16.9169 31.957 16.4874 31.618 15.9375C31.279 15.38 31.1095 14.766 31.1095 14.0956C31.1095 13.071 31.4937 12.1896 32.2621 11.4513C33.0381 10.713 34.0287 10.3439 35.2341 10.3439C36.221 10.3439 37.076 10.585 37.7992 11.0671H39.9915C40.3154 11.0671 40.5038 11.0784 40.5565 11.101C40.6092 11.1161 40.6469 11.1462 40.6695 11.1914C40.7147 11.2592 40.7373 11.3797 40.7373 11.553C40.7373 11.7489 40.7185 11.8845 40.6808 11.9598C40.6582 11.9975 40.6168 12.0276 40.5565 12.0502C40.5038 12.0728 40.3154 12.0841 39.9915 12.0841H38.6468C39.0686 12.6265 39.2796 13.3196 39.2796 14.1634C39.2796 15.1277 38.9104 15.9526 38.1722 16.6381C37.4339 17.3237 36.4432 17.6664 35.2002 17.6664C34.6879 17.6664 34.1643 17.5911 33.6295 17.4404C33.298 17.7267 33.072 17.9791 32.9515 18.1975C32.8385 18.4085 32.7819 18.5893 32.7819 18.74C32.7819 18.868 32.8422 18.9923 32.9628 19.1129C33.0908 19.2334 33.3357 19.32 33.6973 19.3728C33.9082 19.4029 34.4355 19.4293 35.2793 19.4519C36.8312 19.4895 37.8369 19.5423 38.2965 19.6101C38.9971 19.708 39.5546 19.9679 39.9689 20.3898C40.3908 20.8117 40.6017 21.3315 40.6017 21.9492C40.6017 22.8005 40.2024 23.5991 39.4039 24.3449C38.2287 25.4448 36.6956 25.9947 34.8047 25.9947C33.3507 25.9947 32.1228 25.667 31.1208 25.0116C30.5558 24.6349 30.2733 24.2432 30.2733 23.8364C30.2733 23.6556 30.3147 23.4747 30.3976 23.2939C30.5257 23.0152 30.7893 22.6272 31.1886 22.13C31.2414 22.0622 31.6256 21.6554 32.3412 20.9096C31.9495 20.6761 31.6708 20.4689 31.505 20.2881C31.3468 20.0997 31.2677 19.8888 31.2677 19.6553C31.2677 19.3916 31.3732 19.0827 31.5841 18.7287C31.8026 18.3746 32.2998 17.8736 33.0758 17.2257ZM35.042 10.8863C34.4845 10.8863 34.0174 11.1085 33.6408 11.553C33.2641 11.9975 33.0758 12.6793 33.0758 13.5984C33.0758 14.7886 33.3319 15.7115 33.8442 16.3669C34.2359 16.8641 34.7331 17.1127 35.3358 17.1127C35.9083 17.1127 36.3792 16.898 36.7483 16.4686C37.1175 16.0392 37.302 15.365 37.302 14.4459C37.302 13.248 37.0421 12.3101 36.5223 11.6321C36.1381 11.1349 35.6447 10.8863 35.042 10.8863ZM32.9628 21C32.6087 21.3842 32.3412 21.742 32.1604 22.0735C31.9796 22.405 31.8892 22.7101 31.8892 22.9888C31.8892 23.3504 32.1077 23.6669 32.5446 23.9381C33.298 24.4051 34.3866 24.6387 35.8104 24.6387C37.1664 24.6387 38.1646 24.3976 38.805 23.9155C39.4528 23.4408 39.7768 22.9323 39.7768 22.3899C39.7768 21.9982 39.5847 21.7194 39.2005 21.5537C38.8087 21.388 38.0328 21.29 36.8726 21.2599C35.1776 21.2147 33.8743 21.1281 32.9628 21ZM48.5684 10.3439V13.8696H48.1955C47.9092 12.7621 47.54 12.0088 47.088 11.6095C46.6436 11.2102 46.0748 11.0106 45.3817 11.0106C44.8544 11.0106 44.4287 11.15 44.1048 11.4287C43.7808 11.7074 43.6189 12.0163 43.6189 12.3553C43.6189 12.7772 43.7394 13.1388 43.9805 13.4402C44.214 13.749 44.6886 14.0767 45.4043 14.4233L47.0541 15.2256C48.5834 15.9714 49.3481 16.9545 49.3481 18.1749C49.3481 19.1166 48.9902 19.8775 48.2746 20.4576C47.5664 21.0301 46.7716 21.3164 45.8902 21.3164C45.2574 21.3164 44.5342 21.2034 43.7206 20.9774C43.472 20.9021 43.2686 20.8644 43.1104 20.8644C42.9371 20.8644 42.8015 20.9623 42.7035 21.1582H42.3306V17.463H42.7035C42.9145 18.5177 43.3175 19.3125 43.9127 19.8474C44.5078 20.3823 45.1745 20.6497 45.9128 20.6497C46.4326 20.6497 46.8545 20.499 47.1784 20.1977C47.5099 19.8888 47.6756 19.5197 47.6756 19.0903C47.6756 18.5705 47.4911 18.1335 47.1219 17.7794C46.7603 17.4254 46.0333 16.9771 44.941 16.4347C43.8486 15.8923 43.133 15.4026 42.7939 14.9657C42.4549 14.5363 42.2854 13.9939 42.2854 13.3384C42.2854 12.4872 42.5755 11.7753 43.1556 11.2027C43.7432 10.6302 44.5003 10.3439 45.4269 10.3439C45.8337 10.3439 46.3272 10.4305 46.9072 10.6038C47.2914 10.7168 47.5476 10.7733 47.6756 10.7733C47.7962 10.7733 47.8903 10.7469 47.9581 10.6942C48.026 10.6415 48.1051 10.5247 48.1955 10.3439H48.5684ZM54.4558 4.93108V18.6609C54.4558 19.3087 54.501 19.7381 54.5914 19.9491C54.6893 20.16 54.8362 20.322 55.0321 20.435C55.228 20.5405 55.5933 20.5932 56.1282 20.5932V21H51.0544V20.5932C51.529 20.5932 51.853 20.5442 52.0262 20.4463C52.1995 20.3484 52.3351 20.1864 52.433 19.9604C52.531 19.7344 52.5799 19.3012 52.5799 18.6609V9.25907C52.5799 8.09138 52.5536 7.3757 52.5008 7.11202C52.4481 6.84082 52.3615 6.65625 52.2409 6.55831C52.1279 6.46038 51.981 6.41141 51.8002 6.41141C51.6044 6.41141 51.3558 6.47168 51.0544 6.59221L50.8623 6.19671L53.9473 4.93108H54.4558ZM59.0776 14.5476C59.07 16.0844 59.4429 17.2898 60.1963 18.1636C60.9496 19.0375 61.8348 19.4745 62.8518 19.4745C63.5299 19.4745 64.1175 19.2899 64.6147 18.9208C65.1194 18.5441 65.5413 17.9037 65.8803 16.9997L66.2306 17.2257C66.0724 18.2578 65.6129 19.1995 64.852 20.0508C64.0911 20.8945 63.1381 21.3164 61.993 21.3164C60.75 21.3164 59.684 20.8343 58.7951 19.87C57.9136 18.8982 57.4729 17.5949 57.4729 15.9601C57.4729 14.1897 57.9249 12.8111 58.829 11.8242C59.7405 10.8298 60.8818 10.3326 62.2529 10.3326C63.4131 10.3326 64.3661 10.7168 65.1119 11.4852C65.8577 12.2461 66.2306 13.2669 66.2306 14.5476H59.0776ZM59.0776 13.8922H63.8689C63.8312 13.2292 63.7521 12.7621 63.6316 12.4909C63.4432 12.0691 63.1607 11.7376 62.784 11.4965C62.4149 11.2554 62.0269 11.1349 61.6201 11.1349C60.9948 11.1349 60.4336 11.3797 59.9364 11.8694C59.4467 12.3516 59.1604 13.0258 59.0776 13.8922ZM67.0329 10.649H71.8581V11.0671H71.6208C71.2818 11.0671 71.0257 11.1424 70.8524 11.2931C70.6867 11.4362 70.6038 11.617 70.6038 11.8355C70.6038 12.1293 70.7281 12.5361 70.9767 13.0559L73.4967 18.2766L75.8132 12.5587C75.9413 12.2499 76.0053 11.9448 76.0053 11.6434C76.0053 11.5078 75.9789 11.4061 75.9262 11.3383C75.8659 11.2554 75.7718 11.1914 75.6437 11.1462C75.5156 11.0935 75.2896 11.0671 74.9657 11.0671V10.649H78.3332V11.0671C78.0544 11.0972 77.8397 11.1575 77.689 11.2479C77.5384 11.3383 77.3726 11.5078 77.1918 11.7564C77.124 11.8619 76.996 12.1519 76.8076 12.6265L72.5926 22.9549C72.1858 23.9569 71.651 24.714 70.988 25.2263C70.3326 25.7386 69.6998 25.9947 69.0896 25.9947C68.6451 25.9947 68.2797 25.8666 67.9934 25.6105C67.7072 25.3544 67.564 25.0605 67.564 24.7291C67.564 24.4127 67.6657 24.1565 67.8691 23.9607C68.0801 23.7723 68.3664 23.6782 68.728 23.6782C68.9766 23.6782 69.3156 23.761 69.745 23.9268C70.0463 24.0398 70.2347 24.0963 70.31 24.0963C70.536 24.0963 70.7808 23.9795 71.0445 23.746C71.3157 23.5124 71.5869 23.0604 71.8581 22.3899L72.5926 20.5932L68.8749 12.7847C68.7619 12.5512 68.5811 12.2612 68.3325 11.9146C68.1441 11.6509 67.9897 11.4739 67.8691 11.3835C67.6959 11.263 67.4171 11.1575 67.0329 11.0671V10.649ZM88.2661 10.649V16.9206C88.2661 18.1184 88.2924 18.853 88.3452 19.1242C88.4054 19.3878 88.4958 19.5724 88.6164 19.6779C88.7444 19.7833 88.8913 19.8361 89.0571 19.8361C89.2906 19.8361 89.5543 19.772 89.8481 19.644L90.0063 20.0395L86.91 21.3164H86.4015V19.1242C85.5126 20.0884 84.8346 20.6949 84.3675 20.9435C83.9004 21.1921 83.407 21.3164 82.8871 21.3164C82.3071 21.3164 81.8023 21.1507 81.3729 20.8192C80.951 20.4802 80.6572 20.047 80.4915 19.5197C80.3258 18.9923 80.2429 18.2465 80.2429 17.2822V12.6604C80.2429 12.1708 80.1902 11.8318 80.0847 11.6434C79.9792 11.4551 79.821 11.3119 79.6101 11.214C79.4067 11.1085 79.0338 11.0596 78.4914 11.0671V10.649H82.1187V17.576C82.1187 18.5403 82.2845 19.1731 82.6159 19.4745C82.9549 19.7758 83.3618 19.9265 83.8364 19.9265C84.1603 19.9265 84.5257 19.8248 84.9325 19.6214C85.3468 19.418 85.8365 19.03 86.4015 18.4574V12.5926C86.4015 12.005 86.2923 11.6095 86.0738 11.4061C85.8629 11.1952 85.4184 11.0822 84.7404 11.0671V10.649H88.2661ZM93.8258 4.93108V15.2369L96.4587 12.8299C97.0162 12.3177 97.3401 11.9937 97.4305 11.8581C97.4908 11.7677 97.5209 11.6773 97.5209 11.5869C97.5209 11.4362 97.4569 11.3082 97.3288 11.2027C97.2083 11.0897 97.0049 11.0257 96.7186 11.0106V10.649H101.216V11.0106C100.598 11.0257 100.082 11.1198 99.668 11.2931C99.2612 11.4664 98.8129 11.7753 98.3232 12.2197L95.6677 14.6719L98.3232 18.028C99.0615 18.9547 99.5587 19.5423 99.8149 19.7909C100.176 20.1449 100.493 20.3747 100.764 20.4802C100.952 20.5555 101.28 20.5932 101.747 20.5932V21H96.7186V20.5932C97.0049 20.5857 97.197 20.5442 97.2949 20.4689C97.4004 20.386 97.4531 20.273 97.4531 20.1299C97.4531 19.9566 97.3025 19.6779 97.0011 19.2937L93.8258 15.2369V18.6722C93.8258 19.3426 93.871 19.7833 93.9614 19.9943C94.0593 20.2052 94.1949 20.3559 94.3682 20.4463C94.5414 20.5367 94.9181 20.5857 95.4982 20.5932V21H90.2323V20.5932C90.7596 20.5932 91.1551 20.5292 91.4188 20.4011C91.577 20.3182 91.6976 20.1902 91.7804 20.0169C91.8934 19.7683 91.9499 19.3389 91.9499 18.7287V9.30427C91.9499 8.10644 91.9236 7.3757 91.8708 7.11202C91.8181 6.84082 91.7315 6.65625 91.6109 6.55831C91.4904 6.45285 91.3322 6.40011 91.1363 6.40011C90.9781 6.40011 90.7408 6.46415 90.4244 6.59221L90.2323 6.19671L93.3059 4.93108H93.8258ZM104.075 14.5476C104.068 16.0844 104.44 17.2898 105.194 18.1636C105.947 19.0375 106.832 19.4745 107.849 19.4745C108.527 19.4745 109.115 19.2899 109.612 18.9208C110.117 18.5441 110.539 17.9037 110.878 16.9997L111.228 17.2257C111.07 18.2578 110.61 19.1995 109.849 20.0508C109.089 20.8945 108.136 21.3164 106.991 21.3164C105.747 21.3164 104.682 20.8343 103.793 19.87C102.911 18.8982 102.47 17.5949 102.47 15.9601C102.47 14.1897 102.922 12.8111 103.826 11.8242C104.738 10.8298 105.879 10.3326 107.25 10.3326C108.411 10.3326 109.364 10.7168 110.109 11.4852C110.855 12.2461 111.228 13.2669 111.228 14.5476H104.075ZM104.075 13.8922H108.866C108.829 13.2292 108.75 12.7621 108.629 12.4909C108.441 12.0691 108.158 11.7376 107.782 11.4965C107.412 11.2554 107.024 11.1349 106.618 11.1349C105.992 11.1349 105.431 11.3797 104.934 11.8694C104.444 12.3516 104.158 13.0258 104.075 13.8922ZM115.24 4.91978C115.564 4.91978 115.839 5.03278 116.065 5.25879C116.291 5.48479 116.404 5.75976 116.404 6.0837C116.404 6.40011 116.291 6.67132 116.065 6.89732C115.839 7.12333 115.564 7.23633 115.24 7.23633C114.923 7.23633 114.652 7.12333 114.426 6.89732C114.2 6.67132 114.087 6.40011 114.087 6.0837C114.087 5.75976 114.2 5.48479 114.426 5.25879C114.652 5.03278 114.923 4.91978 115.24 4.91978ZM116.212 10.3439V20.7627C116.212 22.5331 115.835 23.8477 115.081 24.7065C114.328 25.5653 113.349 25.9947 112.143 25.9947C111.458 25.9947 110.949 25.8704 110.618 25.6218C110.286 25.3732 110.121 25.117 110.121 24.8534C110.121 24.5897 110.215 24.3637 110.403 24.1754C110.584 23.987 110.799 23.8929 111.047 23.8929C111.243 23.8929 111.443 23.9418 111.646 24.0398C111.774 24.0925 112.019 24.2808 112.381 24.6048C112.75 24.9362 113.059 25.102 113.307 25.102C113.488 25.102 113.665 25.0304 113.838 24.8873C114.012 24.7517 114.14 24.5181 114.223 24.1867C114.306 23.8627 114.347 23.1546 114.347 22.0622V14.6945C114.347 13.5569 114.313 12.8262 114.245 12.5022C114.193 12.2536 114.11 12.0841 113.997 11.9937C113.884 11.8958 113.729 11.8468 113.533 11.8468C113.322 11.8468 113.066 11.9033 112.765 12.0163L112.607 11.6095L115.726 10.3439H116.212ZM120.799 14.5476C120.792 16.0844 121.165 17.2898 121.918 18.1636C122.671 19.0375 123.557 19.4745 124.574 19.4745C125.252 19.4745 125.839 19.2899 126.337 18.9208C126.841 18.5441 127.263 17.9037 127.602 16.9997L127.952 17.2257C127.794 18.2578 127.335 19.1995 126.574 20.0508C125.813 20.8945 124.86 21.3164 123.715 21.3164C122.472 21.3164 121.406 20.8343 120.517 19.87C119.635 18.8982 119.195 17.5949 119.195 15.9601C119.195 14.1897 119.647 12.8111 120.551 11.8242C121.462 10.8298 122.604 10.3326 123.975 10.3326C125.135 10.3326 126.088 10.7168 126.834 11.4852C127.58 12.2461 127.952 13.2669 127.952 14.5476H120.799ZM120.799 13.8922H125.591C125.553 13.2292 125.474 12.7621 125.353 12.4909C125.165 12.0691 124.883 11.7376 124.506 11.4965C124.137 11.2554 123.749 11.1349 123.342 11.1349C122.717 11.1349 122.155 11.3797 121.658 11.8694C121.169 12.3516 120.882 13.0258 120.799 13.8922Z" fill="#121212"/>
<path d="M131.192 4.72974H135.234V5.29178H133.54V9.92862H132.887V5.29178H131.192V4.72974ZM137.052 4.72974L138.804 8.25076L140.54 4.72974H141.457V9.92862H140.805V5.65546L139.019 9.27566H138.581L136.771 5.5976V9.92862H136.118V4.72974H137.052Z" fill="#121212"/>
</svg>
