<svg width="275" height="226" viewBox="0 0 275 226" fill="none" xmlns="http://www.w3.org/2000/svg">
<path d="M69.2 218H70.325V214.325L74.225 207.5H72.95L69.8 213.125H69.725L66.575 207.5H65.3L69.2 214.325V218ZM79.9203 215.975C79.7553 216.2 79.5453 216.395 79.3203 216.575C78.9153 216.875 78.3603 217.175 77.5953 217.175C76.2303 217.175 75.1203 216.05 75.0453 214.775L80.8953 214.79L80.9253 214.64C80.9403 214.535 80.9703 214.415 80.9703 214.25C80.9703 212.15 79.4853 210.65 77.5203 210.65C75.6453 210.65 73.9953 212.3 73.9953 214.4C73.9953 216.5 75.6303 218.15 77.5953 218.15C78.5703 218.15 79.3053 217.775 79.8303 217.4C80.1303 217.175 80.3853 216.935 80.5953 216.65L79.9203 215.975ZM75.0453 213.875C75.2103 212.675 76.2303 211.625 77.5203 211.625C78.7953 211.625 79.7553 212.6 79.9203 213.875H75.0453ZM82.1656 216.875C82.3306 217.13 82.5406 217.34 82.7956 217.52C83.2306 217.835 83.8906 218.15 84.7906 218.15C86.4256 218.15 87.4156 217.175 87.4156 215.975C87.4156 213.425 83.5156 214.25 83.5156 212.675C83.5156 212.15 84.0406 211.625 84.8656 211.625C85.3906 211.625 85.7656 211.82 86.0506 212C86.2006 212.105 86.3356 212.24 86.4406 212.375L87.1906 211.625C87.0256 211.445 86.8156 211.28 86.5906 211.145C86.1856 210.905 85.6306 210.65 84.8656 210.65C83.4256 210.65 82.4656 211.64 82.4656 212.675C82.4656 215.15 86.3656 214.325 86.3656 215.975C86.3656 216.65 85.8556 217.175 84.7906 217.175C84.1906 217.175 83.7106 216.935 83.3956 216.65C83.2156 216.5 83.0506 216.32 82.9156 216.125L82.1656 216.875Z" fill="black"/>
<path d="M146.575 218H147.7V209.525L154.15 218H155.125V207.5H154V215.975L147.55 207.5H146.575V218ZM161.054 218.15C163.079 218.15 164.729 216.5 164.729 214.4C164.729 212.3 163.079 210.65 161.054 210.65C159.029 210.65 157.379 212.3 157.379 214.4C157.379 216.5 159.029 218.15 161.054 218.15ZM161.054 217.175C159.629 217.175 158.429 215.96 158.429 214.4C158.429 212.825 159.629 211.625 161.054 211.625C162.479 211.625 163.679 212.825 163.679 214.4C163.679 215.975 162.479 217.175 161.054 217.175Z" fill="black"/>
<path d="M222 85.5176L240.908 79" stroke="black"/>
<path d="M243.207 78.7227L243.641 74.4688H248.012V75.4707H244.561L244.303 77.7969C244.721 77.5508 245.195 77.4277 245.727 77.4277C246.504 77.4277 247.121 77.6855 247.578 78.2012C248.035 78.7129 248.264 79.4062 248.264 80.2812C248.264 81.1602 248.025 81.8535 247.549 82.3613C247.076 82.8652 246.414 83.1172 245.562 83.1172C244.809 83.1172 244.193 82.9082 243.717 82.4902C243.24 82.0723 242.969 81.4941 242.902 80.7559H243.928C243.994 81.2441 244.168 81.6133 244.449 81.8633C244.73 82.1094 245.102 82.2324 245.562 82.2324C246.066 82.2324 246.461 82.0605 246.746 81.7168C247.035 81.373 247.18 80.8984 247.18 80.293C247.18 79.7227 247.023 79.2656 246.711 78.9219C246.402 78.5742 245.99 78.4004 245.475 78.4004C245.002 78.4004 244.631 78.5039 244.361 78.7109L244.074 78.9453L243.207 78.7227ZM254.023 80.1348H255.207V81.0195H254.023V83H252.934V81.0195H249.049V80.3809L252.869 74.4688H254.023V80.1348ZM250.279 80.1348H252.934V75.9512L252.805 76.1855L250.279 80.1348ZM256.32 82.4316C256.32 82.2441 256.375 82.0879 256.484 81.9629C256.598 81.8379 256.766 81.7754 256.988 81.7754C257.211 81.7754 257.379 81.8379 257.492 81.9629C257.609 82.0879 257.668 82.2441 257.668 82.4316C257.668 82.6113 257.609 82.7617 257.492 82.8828C257.379 83.0039 257.211 83.0645 256.988 83.0645C256.766 83.0645 256.598 83.0039 256.484 82.8828C256.375 82.7617 256.32 82.6113 256.32 82.4316ZM259.848 78.7227L260.281 74.4688H264.652V75.4707H261.201L260.943 77.7969C261.361 77.5508 261.836 77.4277 262.367 77.4277C263.145 77.4277 263.762 77.6855 264.219 78.2012C264.676 78.7129 264.904 79.4062 264.904 80.2812C264.904 81.1602 264.666 81.8535 264.189 82.3613C263.717 82.8652 263.055 83.1172 262.203 83.1172C261.449 83.1172 260.834 82.9082 260.357 82.4902C259.881 82.0723 259.609 81.4941 259.543 80.7559H260.568C260.635 81.2441 260.809 81.6133 261.09 81.8633C261.371 82.1094 261.742 82.2324 262.203 82.2324C262.707 82.2324 263.102 82.0605 263.387 81.7168C263.676 81.373 263.82 80.8984 263.82 80.293C263.82 79.7227 263.664 79.2656 263.352 78.9219C263.043 78.5742 262.631 78.4004 262.115 78.4004C261.643 78.4004 261.271 78.5039 261.002 78.7109L260.715 78.9453L259.848 78.7227ZM265.994 76.1094C265.994 75.5977 266.156 75.1758 266.48 74.8438C266.809 74.5117 267.229 74.3457 267.74 74.3457C268.26 74.3457 268.68 74.5137 269 74.8496C269.324 75.1816 269.486 75.6133 269.486 76.1445V76.5605C269.486 77.0762 269.322 77.498 268.994 77.8262C268.67 78.1504 268.256 78.3125 267.752 78.3125C267.244 78.3125 266.824 78.1504 266.492 77.8262C266.16 77.498 265.994 77.0625 265.994 76.5195V76.1094ZM266.803 76.5605C266.803 76.8652 266.889 77.1172 267.061 77.3164C267.232 77.5117 267.463 77.6094 267.752 77.6094C268.029 77.6094 268.252 77.5137 268.42 77.3223C268.592 77.1309 268.678 76.8691 268.678 76.5371V76.1094C268.678 75.8047 268.594 75.5527 268.426 75.3535C268.258 75.1543 268.029 75.0547 267.74 75.0547C267.451 75.0547 267.223 75.1543 267.055 75.3535C266.887 75.5527 266.803 75.8125 266.803 76.1328V76.5605ZM270.148 80.9082C270.148 80.3965 270.311 79.9766 270.635 79.6484C270.963 79.3164 271.383 79.1504 271.895 79.1504C272.406 79.1504 272.826 79.3145 273.154 79.6426C273.482 79.9707 273.646 80.4062 273.646 80.9492V81.3652C273.646 81.877 273.482 82.2988 273.154 82.6309C272.83 82.959 272.414 83.123 271.906 83.123C271.398 83.123 270.979 82.9609 270.646 82.6367C270.314 82.3086 270.148 81.873 270.148 81.3301V80.9082ZM270.957 81.3652C270.957 81.6738 271.043 81.9277 271.215 82.127C271.387 82.3223 271.617 82.4199 271.906 82.4199C272.188 82.4199 272.412 82.3242 272.58 82.1328C272.748 81.9375 272.832 81.6738 272.832 81.3418V80.9082C272.832 80.5996 272.746 80.3477 272.574 80.1523C272.406 79.957 272.18 79.8594 271.895 79.8594C271.617 79.8594 271.391 79.957 271.215 80.1523C271.043 80.3438 270.957 80.6035 270.957 80.9316V81.3652ZM267.998 82.3555L267.383 81.9688L271.549 75.3008L272.164 75.6875L267.998 82.3555Z" fill="black"/>
<path d="M53.3732 53.528L33.535 50.9893" stroke="black"/>
<path d="M6.11719 53.1348H7.30078V54.0195H6.11719V56H5.02734V54.0195H1.14258V53.3809L4.96289 47.4688H6.11719V53.1348ZM2.37305 53.1348H5.02734V48.9512L4.89844 49.1855L2.37305 53.1348ZM8.77734 51.7227L9.21094 47.4688H13.582V48.4707H10.1309L9.87305 50.7969C10.291 50.5508 10.7656 50.4277 11.2969 50.4277C12.0742 50.4277 12.6914 50.6855 13.1484 51.2012C13.6055 51.7129 13.834 52.4062 13.834 53.2812C13.834 54.1602 13.5957 54.8535 13.1191 55.3613C12.6465 55.8652 11.9844 56.1172 11.1328 56.1172C10.3789 56.1172 9.76367 55.9082 9.28711 55.4902C8.81055 55.0723 8.53906 54.4941 8.47266 53.7559H9.49805C9.56445 54.2441 9.73828 54.6133 10.0195 54.8633C10.3008 55.1094 10.6719 55.2324 11.1328 55.2324C11.6367 55.2324 12.0312 55.0605 12.3164 54.7168C12.6055 54.373 12.75 53.8984 12.75 53.293C12.75 52.7227 12.5938 52.2656 12.2812 51.9219C11.9727 51.5742 11.5605 51.4004 11.0449 51.4004C10.5723 51.4004 10.2012 51.5039 9.93164 51.7109L9.64453 51.9453L8.77734 51.7227ZM15.1523 55.4316C15.1523 55.2441 15.207 55.0879 15.3164 54.9629C15.4297 54.8379 15.5977 54.7754 15.8203 54.7754C16.043 54.7754 16.2109 54.8379 16.3242 54.9629C16.4414 55.0879 16.5 55.2441 16.5 55.4316C16.5 55.6113 16.4414 55.7617 16.3242 55.8828C16.2109 56.0039 16.043 56.0645 15.8203 56.0645C15.5977 56.0645 15.4297 56.0039 15.3164 55.8828C15.207 55.7617 15.1523 55.6113 15.1523 55.4316ZM18.6797 51.7227L19.1133 47.4688H23.4844V48.4707H20.0332L19.7754 50.7969C20.1934 50.5508 20.668 50.4277 21.1992 50.4277C21.9766 50.4277 22.5938 50.6855 23.0508 51.2012C23.5078 51.7129 23.7363 52.4062 23.7363 53.2812C23.7363 54.1602 23.498 54.8535 23.0215 55.3613C22.5488 55.8652 21.8867 56.1172 21.0352 56.1172C20.2812 56.1172 19.666 55.9082 19.1895 55.4902C18.7129 55.0723 18.4414 54.4941 18.375 53.7559H19.4004C19.4668 54.2441 19.6406 54.6133 19.9219 54.8633C20.2031 55.1094 20.5742 55.2324 21.0352 55.2324C21.5391 55.2324 21.9336 55.0605 22.2188 54.7168C22.5078 54.373 22.6523 53.8984 22.6523 53.293C22.6523 52.7227 22.4961 52.2656 22.1836 51.9219C21.875 51.5742 21.4629 51.4004 20.9473 51.4004C20.4746 51.4004 20.1035 51.5039 19.834 51.7109L19.5469 51.9453L18.6797 51.7227ZM24.8262 49.1094C24.8262 48.5977 24.9883 48.1758 25.3125 47.8438C25.6406 47.5117 26.0605 47.3457 26.5723 47.3457C27.0918 47.3457 27.5117 47.5137 27.832 47.8496C28.1562 48.1816 28.3184 48.6133 28.3184 49.1445V49.5605C28.3184 50.0762 28.1543 50.498 27.8262 50.8262C27.502 51.1504 27.0879 51.3125 26.584 51.3125C26.0762 51.3125 25.6562 51.1504 25.3242 50.8262C24.9922 50.498 24.8262 50.0625 24.8262 49.5195V49.1094ZM25.6348 49.5605C25.6348 49.8652 25.7207 50.1172 25.8926 50.3164C26.0645 50.5117 26.2949 50.6094 26.584 50.6094C26.8613 50.6094 27.084 50.5137 27.252 50.3223C27.4238 50.1309 27.5098 49.8691 27.5098 49.5371V49.1094C27.5098 48.8047 27.4258 48.5527 27.2578 48.3535C27.0898 48.1543 26.8613 48.0547 26.5723 48.0547C26.2832 48.0547 26.0547 48.1543 25.8867 48.3535C25.7188 48.5527 25.6348 48.8125 25.6348 49.1328V49.5605ZM28.9805 53.9082C28.9805 53.3965 29.1426 52.9766 29.4668 52.6484C29.7949 52.3164 30.2148 52.1504 30.7266 52.1504C31.2383 52.1504 31.6582 52.3145 31.9863 52.6426C32.3145 52.9707 32.4785 53.4062 32.4785 53.9492V54.3652C32.4785 54.877 32.3145 55.2988 31.9863 55.6309C31.6621 55.959 31.2461 56.123 30.7383 56.123C30.2305 56.123 29.8105 55.9609 29.4785 55.6367C29.1465 55.3086 28.9805 54.873 28.9805 54.3301V53.9082ZM29.7891 54.3652C29.7891 54.6738 29.875 54.9277 30.0469 55.127C30.2188 55.3223 30.4492 55.4199 30.7383 55.4199C31.0195 55.4199 31.2441 55.3242 31.4121 55.1328C31.5801 54.9375 31.6641 54.6738 31.6641 54.3418V53.9082C31.6641 53.5996 31.5781 53.3477 31.4062 53.1523C31.2383 52.957 31.0117 52.8594 30.7266 52.8594C30.4492 52.8594 30.2227 52.957 30.0469 53.1523C29.875 53.3438 29.7891 53.6035 29.7891 53.9316V54.3652ZM26.8301 55.3555L26.2148 54.9688L30.3809 48.3008L30.9961 48.6875L26.8301 55.3555Z" fill="black"/>
<path d="M128.784 0.12574C108.893 1.18722 89.9409 8.92831 74.9948 22.0968C60.0486 35.2653 49.9821 53.091 46.4236 72.6903C42.8651 92.2897 46.0228 112.516 55.3859 130.098C64.7489 147.681 79.7697 161.59 98.0185 169.576L117.083 126.014C108.639 122.319 101.689 115.883 97.3566 107.748C93.0243 99.6124 91.5632 90.2535 93.2097 81.1849C94.8562 72.1162 99.514 63.8683 106.43 57.7752C113.345 51.6822 122.114 48.1004 131.318 47.6092L128.784 0.12574Z" fill="#70EC75"/>
<path d="M133.5 0C146.409 -1.53941e-07 159.162 2.82414 170.864 8.27435C182.567 13.7246 192.935 21.6689 201.242 31.5502C209.549 41.4315 215.594 53.0105 218.952 65.4751C222.311 77.9398 222.902 90.9882 220.684 103.705C218.466 116.423 213.493 128.501 206.113 139.093C198.733 149.684 189.126 158.533 177.964 165.019C166.802 171.505 154.357 175.471 141.501 176.638C128.644 177.805 115.688 176.145 103.541 171.775L119.639 127.028C125.259 129.05 131.253 129.818 137.202 129.278C143.15 128.738 148.908 126.903 154.072 123.903C159.236 120.902 163.681 116.808 167.095 111.907C170.51 107.007 172.81 101.419 173.837 95.535C174.863 89.6512 174.589 83.6142 173.035 77.8473C171.482 72.0804 168.685 66.7232 164.842 62.1515C160.998 57.5798 156.201 53.9043 150.787 51.3827C145.373 48.8611 139.473 47.5545 133.5 47.5545V0Z" fill="black"/>
<circle cx="50.5" cy="212.5" r="5.5" fill="black"/>
<circle cx="130.5" cy="212.5" r="5.5" fill="#70EC75"/>
</svg>
