<svg width="278" height="225" viewBox="0 0 278 225" fill="none" xmlns="http://www.w3.org/2000/svg">
<path d="M24.2 217H25.325V213.325L29.225 206.5H27.95L24.8 212.125H24.725L21.575 206.5H20.3L24.2 213.325V217ZM34.9203 214.975C34.7553 215.2 34.5453 215.395 34.3203 215.575C33.9153 215.875 33.3603 216.175 32.5953 216.175C31.2303 216.175 30.1203 215.05 30.0453 213.775L35.8953 213.79L35.9253 213.64C35.9403 213.535 35.9703 213.415 35.9703 213.25C35.9703 211.15 34.4853 209.65 32.5203 209.65C30.6453 209.65 28.9953 211.3 28.9953 213.4C28.9953 215.5 30.6303 217.15 32.5953 217.15C33.5703 217.15 34.3053 216.775 34.8303 216.4C35.1303 216.175 35.3853 215.935 35.5953 215.65L34.9203 214.975ZM30.0453 212.875C30.2103 211.675 31.2303 210.625 32.5203 210.625C33.7953 210.625 34.7553 211.6 34.9203 212.875H30.0453ZM37.1656 215.875C37.3306 216.13 37.5406 216.34 37.7956 216.52C38.2306 216.835 38.8906 217.15 39.7906 217.15C41.4256 217.15 42.4156 216.175 42.4156 214.975C42.4156 212.425 38.5156 213.25 38.5156 211.675C38.5156 211.15 39.0406 210.625 39.8656 210.625C40.3906 210.625 40.7656 210.82 41.0506 211C41.2006 211.105 41.3356 211.24 41.4406 211.375L42.1906 210.625C42.0256 210.445 41.8156 210.28 41.5906 210.145C41.1856 209.905 40.6306 209.65 39.8656 209.65C38.4256 209.65 37.4656 210.64 37.4656 211.675C37.4656 214.15 41.3656 213.325 41.3656 214.975C41.3656 215.65 40.8556 216.175 39.7906 216.175C39.1906 216.175 38.7106 215.935 38.3956 215.65C38.2156 215.5 38.0506 215.32 37.9156 215.125L37.1656 215.875Z" fill="black"/>
<path d="M101.575 217H102.7V208.525L109.15 217H110.125V206.5H109V214.975L102.55 206.5H101.575V217ZM116.054 217.15C118.079 217.15 119.729 215.5 119.729 213.4C119.729 211.3 118.079 209.65 116.054 209.65C114.029 209.65 112.379 211.3 112.379 213.4C112.379 215.5 114.029 217.15 116.054 217.15ZM116.054 216.175C114.629 216.175 113.429 214.96 113.429 213.4C113.429 211.825 114.629 210.625 116.054 210.625C117.479 210.625 118.679 211.825 118.679 213.4C118.679 214.975 117.479 216.175 116.054 216.175Z" fill="black"/>
<path d="M225 85.5173L243.908 78.9998" stroke="black"/>
<path d="M247.285 78.207H248.1C248.611 78.1992 249.014 78.0645 249.307 77.8027C249.6 77.541 249.746 77.1875 249.746 76.7422C249.746 75.7422 249.248 75.2422 248.252 75.2422C247.783 75.2422 247.408 75.377 247.127 75.6465C246.85 75.9121 246.711 76.2656 246.711 76.707H245.627C245.627 76.0312 245.873 75.4707 246.365 75.0254C246.861 74.5762 247.49 74.3516 248.252 74.3516C249.057 74.3516 249.688 74.5645 250.145 74.9902C250.602 75.416 250.83 76.0078 250.83 76.7656C250.83 77.1367 250.709 77.4961 250.467 77.8438C250.229 78.1914 249.902 78.4512 249.488 78.623C249.957 78.7715 250.318 79.0176 250.572 79.3613C250.83 79.7051 250.959 80.125 250.959 80.6211C250.959 81.3867 250.709 81.9941 250.209 82.4434C249.709 82.8926 249.059 83.1172 248.258 83.1172C247.457 83.1172 246.805 82.9004 246.301 82.4668C245.801 82.0332 245.551 81.4609 245.551 80.75H246.641C246.641 81.1992 246.787 81.5586 247.08 81.8281C247.373 82.0977 247.766 82.2324 248.258 82.2324C248.781 82.2324 249.182 82.0957 249.459 81.8223C249.736 81.5488 249.875 81.1562 249.875 80.6445C249.875 80.1484 249.723 79.7676 249.418 79.502C249.113 79.2363 248.674 79.0996 248.1 79.0918H247.285V78.207ZM256.701 74.4629V75.3828H256.502C255.658 75.3984 254.986 75.6484 254.486 76.1328C253.986 76.6172 253.697 77.2988 253.619 78.1777C254.068 77.6621 254.682 77.4043 255.459 77.4043C256.201 77.4043 256.793 77.666 257.234 78.1895C257.68 78.7129 257.902 79.3887 257.902 80.2168C257.902 81.0957 257.662 81.7988 257.182 82.3262C256.705 82.8535 256.064 83.1172 255.26 83.1172C254.443 83.1172 253.781 82.8047 253.273 82.1797C252.766 81.5508 252.512 80.7422 252.512 79.7539V79.3379C252.512 77.7676 252.846 76.5684 253.514 75.7402C254.186 74.9082 255.184 74.4824 256.508 74.4629H256.701ZM255.277 78.3066C254.906 78.3066 254.564 78.418 254.252 78.6406C253.939 78.8633 253.723 79.1426 253.602 79.4785V79.877C253.602 80.5801 253.76 81.1465 254.076 81.5762C254.393 82.0059 254.787 82.2207 255.26 82.2207C255.748 82.2207 256.131 82.041 256.408 81.6816C256.689 81.3223 256.83 80.8516 256.83 80.2695C256.83 79.6836 256.688 79.2109 256.402 78.8516C256.121 78.4883 255.746 78.3066 255.277 78.3066ZM259.32 82.4316C259.32 82.2441 259.375 82.0879 259.484 81.9629C259.598 81.8379 259.766 81.7754 259.988 81.7754C260.211 81.7754 260.379 81.8379 260.492 81.9629C260.609 82.0879 260.668 82.2441 260.668 82.4316C260.668 82.6113 260.609 82.7617 260.492 82.8828C260.379 83.0039 260.211 83.0645 259.988 83.0645C259.766 83.0645 259.598 83.0039 259.484 82.8828C259.375 82.7617 259.32 82.6113 259.32 82.4316ZM266.926 80.1348H268.109V81.0195H266.926V83H265.836V81.0195H261.951V80.3809L265.771 74.4688H266.926V80.1348ZM263.182 80.1348H265.836V75.9512L265.707 76.1855L263.182 80.1348ZM268.994 76.1094C268.994 75.5977 269.156 75.1758 269.48 74.8438C269.809 74.5117 270.229 74.3457 270.74 74.3457C271.26 74.3457 271.68 74.5137 272 74.8496C272.324 75.1816 272.486 75.6133 272.486 76.1445V76.5605C272.486 77.0762 272.322 77.498 271.994 77.8262C271.67 78.1504 271.256 78.3125 270.752 78.3125C270.244 78.3125 269.824 78.1504 269.492 77.8262C269.16 77.498 268.994 77.0625 268.994 76.5195V76.1094ZM269.803 76.5605C269.803 76.8652 269.889 77.1172 270.061 77.3164C270.232 77.5117 270.463 77.6094 270.752 77.6094C271.029 77.6094 271.252 77.5137 271.42 77.3223C271.592 77.1309 271.678 76.8691 271.678 76.5371V76.1094C271.678 75.8047 271.594 75.5527 271.426 75.3535C271.258 75.1543 271.029 75.0547 270.74 75.0547C270.451 75.0547 270.223 75.1543 270.055 75.3535C269.887 75.5527 269.803 75.8125 269.803 76.1328V76.5605ZM273.148 80.9082C273.148 80.3965 273.311 79.9766 273.635 79.6484C273.963 79.3164 274.383 79.1504 274.895 79.1504C275.406 79.1504 275.826 79.3145 276.154 79.6426C276.482 79.9707 276.646 80.4062 276.646 80.9492V81.3652C276.646 81.877 276.482 82.2988 276.154 82.6309C275.83 82.959 275.414 83.123 274.906 83.123C274.398 83.123 273.979 82.9609 273.646 82.6367C273.314 82.3086 273.148 81.873 273.148 81.3301V80.9082ZM273.957 81.3652C273.957 81.6738 274.043 81.9277 274.215 82.127C274.387 82.3223 274.617 82.4199 274.906 82.4199C275.188 82.4199 275.412 82.3242 275.58 82.1328C275.748 81.9375 275.832 81.6738 275.832 81.3418V80.9082C275.832 80.5996 275.746 80.3477 275.574 80.1523C275.406 79.957 275.18 79.8594 274.895 79.8594C274.617 79.8594 274.391 79.957 274.215 80.1523C274.043 80.3438 273.957 80.6035 273.957 80.9316V81.3652ZM270.998 82.3555L270.383 81.9688L274.549 75.3008L275.164 75.6875L270.998 82.3555Z" fill="black"/>
<path d="M51.9082 98.4824L33 105" stroke="black"/>
<path d="M5.79492 102.463V103.383H5.5957C4.75195 103.398 4.08008 103.648 3.58008 104.133C3.08008 104.617 2.79102 105.299 2.71289 106.178C3.16211 105.662 3.77539 105.404 4.55273 105.404C5.29492 105.404 5.88672 105.666 6.32812 106.189C6.77344 106.713 6.99609 107.389 6.99609 108.217C6.99609 109.096 6.75586 109.799 6.27539 110.326C5.79883 110.854 5.1582 111.117 4.35352 111.117C3.53711 111.117 2.875 110.805 2.36719 110.18C1.85938 109.551 1.60547 108.742 1.60547 107.754V107.338C1.60547 105.768 1.93945 104.568 2.60742 103.74C3.2793 102.908 4.27734 102.482 5.60156 102.463H5.79492ZM4.37109 106.307C4 106.307 3.6582 106.418 3.3457 106.641C3.0332 106.863 2.81641 107.143 2.69531 107.479V107.877C2.69531 108.58 2.85352 109.146 3.16992 109.576C3.48633 110.006 3.88086 110.221 4.35352 110.221C4.8418 110.221 5.22461 110.041 5.50195 109.682C5.7832 109.322 5.92383 108.852 5.92383 108.27C5.92383 107.684 5.78125 107.211 5.49609 106.852C5.21484 106.488 4.83984 106.307 4.37109 106.307ZM9.85547 106.207H10.6699C11.1816 106.199 11.584 106.064 11.877 105.803C12.1699 105.541 12.3164 105.188 12.3164 104.742C12.3164 103.742 11.8184 103.242 10.8223 103.242C10.3535 103.242 9.97852 103.377 9.69727 103.646C9.41992 103.912 9.28125 104.266 9.28125 104.707H8.19727C8.19727 104.031 8.44336 103.471 8.93555 103.025C9.43164 102.576 10.0605 102.352 10.8223 102.352C11.627 102.352 12.2578 102.564 12.7148 102.99C13.1719 103.416 13.4004 104.008 13.4004 104.766C13.4004 105.137 13.2793 105.496 13.0371 105.844C12.7988 106.191 12.4727 106.451 12.0586 106.623C12.5273 106.771 12.8887 107.018 13.1426 107.361C13.4004 107.705 13.5293 108.125 13.5293 108.621C13.5293 109.387 13.2793 109.994 12.7793 110.443C12.2793 110.893 11.6289 111.117 10.8281 111.117C10.0273 111.117 9.375 110.9 8.87109 110.467C8.37109 110.033 8.12109 109.461 8.12109 108.75H9.21094C9.21094 109.199 9.35742 109.559 9.65039 109.828C9.94336 110.098 10.3359 110.232 10.8281 110.232C11.3516 110.232 11.752 110.096 12.0293 109.822C12.3066 109.549 12.4453 109.156 12.4453 108.645C12.4453 108.148 12.293 107.768 11.9883 107.502C11.6836 107.236 11.2441 107.1 10.6699 107.092H9.85547V106.207ZM15.1523 110.432C15.1523 110.244 15.207 110.088 15.3164 109.963C15.4297 109.838 15.5977 109.775 15.8203 109.775C16.043 109.775 16.2109 109.838 16.3242 109.963C16.4414 110.088 16.5 110.244 16.5 110.432C16.5 110.611 16.4414 110.762 16.3242 110.883C16.2109 111.004 16.043 111.064 15.8203 111.064C15.5977 111.064 15.4297 111.004 15.3164 110.883C15.207 110.762 15.1523 110.611 15.1523 110.432ZM22.4355 102.463V103.383H22.2363C21.3926 103.398 20.7207 103.648 20.2207 104.133C19.7207 104.617 19.4316 105.299 19.3535 106.178C19.8027 105.662 20.416 105.404 21.1934 105.404C21.9355 105.404 22.5273 105.666 22.9688 106.189C23.4141 106.713 23.6367 107.389 23.6367 108.217C23.6367 109.096 23.3965 109.799 22.916 110.326C22.4395 110.854 21.7988 111.117 20.9941 111.117C20.1777 111.117 19.5156 110.805 19.0078 110.18C18.5 109.551 18.2461 108.742 18.2461 107.754V107.338C18.2461 105.768 18.5801 104.568 19.248 103.74C19.9199 102.908 20.918 102.482 22.2422 102.463H22.4355ZM21.0117 106.307C20.6406 106.307 20.2988 106.418 19.9863 106.641C19.6738 106.863 19.457 107.143 19.3359 107.479V107.877C19.3359 108.58 19.4941 109.146 19.8105 109.576C20.127 110.006 20.5215 110.221 20.9941 110.221C21.4824 110.221 21.8652 110.041 22.1426 109.682C22.4238 109.322 22.5645 108.852 22.5645 108.27C22.5645 107.684 22.4219 107.211 22.1367 106.852C21.8555 106.488 21.4805 106.307 21.0117 106.307ZM24.8262 104.109C24.8262 103.598 24.9883 103.176 25.3125 102.844C25.6406 102.512 26.0605 102.346 26.5723 102.346C27.0918 102.346 27.5117 102.514 27.832 102.85C28.1562 103.182 28.3184 103.613 28.3184 104.145V104.561C28.3184 105.076 28.1543 105.498 27.8262 105.826C27.502 106.15 27.0879 106.312 26.584 106.312C26.0762 106.312 25.6562 106.15 25.3242 105.826C24.9922 105.498 24.8262 105.062 24.8262 104.52V104.109ZM25.6348 104.561C25.6348 104.865 25.7207 105.117 25.8926 105.316C26.0645 105.512 26.2949 105.609 26.584 105.609C26.8613 105.609 27.084 105.514 27.252 105.322C27.4238 105.131 27.5098 104.869 27.5098 104.537V104.109C27.5098 103.805 27.4258 103.553 27.2578 103.354C27.0898 103.154 26.8613 103.055 26.5723 103.055C26.2832 103.055 26.0547 103.154 25.8867 103.354C25.7188 103.553 25.6348 103.812 25.6348 104.133V104.561ZM28.9805 108.908C28.9805 108.396 29.1426 107.977 29.4668 107.648C29.7949 107.316 30.2148 107.15 30.7266 107.15C31.2383 107.15 31.6582 107.314 31.9863 107.643C32.3145 107.971 32.4785 108.406 32.4785 108.949V109.365C32.4785 109.877 32.3145 110.299 31.9863 110.631C31.6621 110.959 31.2461 111.123 30.7383 111.123C30.2305 111.123 29.8105 110.961 29.4785 110.637C29.1465 110.309 28.9805 109.873 28.9805 109.33V108.908ZM29.7891 109.365C29.7891 109.674 29.875 109.928 30.0469 110.127C30.2188 110.322 30.4492 110.42 30.7383 110.42C31.0195 110.42 31.2441 110.324 31.4121 110.133C31.5801 109.938 31.6641 109.674 31.6641 109.342V108.908C31.6641 108.6 31.5781 108.348 31.4062 108.152C31.2383 107.957 31.0117 107.859 30.7266 107.859C30.4492 107.859 30.2227 107.957 30.0469 108.152C29.875 108.344 29.7891 108.604 29.7891 108.932V109.365ZM26.8301 110.355L26.2148 109.969L30.3809 103.301L30.9961 103.688L26.8301 110.355Z" fill="black"/>
<path d="M220.552 116.204C226.968 96.7371 226.429 75.6468 219.025 56.5337L174.684 73.7092C178.11 82.5528 178.36 92.3113 175.391 101.319L220.552 116.204Z" fill="#70EC75"/>
<path d="M220.016 117.78C213.169 137.309 199.695 153.822 181.935 164.447C164.176 175.071 143.255 179.136 122.809 175.935C102.363 172.733 83.6855 162.467 70.0239 146.922C56.3623 131.378 48.5804 111.536 48.0312 90.8488C47.4819 70.1611 54.2001 49.935 67.0176 33.6871C79.8352 17.4393 97.9415 6.19706 118.189 1.9151C138.436 -2.36686 159.543 0.582216 177.842 10.2496C196.14 19.917 210.471 35.6913 218.345 54.8301L174.366 72.9222C170.724 64.0675 164.093 56.7693 155.627 52.2966C147.161 47.8238 137.396 46.4594 128.028 48.4405C118.66 50.4216 110.283 55.6229 104.353 63.1402C98.423 70.6575 95.3148 80.0153 95.5689 89.5867C95.823 99.1581 99.4234 108.338 105.744 115.53C112.065 122.722 120.706 127.471 130.166 128.953C139.625 130.434 149.305 128.553 157.521 123.638C165.738 118.722 171.972 111.082 175.14 102.047L220.016 117.78Z" fill="black"/>
<circle cx="5.5" cy="211.5" r="5.5" fill="black"/>
<circle cx="85.5" cy="211.5" r="5.5" fill="#70EC75"/>
</svg>
