<svg width="242" height="226" viewBox="0 0 242 226" fill="none" xmlns="http://www.w3.org/2000/svg">
<path d="M36.2 218H37.325V214.325L41.225 207.5H39.95L36.8 213.125H36.725L33.575 207.5H32.3L36.2 214.325V218ZM46.9203 215.975C46.7553 216.2 46.5453 216.395 46.3203 216.575C45.9153 216.875 45.3603 217.175 44.5953 217.175C43.2303 217.175 42.1203 216.05 42.0453 214.775L47.8953 214.79L47.9253 214.64C47.9403 214.535 47.9703 214.415 47.9703 214.25C47.9703 212.15 46.4853 210.65 44.5203 210.65C42.6453 210.65 40.9953 212.3 40.9953 214.4C40.9953 216.5 42.6303 218.15 44.5953 218.15C45.5703 218.15 46.3053 217.775 46.8303 217.4C47.1303 217.175 47.3853 216.935 47.5953 216.65L46.9203 215.975ZM42.0453 213.875C42.2103 212.675 43.2303 211.625 44.5203 211.625C45.7953 211.625 46.7553 212.6 46.9203 213.875H42.0453ZM49.1656 216.875C49.3306 217.13 49.5406 217.34 49.7956 217.52C50.2306 217.835 50.8906 218.15 51.7906 218.15C53.4256 218.15 54.4156 217.175 54.4156 215.975C54.4156 213.425 50.5156 214.25 50.5156 212.675C50.5156 212.15 51.0406 211.625 51.8656 211.625C52.3906 211.625 52.7656 211.82 53.0506 212C53.2006 212.105 53.3356 212.24 53.4406 212.375L54.1906 211.625C54.0256 211.445 53.8156 211.28 53.5906 211.145C53.1856 210.905 52.6306 210.65 51.8656 210.65C50.4256 210.65 49.4656 211.64 49.4656 212.675C49.4656 215.15 53.3656 214.325 53.3656 215.975C53.3656 216.65 52.8556 217.175 51.7906 217.175C51.1906 217.175 50.7106 216.935 50.3956 216.65C50.2156 216.5 50.0506 216.32 49.9156 216.125L49.1656 216.875Z" fill="black"/>
<path d="M113.575 218H114.7V209.525L121.15 218H122.125V207.5H121V215.975L114.55 207.5H113.575V218ZM128.054 218.15C130.079 218.15 131.729 216.5 131.729 214.4C131.729 212.3 130.079 210.65 128.054 210.65C126.029 210.65 124.379 212.3 124.379 214.4C124.379 216.5 126.029 218.15 128.054 218.15ZM128.054 217.175C126.629 217.175 125.429 215.96 125.429 214.4C125.429 212.825 126.629 211.625 128.054 211.625C129.479 211.625 130.679 212.825 130.679 214.4C130.679 215.975 129.479 217.175 128.054 217.175Z" fill="black"/>
<path d="M189 85.5176L207.908 79" stroke="black"/>
<path d="M213.863 79.25C213.637 79.5195 213.365 79.7363 213.049 79.9004C212.736 80.0645 212.393 80.1465 212.018 80.1465C211.525 80.1465 211.096 80.0254 210.729 79.7832C210.365 79.541 210.084 79.2012 209.885 78.7637C209.686 78.3223 209.586 77.8359 209.586 77.3047C209.586 76.7344 209.693 76.2207 209.908 75.7637C210.127 75.3066 210.436 74.957 210.834 74.7148C211.232 74.4727 211.697 74.3516 212.229 74.3516C213.072 74.3516 213.736 74.668 214.221 75.3008C214.709 75.9297 214.953 76.7891 214.953 77.8789V78.1953C214.953 79.8555 214.625 81.0684 213.969 81.834C213.312 82.5957 212.322 82.9863 210.998 83.0059H210.787V82.0918H211.016C211.91 82.0762 212.598 81.8438 213.078 81.3945C213.559 80.9414 213.82 80.2266 213.863 79.25ZM212.193 79.25C212.557 79.25 212.891 79.1387 213.195 78.916C213.504 78.6934 213.729 78.418 213.869 78.0898V77.6562C213.869 76.9453 213.715 76.3672 213.406 75.9219C213.098 75.4766 212.707 75.2539 212.234 75.2539C211.758 75.2539 211.375 75.4375 211.086 75.8047C210.797 76.168 210.652 76.6484 210.652 77.2461C210.652 77.8281 210.791 78.3086 211.068 78.6875C211.35 79.0625 211.725 79.25 212.193 79.25ZM220.01 83H218.92V75.7754L216.734 76.5781V75.5938L219.84 74.4277H220.01V83ZM223.32 82.4316C223.32 82.2441 223.375 82.0879 223.484 81.9629C223.598 81.8379 223.766 81.7754 223.988 81.7754C224.211 81.7754 224.379 81.8379 224.492 81.9629C224.609 82.0879 224.668 82.2441 224.668 82.4316C224.668 82.6113 224.609 82.7617 224.492 82.8828C224.379 83.0039 224.211 83.0645 223.988 83.0645C223.766 83.0645 223.598 83.0039 223.484 82.8828C223.375 82.7617 223.32 82.6113 223.32 82.4316ZM231.857 75.0781L228.324 83H227.188L230.709 75.3594H226.092V74.4688H231.857V75.0781ZM232.994 76.1094C232.994 75.5977 233.156 75.1758 233.48 74.8438C233.809 74.5117 234.229 74.3457 234.74 74.3457C235.26 74.3457 235.68 74.5137 236 74.8496C236.324 75.1816 236.486 75.6133 236.486 76.1445V76.5605C236.486 77.0762 236.322 77.498 235.994 77.8262C235.67 78.1504 235.256 78.3125 234.752 78.3125C234.244 78.3125 233.824 78.1504 233.492 77.8262C233.16 77.498 232.994 77.0625 232.994 76.5195V76.1094ZM233.803 76.5605C233.803 76.8652 233.889 77.1172 234.061 77.3164C234.232 77.5117 234.463 77.6094 234.752 77.6094C235.029 77.6094 235.252 77.5137 235.42 77.3223C235.592 77.1309 235.678 76.8691 235.678 76.5371V76.1094C235.678 75.8047 235.594 75.5527 235.426 75.3535C235.258 75.1543 235.029 75.0547 234.74 75.0547C234.451 75.0547 234.223 75.1543 234.055 75.3535C233.887 75.5527 233.803 75.8125 233.803 76.1328V76.5605ZM237.148 80.9082C237.148 80.3965 237.311 79.9766 237.635 79.6484C237.963 79.3164 238.383 79.1504 238.895 79.1504C239.406 79.1504 239.826 79.3145 240.154 79.6426C240.482 79.9707 240.646 80.4062 240.646 80.9492V81.3652C240.646 81.877 240.482 82.2988 240.154 82.6309C239.83 82.959 239.414 83.123 238.906 83.123C238.398 83.123 237.979 82.9609 237.646 82.6367C237.314 82.3086 237.148 81.873 237.148 81.3301V80.9082ZM237.957 81.3652C237.957 81.6738 238.043 81.9277 238.215 82.127C238.387 82.3223 238.617 82.4199 238.906 82.4199C239.188 82.4199 239.412 82.3242 239.58 82.1328C239.748 81.9375 239.832 81.6738 239.832 81.3418V80.9082C239.832 80.5996 239.746 80.3477 239.574 80.1523C239.406 79.957 239.18 79.8594 238.895 79.8594C238.617 79.8594 238.391 79.957 238.215 80.1523C238.043 80.3438 237.957 80.6035 237.957 80.9316V81.3652ZM234.998 82.3555L234.383 81.9688L238.549 75.3008L239.164 75.6875L234.998 82.3555Z" fill="black"/>
<path d="M46.3732 19.528L26.535 16.9893" stroke="black"/>
<path d="M6.45312 15.6953C6.45312 16.1211 6.33984 16.5 6.11328 16.832C5.89062 17.1641 5.58789 17.4238 5.20508 17.6113C5.65039 17.8027 6.00195 18.082 6.25977 18.4492C6.52148 18.8164 6.65234 19.2324 6.65234 19.6973C6.65234 20.4355 6.40234 21.0234 5.90234 21.4609C5.40625 21.8984 4.75195 22.1172 3.93945 22.1172C3.11914 22.1172 2.46094 21.8984 1.96484 21.4609C1.47266 21.0195 1.22656 20.4316 1.22656 19.6973C1.22656 19.2363 1.35156 18.8203 1.60156 18.4492C1.85547 18.0781 2.20508 17.7969 2.65039 17.6055C2.27148 17.418 1.97266 17.1582 1.75391 16.8262C1.53516 16.4941 1.42578 16.1172 1.42578 15.6953C1.42578 14.9766 1.65625 14.4062 2.11719 13.9844C2.57812 13.5625 3.18555 13.3516 3.93945 13.3516C4.68945 13.3516 5.29492 13.5625 5.75586 13.9844C6.2207 14.4062 6.45312 14.9766 6.45312 15.6953ZM5.56836 19.6738C5.56836 19.1973 5.41602 18.8086 5.11133 18.5078C4.81055 18.207 4.41602 18.0566 3.92773 18.0566C3.43945 18.0566 3.04688 18.2051 2.75 18.502C2.45703 18.7988 2.31055 19.1895 2.31055 19.6738C2.31055 20.1582 2.45312 20.5391 2.73828 20.8164C3.02734 21.0938 3.42773 21.2324 3.93945 21.2324C4.44727 21.2324 4.8457 21.0938 5.13477 20.8164C5.42383 20.5352 5.56836 20.1543 5.56836 19.6738ZM3.93945 14.2422C3.51367 14.2422 3.16797 14.375 2.90234 14.6406C2.64062 14.9023 2.50977 15.2598 2.50977 15.7129C2.50977 16.1465 2.63867 16.498 2.89648 16.7676C3.1582 17.0332 3.50586 17.166 3.93945 17.166C4.37305 17.166 4.71875 17.0332 4.97656 16.7676C5.23828 16.498 5.36914 16.1465 5.36914 15.7129C5.36914 15.2793 5.23438 14.9258 4.96484 14.6523C4.69531 14.3789 4.35352 14.2422 3.93945 14.2422ZM8.15234 21.4316C8.15234 21.2441 8.20703 21.0879 8.31641 20.9629C8.42969 20.8379 8.59766 20.7754 8.82031 20.7754C9.04297 20.7754 9.21094 20.8379 9.32422 20.9629C9.44141 21.0879 9.5 21.2441 9.5 21.4316C9.5 21.6113 9.44141 21.7617 9.32422 21.8828C9.21094 22.0039 9.04297 22.0645 8.82031 22.0645C8.59766 22.0645 8.42969 22.0039 8.31641 21.8828C8.20703 21.7617 8.15234 21.6113 8.15234 21.4316ZM12.7578 17.207H13.5723C14.084 17.1992 14.4863 17.0645 14.7793 16.8027C15.0723 16.541 15.2188 16.1875 15.2188 15.7422C15.2188 14.7422 14.7207 14.2422 13.7246 14.2422C13.2559 14.2422 12.8809 14.377 12.5996 14.6465C12.3223 14.9121 12.1836 15.2656 12.1836 15.707H11.0996C11.0996 15.0312 11.3457 14.4707 11.8379 14.0254C12.334 13.5762 12.9629 13.3516 13.7246 13.3516C14.5293 13.3516 15.1602 13.5645 15.6172 13.9902C16.0742 14.416 16.3027 15.0078 16.3027 15.7656C16.3027 16.1367 16.1816 16.4961 15.9395 16.8438C15.7012 17.1914 15.375 17.4512 14.9609 17.623C15.4297 17.7715 15.791 18.0176 16.0449 18.3613C16.3027 18.7051 16.4316 19.125 16.4316 19.6211C16.4316 20.3867 16.1816 20.9941 15.6816 21.4434C15.1816 21.8926 14.5312 22.1172 13.7305 22.1172C12.9297 22.1172 12.2773 21.9004 11.7734 21.4668C11.2734 21.0332 11.0234 20.4609 11.0234 19.75H12.1133C12.1133 20.1992 12.2598 20.5586 12.5527 20.8281C12.8457 21.0977 13.2383 21.2324 13.7305 21.2324C14.2539 21.2324 14.6543 21.0957 14.9316 20.8223C15.209 20.5488 15.3477 20.1562 15.3477 19.6445C15.3477 19.1484 15.1953 18.7676 14.8906 18.502C14.5859 18.2363 14.1465 18.0996 13.5723 18.0918H12.7578V17.207ZM17.8262 15.1094C17.8262 14.5977 17.9883 14.1758 18.3125 13.8438C18.6406 13.5117 19.0605 13.3457 19.5723 13.3457C20.0918 13.3457 20.5117 13.5137 20.832 13.8496C21.1562 14.1816 21.3184 14.6133 21.3184 15.1445V15.5605C21.3184 16.0762 21.1543 16.498 20.8262 16.8262C20.502 17.1504 20.0879 17.3125 19.584 17.3125C19.0762 17.3125 18.6562 17.1504 18.3242 16.8262C17.9922 16.498 17.8262 16.0625 17.8262 15.5195V15.1094ZM18.6348 15.5605C18.6348 15.8652 18.7207 16.1172 18.8926 16.3164C19.0645 16.5117 19.2949 16.6094 19.584 16.6094C19.8613 16.6094 20.084 16.5137 20.252 16.3223C20.4238 16.1309 20.5098 15.8691 20.5098 15.5371V15.1094C20.5098 14.8047 20.4258 14.5527 20.2578 14.3535C20.0898 14.1543 19.8613 14.0547 19.5723 14.0547C19.2832 14.0547 19.0547 14.1543 18.8867 14.3535C18.7188 14.5527 18.6348 14.8125 18.6348 15.1328V15.5605ZM21.9805 19.9082C21.9805 19.3965 22.1426 18.9766 22.4668 18.6484C22.7949 18.3164 23.2148 18.1504 23.7266 18.1504C24.2383 18.1504 24.6582 18.3145 24.9863 18.6426C25.3145 18.9707 25.4785 19.4062 25.4785 19.9492V20.3652C25.4785 20.877 25.3145 21.2988 24.9863 21.6309C24.6621 21.959 24.2461 22.123 23.7383 22.123C23.2305 22.123 22.8105 21.9609 22.4785 21.6367C22.1465 21.3086 21.9805 20.873 21.9805 20.3301V19.9082ZM22.7891 20.3652C22.7891 20.6738 22.875 20.9277 23.0469 21.127C23.2188 21.3223 23.4492 21.4199 23.7383 21.4199C24.0195 21.4199 24.2441 21.3242 24.4121 21.1328C24.5801 20.9375 24.6641 20.6738 24.6641 20.3418V19.9082C24.6641 19.5996 24.5781 19.3477 24.4062 19.1523C24.2383 18.957 24.0117 18.8594 23.7266 18.8594C23.4492 18.8594 23.2227 18.957 23.0469 19.1523C22.875 19.3438 22.7891 19.6035 22.7891 19.9316V20.3652ZM19.8301 21.3555L19.2148 20.9688L23.3809 14.3008L23.9961 14.6875L19.8301 21.3555Z" fill="black"/>
<path d="M95.784 0.12574C80.2239 0.956084 65.1587 5.88007 52.1118 14.3999C39.0648 22.9197 28.4987 34.7332 21.4815 48.6461L63.9382 70.0596C67.185 63.6221 72.074 58.156 78.1108 54.2139C84.1476 50.2718 91.1182 47.9934 98.3179 47.6092L95.784 0.12574Z" fill="#70EC75"/>
<path d="M100.5 0C119.56 -2.27289e-07 138.111 6.1534 153.392 17.5447C168.674 28.936 179.869 44.9564 185.313 63.2225C190.757 81.4885 190.159 101.024 183.607 118.923C177.055 136.821 164.899 152.126 148.949 162.56C132.999 172.995 114.106 178.001 95.0819 176.834C76.0576 175.667 57.9183 168.39 43.3629 156.084C28.8075 143.779 18.6137 127.103 14.2982 108.538C9.98279 89.9726 11.7762 70.5104 19.4117 53.0466L62.9836 72.0971C59.4509 80.1769 58.6212 89.1813 60.6178 97.7707C62.6144 106.36 67.3307 114.075 74.0649 119.769C80.7991 125.462 89.1914 128.829 97.9932 129.369C106.795 129.909 115.536 127.592 122.915 122.765C130.295 117.937 135.919 110.856 138.95 102.575C141.982 94.2944 142.259 85.2561 139.74 76.8051C137.221 68.3541 132.041 60.942 124.971 55.6717C117.901 50.4014 109.318 47.5545 100.5 47.5545V0Z" fill="black"/>
<circle cx="17.5" cy="212.5" r="5.5" fill="black"/>
<circle cx="97.5" cy="212.5" r="5.5" fill="#70EC75"/>
</svg>
