<svg width="177" height="242" viewBox="0 0 177 242" fill="none" xmlns="http://www.w3.org/2000/svg">
<path d="M25.2 234H26.325V230.325L30.225 223.5H28.95L25.8 229.125H25.725L22.575 223.5H21.3L25.2 230.325V234ZM35.9203 231.975C35.7553 232.2 35.5453 232.395 35.3203 232.575C34.9153 232.875 34.3603 233.175 33.5953 233.175C32.2303 233.175 31.1203 232.05 31.0453 230.775L36.8953 230.79L36.9253 230.64C36.9403 230.535 36.9703 230.415 36.9703 230.25C36.9703 228.15 35.4853 226.65 33.5203 226.65C31.6453 226.65 29.9953 228.3 29.9953 230.4C29.9953 232.5 31.6303 234.15 33.5953 234.15C34.5703 234.15 35.3053 233.775 35.8303 233.4C36.1303 233.175 36.3853 232.935 36.5953 232.65L35.9203 231.975ZM31.0453 229.875C31.2103 228.675 32.2303 227.625 33.5203 227.625C34.7953 227.625 35.7553 228.6 35.9203 229.875H31.0453ZM38.1656 232.875C38.3306 233.13 38.5406 233.34 38.7956 233.52C39.2306 233.835 39.8906 234.15 40.7906 234.15C42.4256 234.15 43.4156 233.175 43.4156 231.975C43.4156 229.425 39.5156 230.25 39.5156 228.675C39.5156 228.15 40.0406 227.625 40.8656 227.625C41.3906 227.625 41.7656 227.82 42.0506 228C42.2006 228.105 42.3356 228.24 42.4406 228.375L43.1906 227.625C43.0256 227.445 42.8156 227.28 42.5906 227.145C42.1856 226.905 41.6306 226.65 40.8656 226.65C39.4256 226.65 38.4656 227.64 38.4656 228.675C38.4656 231.15 42.3656 230.325 42.3656 231.975C42.3656 232.65 41.8556 233.175 40.7906 233.175C40.1906 233.175 39.7106 232.935 39.3956 232.65C39.2156 232.5 39.0506 232.32 38.9156 232.125L38.1656 232.875Z" fill="black"/>
<path d="M102.575 234H103.7V225.525L110.15 234H111.125V223.5H110V231.975L103.55 223.5H102.575V234ZM117.054 234.15C119.079 234.15 120.729 232.5 120.729 230.4C120.729 228.3 119.079 226.65 117.054 226.65C115.029 226.65 113.379 228.3 113.379 230.4C113.379 232.5 115.029 234.15 117.054 234.15ZM117.054 233.175C115.629 233.175 114.429 231.96 114.429 230.4C114.429 228.825 115.629 227.625 117.054 227.625C118.479 227.625 119.679 228.825 119.679 230.4C119.679 231.975 118.479 233.175 117.054 233.175Z" fill="black"/>
<circle cx="6.5" cy="228.5" r="5.5" fill="black"/>
<circle cx="86.5" cy="228.5" r="5.5" fill="#70EC75"/>
<circle cx="88.5" cy="88.5" r="88.5" fill="#B9B9B9"/>
<mask id="mask0_1358_212" style="mask-type:alpha" maskUnits="userSpaceOnUse" x="0" y="0" width="177" height="177">
<circle cx="88.5" cy="88.5" r="88.5" fill="white"/>
</mask>
<g mask="url(#mask0_1358_212)">
<path opacity="0.4" fill-rule="evenodd" clip-rule="evenodd" d="M-44.25 64.1626L-37.6125 65.4901C-30.975 67.2601 -17.2575 69.9151 -3.9825 79.6501C9.735 89.8276 23.01 106.643 36.285 105.315C50.0025 103.545 63.2775 84.0751 76.5525 80.9776C90.27 78.3226 103.545 92.4826 117.262 99.5626C130.537 106.643 143.812 106.643 157.53 105.315C170.805 103.545 184.08 100.89 197.798 96.4651C211.072 92.4826 224.79 86.7301 231.427 84.0751L238.065 80.9776V211.515H231.427C224.79 211.515 211.072 211.515 197.798 211.515C184.08 211.515 170.805 211.515 157.53 211.515C143.812 211.515 130.537 211.515 117.262 211.515C103.545 211.515 90.27 211.515 76.5525 211.515C63.2775 211.515 50.0025 211.515 36.285 211.515C23.01 211.515 9.735 211.515 -3.9825 211.515C-17.2575 211.515 -30.975 211.515 -37.6125 211.515H-44.25V64.1626Z" fill="#121212"/>
<path opacity="0.4" fill-rule="evenodd" clip-rule="evenodd" d="M-44.25 88.9427L-32.3025 83.1902C-20.7975 77.4377 2.655 66.3752 26.55 66.3752C50.0025 66.3752 73.455 77.4377 96.9075 77.4377C120.36 77.4377 143.812 66.3752 167.708 57.9677C191.16 49.1177 214.612 43.8077 226.117 40.7102L238.065 38.0552V188.948H226.117C214.612 188.948 191.16 188.948 167.708 188.948C143.812 188.948 120.36 188.948 96.9075 188.948C73.455 188.948 50.0025 188.948 26.55 188.948C2.655 188.948 -20.7975 188.948 -32.3025 188.948H-44.25V88.9427Z" fill="#121212"/>
<path opacity="0.4" fill-rule="evenodd" clip-rule="evenodd" d="M-44.25 78.3999L-32.3025 74.4174C-20.7975 69.9924 2.655 61.5849 26.55 68.6649C50.0025 75.7449 73.455 98.3124 96.9075 98.3124C120.36 98.3124 143.812 75.7449 167.708 77.0724C191.16 78.3999 214.612 104.065 226.117 116.455L238.065 208.937H226.117C214.612 208.937 191.16 208.937 167.708 208.937C143.812 208.937 120.36 208.937 96.9075 208.937C73.455 208.937 50.0025 208.937 26.55 208.937C2.655 208.937 -20.7975 208.937 -32.3025 208.937H-44.25V78.3999Z" fill="#121212"/>
</g>
<path d="M68.1823 78.453C67.458 79.2376 66.5527 79.9317 65.4663 80.5956C64.3799 81.1992 63.384 81.6217 62.4183 81.8631V85.1223C64.41 84.5489 66.0698 83.6436 67.3675 82.4063V100H70.6569V78.453H68.1823ZM82.5531 78.0305C80.0181 78.0305 78.0566 79.0867 76.6684 81.2293C75.4009 83.1909 74.7672 85.8466 74.7672 89.2265C74.7672 92.5762 75.4009 95.2319 76.6684 97.2236C78.0566 99.3361 80.0181 100.422 82.5531 100.422C85.088 100.422 87.0496 99.3361 88.4378 97.2236C89.7052 95.2319 90.339 92.5461 90.339 89.2265C90.339 85.8767 89.7052 83.2211 88.4378 81.2293C87.0496 79.0867 85.088 78.0305 82.5531 78.0305ZM82.5531 80.8069C84.3034 80.8069 85.5709 81.7725 86.2951 83.7341C86.8082 85.0619 87.0798 86.9028 87.0798 89.2265C87.0798 91.52 86.8082 93.3609 86.2951 94.7189C85.5709 96.6503 84.3034 97.6461 82.5531 97.6461C80.7726 97.6461 79.5353 96.6503 78.811 94.7189C78.2678 93.3609 78.0264 91.52 78.0264 89.2265C78.0264 86.9028 78.2678 85.0619 78.811 83.7341C79.5353 81.7725 80.7726 80.8069 82.5531 80.8069ZM100.648 78.0305C98.1131 78.0305 96.1515 79.0867 94.7633 81.2293C93.4959 83.1909 92.8621 85.8466 92.8621 89.2265C92.8621 92.5762 93.4959 95.2319 94.7633 97.2236C96.1515 99.3361 98.1131 100.422 100.648 100.422C103.183 100.422 105.145 99.3361 106.533 97.2236C107.8 95.2319 108.434 92.5461 108.434 89.2265C108.434 85.8767 107.8 83.2211 106.533 81.2293C105.145 79.0867 103.183 78.0305 100.648 78.0305ZM100.648 80.8069C102.398 80.8069 103.666 81.7725 104.39 83.7341C104.903 85.0619 105.175 86.9028 105.175 89.2265C105.175 91.52 104.903 93.3609 104.39 94.7189C103.666 96.6503 102.398 97.6461 100.648 97.6461C98.8675 97.6461 97.6302 96.6503 96.906 94.7189C96.3628 93.3609 96.1214 91.52 96.1214 89.2265C96.1214 86.9028 96.3628 85.0619 96.906 83.7341C97.6302 81.7725 98.8675 80.8069 100.648 80.8069Z" fill="white"/>
<path d="M118.927 90.7171H120.186L115.134 100.057H113.887L118.927 90.7171ZM111.502 93.0134C111.502 92.6078 111.589 92.2221 111.764 91.8563C111.943 91.4905 112.213 91.2102 112.575 91.0153C112.941 90.8165 113.372 90.7171 113.869 90.7171C114.601 90.7171 115.178 90.9259 115.599 91.3434C116.021 91.7609 116.231 92.3175 116.231 93.0134C116.231 93.7132 116.021 94.2718 115.599 94.6893C115.178 95.1068 114.601 95.3156 113.869 95.3156C113.372 95.3156 112.941 95.2182 112.575 95.0233C112.213 94.8245 111.943 94.5422 111.764 94.1764C111.589 93.8106 111.502 93.4229 111.502 93.0134ZM113.178 93.0253C113.178 93.5183 113.257 93.8762 113.416 94.0989C113.52 94.246 113.671 94.3195 113.869 94.3195C114.068 94.3195 114.217 94.246 114.317 94.0989C114.476 93.8762 114.555 93.5183 114.555 93.0253C114.555 92.5362 114.476 92.1784 114.317 91.9517C114.217 91.8086 114.068 91.737 113.869 91.737C113.671 91.737 113.52 91.8086 113.416 91.9517C113.257 92.1744 113.178 92.5322 113.178 93.0253ZM117.806 97.743C117.806 97.3335 117.893 96.9478 118.068 96.586C118.243 96.2202 118.514 95.9378 118.879 95.739C119.245 95.5402 119.675 95.4408 120.168 95.4408C120.903 95.4408 121.482 95.6516 121.903 96.073C122.325 96.4905 122.536 97.0472 122.536 97.743C122.536 98.4389 122.325 98.9975 121.903 99.419C121.482 99.8365 120.903 100.045 120.168 100.045C119.675 100.045 119.245 99.9459 118.879 99.747C118.514 99.5482 118.243 99.2679 118.068 98.9061C117.893 98.5403 117.806 98.1526 117.806 97.743ZM119.482 97.755C119.482 98.248 119.561 98.6059 119.72 98.8285C119.82 98.9717 119.969 99.0433 120.168 99.0433C120.367 99.0433 120.518 98.9717 120.621 98.8285C120.78 98.6059 120.86 98.248 120.86 97.755C120.86 97.2619 120.78 96.9021 120.621 96.6754C120.518 96.5323 120.367 96.4607 120.168 96.4607C119.969 96.4607 119.82 96.5343 119.72 96.6814C119.561 96.9041 119.482 97.2619 119.482 97.755Z" fill="white"/>
</svg>
