<svg width="275" height="226" viewBox="0 0 275 226" fill="none" xmlns="http://www.w3.org/2000/svg">
<path d="M69.2 218H70.325V214.325L74.225 207.5H72.95L69.8 213.125H69.725L66.575 207.5H65.3L69.2 214.325V218ZM79.9203 215.975C79.7553 216.2 79.5453 216.395 79.3203 216.575C78.9153 216.875 78.3603 217.175 77.5953 217.175C76.2303 217.175 75.1203 216.05 75.0453 214.775L80.8953 214.79L80.9253 214.64C80.9403 214.535 80.9703 214.415 80.9703 214.25C80.9703 212.15 79.4853 210.65 77.5203 210.65C75.6453 210.65 73.9953 212.3 73.9953 214.4C73.9953 216.5 75.6303 218.15 77.5953 218.15C78.5703 218.15 79.3053 217.775 79.8303 217.4C80.1303 217.175 80.3853 216.935 80.5953 216.65L79.9203 215.975ZM75.0453 213.875C75.2103 212.675 76.2303 211.625 77.5203 211.625C78.7953 211.625 79.7553 212.6 79.9203 213.875H75.0453ZM82.1656 216.875C82.3306 217.13 82.5406 217.34 82.7956 217.52C83.2306 217.835 83.8906 218.15 84.7906 218.15C86.4256 218.15 87.4156 217.175 87.4156 215.975C87.4156 213.425 83.5156 214.25 83.5156 212.675C83.5156 212.15 84.0406 211.625 84.8656 211.625C85.3906 211.625 85.7656 211.82 86.0506 212C86.2006 212.105 86.3356 212.24 86.4406 212.375L87.1906 211.625C87.0256 211.445 86.8156 211.28 86.5906 211.145C86.1856 210.905 85.6306 210.65 84.8656 210.65C83.4256 210.65 82.4656 211.64 82.4656 212.675C82.4656 215.15 86.3656 214.325 86.3656 215.975C86.3656 216.65 85.8556 217.175 84.7906 217.175C84.1906 217.175 83.7106 216.935 83.3956 216.65C83.2156 216.5 83.0506 216.32 82.9156 216.125L82.1656 216.875Z" fill="black"/>
<path d="M146.575 218H147.7V209.525L154.15 218H155.125V207.5H154V215.975L147.55 207.5H146.575V218ZM161.054 218.15C163.079 218.15 164.729 216.5 164.729 214.4C164.729 212.3 163.079 210.65 161.054 210.65C159.029 210.65 157.379 212.3 157.379 214.4C157.379 216.5 159.029 218.15 161.054 218.15ZM161.054 217.175C159.629 217.175 158.429 215.96 158.429 214.4C158.429 212.825 159.629 211.625 161.054 211.625C162.479 211.625 163.679 212.825 163.679 214.4C163.679 215.975 162.479 217.175 161.054 217.175Z" fill="black"/>
<path d="M222 85.5176L240.908 79" stroke="black"/>
<path d="M246.963 74.4629V75.3828H246.764C245.92 75.3984 245.248 75.6484 244.748 76.1328C244.248 76.6172 243.959 77.2988 243.881 78.1777C244.33 77.6621 244.943 77.4043 245.721 77.4043C246.463 77.4043 247.055 77.666 247.496 78.1895C247.941 78.7129 248.164 79.3887 248.164 80.2168C248.164 81.0957 247.924 81.7988 247.443 82.3262C246.967 82.8535 246.326 83.1172 245.521 83.1172C244.705 83.1172 244.043 82.8047 243.535 82.1797C243.027 81.5508 242.773 80.7422 242.773 79.7539V79.3379C242.773 77.7676 243.107 76.5684 243.775 75.7402C244.447 74.9082 245.445 74.4824 246.77 74.4629H246.963ZM245.539 78.3066C245.168 78.3066 244.826 78.418 244.514 78.6406C244.201 78.8633 243.984 79.1426 243.863 79.4785V79.877C243.863 80.5801 244.021 81.1465 244.338 81.5762C244.654 82.0059 245.049 82.2207 245.521 82.2207C246.01 82.2207 246.393 82.041 246.67 81.6816C246.951 81.3223 247.092 80.8516 247.092 80.2695C247.092 79.6836 246.949 79.2109 246.664 78.8516C246.383 78.4883 246.008 78.3066 245.539 78.3066ZM253.701 74.4629V75.3828H253.502C252.658 75.3984 251.986 75.6484 251.486 76.1328C250.986 76.6172 250.697 77.2988 250.619 78.1777C251.068 77.6621 251.682 77.4043 252.459 77.4043C253.201 77.4043 253.793 77.666 254.234 78.1895C254.68 78.7129 254.902 79.3887 254.902 80.2168C254.902 81.0957 254.662 81.7988 254.182 82.3262C253.705 82.8535 253.064 83.1172 252.26 83.1172C251.443 83.1172 250.781 82.8047 250.273 82.1797C249.766 81.5508 249.512 80.7422 249.512 79.7539V79.3379C249.512 77.7676 249.846 76.5684 250.514 75.7402C251.186 74.9082 252.184 74.4824 253.508 74.4629H253.701ZM252.277 78.3066C251.906 78.3066 251.564 78.418 251.252 78.6406C250.939 78.8633 250.723 79.1426 250.602 79.4785V79.877C250.602 80.5801 250.76 81.1465 251.076 81.5762C251.393 82.0059 251.787 82.2207 252.26 82.2207C252.748 82.2207 253.131 82.041 253.408 81.6816C253.689 81.3223 253.83 80.8516 253.83 80.2695C253.83 79.6836 253.688 79.2109 253.402 78.8516C253.121 78.4883 252.746 78.3066 252.277 78.3066ZM256.32 82.4316C256.32 82.2441 256.375 82.0879 256.484 81.9629C256.598 81.8379 256.766 81.7754 256.988 81.7754C257.211 81.7754 257.379 81.8379 257.492 81.9629C257.609 82.0879 257.668 82.2441 257.668 82.4316C257.668 82.6113 257.609 82.7617 257.492 82.8828C257.379 83.0039 257.211 83.0645 256.988 83.0645C256.766 83.0645 256.598 83.0039 256.484 82.8828C256.375 82.7617 256.32 82.6113 256.32 82.4316ZM264.857 75.0781L261.324 83H260.188L263.709 75.3594H259.092V74.4688H264.857V75.0781ZM265.994 76.1094C265.994 75.5977 266.156 75.1758 266.48 74.8438C266.809 74.5117 267.229 74.3457 267.74 74.3457C268.26 74.3457 268.68 74.5137 269 74.8496C269.324 75.1816 269.486 75.6133 269.486 76.1445V76.5605C269.486 77.0762 269.322 77.498 268.994 77.8262C268.67 78.1504 268.256 78.3125 267.752 78.3125C267.244 78.3125 266.824 78.1504 266.492 77.8262C266.16 77.498 265.994 77.0625 265.994 76.5195V76.1094ZM266.803 76.5605C266.803 76.8652 266.889 77.1172 267.061 77.3164C267.232 77.5117 267.463 77.6094 267.752 77.6094C268.029 77.6094 268.252 77.5137 268.42 77.3223C268.592 77.1309 268.678 76.8691 268.678 76.5371V76.1094C268.678 75.8047 268.594 75.5527 268.426 75.3535C268.258 75.1543 268.029 75.0547 267.74 75.0547C267.451 75.0547 267.223 75.1543 267.055 75.3535C266.887 75.5527 266.803 75.8125 266.803 76.1328V76.5605ZM270.148 80.9082C270.148 80.3965 270.311 79.9766 270.635 79.6484C270.963 79.3164 271.383 79.1504 271.895 79.1504C272.406 79.1504 272.826 79.3145 273.154 79.6426C273.482 79.9707 273.646 80.4062 273.646 80.9492V81.3652C273.646 81.877 273.482 82.2988 273.154 82.6309C272.83 82.959 272.414 83.123 271.906 83.123C271.398 83.123 270.979 82.9609 270.646 82.6367C270.314 82.3086 270.148 81.873 270.148 81.3301V80.9082ZM270.957 81.3652C270.957 81.6738 271.043 81.9277 271.215 82.127C271.387 82.3223 271.617 82.4199 271.906 82.4199C272.188 82.4199 272.412 82.3242 272.58 82.1328C272.748 81.9375 272.832 81.6738 272.832 81.3418V80.9082C272.832 80.5996 272.746 80.3477 272.574 80.1523C272.406 79.957 272.18 79.8594 271.895 79.8594C271.617 79.8594 271.391 79.957 271.215 80.1523C271.043 80.3438 270.957 80.6035 270.957 80.9316V81.3652ZM267.998 82.3555L267.383 81.9688L271.549 75.3008L272.164 75.6875L267.998 82.3555Z" fill="black"/>
<path d="M53.3732 53.528L33.5349 50.9893" stroke="black"/>
<path d="M3.11719 51.207H3.93164C4.44336 51.1992 4.8457 51.0645 5.13867 50.8027C5.43164 50.541 5.57812 50.1875 5.57812 49.7422C5.57812 48.7422 5.08008 48.2422 4.08398 48.2422C3.61523 48.2422 3.24023 48.377 2.95898 48.6465C2.68164 48.9121 2.54297 49.2656 2.54297 49.707H1.45898C1.45898 49.0312 1.70508 48.4707 2.19727 48.0254C2.69336 47.5762 3.32227 47.3516 4.08398 47.3516C4.88867 47.3516 5.51953 47.5645 5.97656 47.9902C6.43359 48.416 6.66211 49.0078 6.66211 49.7656C6.66211 50.1367 6.54102 50.4961 6.29883 50.8438C6.06055 51.1914 5.73438 51.4512 5.32031 51.623C5.78906 51.7715 6.15039 52.0176 6.4043 52.3613C6.66211 52.7051 6.79102 53.125 6.79102 53.6211C6.79102 54.3867 6.54102 54.9941 6.04102 55.4434C5.54102 55.8926 4.89062 56.1172 4.08984 56.1172C3.28906 56.1172 2.63672 55.9004 2.13281 55.4668C1.63281 55.0332 1.38281 54.4609 1.38281 53.75H2.47266C2.47266 54.1992 2.61914 54.5586 2.91211 54.8281C3.20508 55.0977 3.59766 55.2324 4.08984 55.2324C4.61328 55.2324 5.01367 55.0957 5.29102 54.8223C5.56836 54.5488 5.70703 54.1562 5.70703 53.6445C5.70703 53.1484 5.55469 52.7676 5.25 52.502C4.94531 52.2363 4.50586 52.0996 3.93164 52.0918H3.11719V51.207ZM9.85547 51.207H10.6699C11.1816 51.1992 11.584 51.0645 11.877 50.8027C12.1699 50.541 12.3164 50.1875 12.3164 49.7422C12.3164 48.7422 11.8184 48.2422 10.8223 48.2422C10.3535 48.2422 9.97852 48.377 9.69727 48.6465C9.41992 48.9121 9.28125 49.2656 9.28125 49.707H8.19727C8.19727 49.0312 8.44336 48.4707 8.93555 48.0254C9.43164 47.5762 10.0605 47.3516 10.8223 47.3516C11.627 47.3516 12.2578 47.5645 12.7148 47.9902C13.1719 48.416 13.4004 49.0078 13.4004 49.7656C13.4004 50.1367 13.2793 50.4961 13.0371 50.8438C12.7988 51.1914 12.4727 51.4512 12.0586 51.623C12.5273 51.7715 12.8887 52.0176 13.1426 52.3613C13.4004 52.7051 13.5293 53.125 13.5293 53.6211C13.5293 54.3867 13.2793 54.9941 12.7793 55.4434C12.2793 55.8926 11.6289 56.1172 10.8281 56.1172C10.0273 56.1172 9.375 55.9004 8.87109 55.4668C8.37109 55.0332 8.12109 54.4609 8.12109 53.75H9.21094C9.21094 54.1992 9.35742 54.5586 9.65039 54.8281C9.94336 55.0977 10.3359 55.2324 10.8281 55.2324C11.3516 55.2324 11.752 55.0957 12.0293 54.8223C12.3066 54.5488 12.4453 54.1562 12.4453 53.6445C12.4453 53.1484 12.293 52.7676 11.9883 52.502C11.6836 52.2363 11.2441 52.0996 10.6699 52.0918H9.85547V51.207ZM15.1523 55.4316C15.1523 55.2441 15.207 55.0879 15.3164 54.9629C15.4297 54.8379 15.5977 54.7754 15.8203 54.7754C16.043 54.7754 16.2109 54.8379 16.3242 54.9629C16.4414 55.0879 16.5 55.2441 16.5 55.4316C16.5 55.6113 16.4414 55.7617 16.3242 55.8828C16.2109 56.0039 16.043 56.0645 15.8203 56.0645C15.5977 56.0645 15.4297 56.0039 15.3164 55.8828C15.207 55.7617 15.1523 55.6113 15.1523 55.4316ZM19.7578 51.207H20.5723C21.084 51.1992 21.4863 51.0645 21.7793 50.8027C22.0723 50.541 22.2188 50.1875 22.2188 49.7422C22.2188 48.7422 21.7207 48.2422 20.7246 48.2422C20.2559 48.2422 19.8809 48.377 19.5996 48.6465C19.3223 48.9121 19.1836 49.2656 19.1836 49.707H18.0996C18.0996 49.0312 18.3457 48.4707 18.8379 48.0254C19.334 47.5762 19.9629 47.3516 20.7246 47.3516C21.5293 47.3516 22.1602 47.5645 22.6172 47.9902C23.0742 48.416 23.3027 49.0078 23.3027 49.7656C23.3027 50.1367 23.1816 50.4961 22.9395 50.8438C22.7012 51.1914 22.375 51.4512 21.9609 51.623C22.4297 51.7715 22.791 52.0176 23.0449 52.3613C23.3027 52.7051 23.4316 53.125 23.4316 53.6211C23.4316 54.3867 23.1816 54.9941 22.6816 55.4434C22.1816 55.8926 21.5312 56.1172 20.7305 56.1172C19.9297 56.1172 19.2773 55.9004 18.7734 55.4668C18.2734 55.0332 18.0234 54.4609 18.0234 53.75H19.1133C19.1133 54.1992 19.2598 54.5586 19.5527 54.8281C19.8457 55.0977 20.2383 55.2324 20.7305 55.2324C21.2539 55.2324 21.6543 55.0957 21.9316 54.8223C22.209 54.5488 22.3477 54.1562 22.3477 53.6445C22.3477 53.1484 22.1953 52.7676 21.8906 52.502C21.5859 52.2363 21.1465 52.0996 20.5723 52.0918H19.7578V51.207ZM24.8262 49.1094C24.8262 48.5977 24.9883 48.1758 25.3125 47.8438C25.6406 47.5117 26.0605 47.3457 26.5723 47.3457C27.0918 47.3457 27.5117 47.5137 27.832 47.8496C28.1562 48.1816 28.3184 48.6133 28.3184 49.1445V49.5605C28.3184 50.0762 28.1543 50.498 27.8262 50.8262C27.502 51.1504 27.0879 51.3125 26.584 51.3125C26.0762 51.3125 25.6562 51.1504 25.3242 50.8262C24.9922 50.498 24.8262 50.0625 24.8262 49.5195V49.1094ZM25.6348 49.5605C25.6348 49.8652 25.7207 50.1172 25.8926 50.3164C26.0645 50.5117 26.2949 50.6094 26.584 50.6094C26.8613 50.6094 27.084 50.5137 27.252 50.3223C27.4238 50.1309 27.5098 49.8691 27.5098 49.5371V49.1094C27.5098 48.8047 27.4258 48.5527 27.2578 48.3535C27.0898 48.1543 26.8613 48.0547 26.5723 48.0547C26.2832 48.0547 26.0547 48.1543 25.8867 48.3535C25.7188 48.5527 25.6348 48.8125 25.6348 49.1328V49.5605ZM28.9805 53.9082C28.9805 53.3965 29.1426 52.9766 29.4668 52.6484C29.7949 52.3164 30.2148 52.1504 30.7266 52.1504C31.2383 52.1504 31.6582 52.3145 31.9863 52.6426C32.3145 52.9707 32.4785 53.4062 32.4785 53.9492V54.3652C32.4785 54.877 32.3145 55.2988 31.9863 55.6309C31.6621 55.959 31.2461 56.123 30.7383 56.123C30.2305 56.123 29.8105 55.9609 29.4785 55.6367C29.1465 55.3086 28.9805 54.873 28.9805 54.3301V53.9082ZM29.7891 54.3652C29.7891 54.6738 29.875 54.9277 30.0469 55.127C30.2188 55.3223 30.4492 55.4199 30.7383 55.4199C31.0195 55.4199 31.2441 55.3242 31.4121 55.1328C31.5801 54.9375 31.6641 54.6738 31.6641 54.3418V53.9082C31.6641 53.5996 31.5781 53.3477 31.4062 53.1523C31.2383 52.957 31.0117 52.8594 30.7266 52.8594C30.4492 52.8594 30.2227 52.957 30.0469 53.1523C29.875 53.3438 29.7891 53.6035 29.7891 53.9316V54.3652ZM26.8301 55.3555L26.2148 54.9688L30.3809 48.3008L30.9961 48.6875L26.8301 55.3555Z" fill="black"/>
<path d="M128.784 0.12574C112.59 0.989892 96.9453 6.28692 83.5575 15.4384C70.1697 24.5899 59.5537 37.2439 52.8689 52.0188C46.1841 66.7937 43.6874 83.1213 45.6515 99.2187C47.6156 115.316 53.9649 130.564 64.0062 143.298L101.345 113.855C96.6991 107.963 93.7613 100.908 92.8525 93.4595C91.9437 86.0113 93.0989 78.4565 96.192 71.6202C99.2851 64.7838 104.197 58.9288 110.392 54.6944C116.586 50.46 123.825 48.0091 131.318 47.6092L128.784 0.12574Z" fill="#70EC75"/>
<path d="M133.5 0C148.284 -1.76301e-07 162.833 3.70377 175.818 10.7731C188.802 17.8424 199.809 28.052 207.833 40.4696C215.856 52.8871 220.641 67.1169 221.751 81.8595C222.86 96.6021 220.258 111.388 214.183 124.866C208.108 138.345 198.753 150.086 186.973 159.019C175.192 167.952 161.361 173.791 146.744 176.003C132.126 178.216 117.187 176.731 103.29 171.684C89.3941 166.638 76.9835 158.19 67.192 147.113L102.822 115.618C107.352 120.743 113.094 124.651 119.523 126.986C125.952 129.321 132.864 130.008 139.627 128.984C146.39 127.961 152.789 125.259 158.24 121.126C163.69 116.994 168.018 111.561 170.829 105.325C173.64 99.0893 174.843 92.2485 174.33 85.4277C173.817 78.6069 171.603 72.0233 167.891 66.2782C164.179 60.5331 159.086 55.8095 153.079 52.5388C147.071 49.2681 140.34 47.5545 133.5 47.5545V0Z" fill="black"/>
<circle cx="50.5" cy="212.5" r="5.5" fill="black"/>
<circle cx="130.5" cy="212.5" r="5.5" fill="#70EC75"/>
</svg>
