<svg width="288" height="303" viewBox="0 0 288 303" fill="none" xmlns="http://www.w3.org/2000/svg">
<path d="M24.675 253.575C24.87 253.845 25.125 254.085 25.425 254.295C25.95 254.67 26.685 255.03 27.75 255.135V256.65H28.8V255.12C30.675 254.895 31.725 253.725 31.725 252.15C31.725 248.415 26.025 249.9 26.025 247.2C26.025 246.255 26.835 245.4 28.275 245.4C29.055 245.4 29.61 245.67 30.015 245.925C30.24 246.09 30.435 246.255 30.6 246.45L31.35 245.7C31.185 245.49 30.96 245.295 30.705 245.115C30.27 244.815 29.64 244.485 28.8 244.38V242.85H27.75V244.38C25.965 244.575 24.9 245.82 24.9 247.2C24.9 250.935 30.6 249.465 30.6 252.15C30.6 253.29 29.775 254.1 28.2 254.1C27.225 254.1 26.505 253.8 26.04 253.455C25.77 253.275 25.545 253.065 25.35 252.81L24.675 253.575ZM33.6064 253.575C33.8464 253.875 34.1314 254.145 34.4614 254.37C35.0464 254.775 35.8714 255.15 37.0564 255.15C39.2314 255.15 40.6564 253.725 40.6564 251.7C40.6564 249.735 39.1714 248.25 37.1314 248.25C36.4864 248.25 35.9914 248.385 35.6464 248.55C35.4514 248.64 35.2714 248.745 35.1064 248.85L35.3314 245.55H39.9814V244.5H34.3564L33.9814 250.425H34.8064C34.9564 250.23 35.1514 250.035 35.3764 249.87C35.7514 249.585 36.3364 249.3 37.1314 249.3C38.5714 249.3 39.5314 250.26 39.5314 251.7C39.5314 253.14 38.5564 254.1 37.0564 254.1C36.1564 254.1 35.4964 253.785 35.0314 253.47C34.7764 253.29 34.5514 253.08 34.3564 252.825L33.6064 253.575ZM46.6785 255.15C48.8385 255.15 50.8635 253.125 50.8635 249.75C50.8635 246.375 48.8235 244.35 46.6635 244.35C44.5035 244.35 42.4635 246.375 42.4635 249.75C42.4635 253.125 44.4885 255.15 46.6785 255.15ZM46.6785 254.1C45.0885 254.1 43.5885 252.6 43.5885 249.75C43.5885 246.9 45.1035 245.4 46.6635 245.4C48.2235 245.4 49.7385 246.9 49.7385 249.75C49.7385 252.6 48.2235 254.1 46.6785 254.1ZM56.8738 255.15C59.0338 255.15 61.0588 253.125 61.0588 249.75C61.0588 246.375 59.0188 244.35 56.8588 244.35C54.6988 244.35 52.6588 246.375 52.6588 249.75C52.6588 253.125 54.6838 255.15 56.8738 255.15ZM56.8738 254.1C55.2838 254.1 53.7838 252.6 53.7838 249.75C53.7838 246.9 55.2988 245.4 56.8588 245.4C58.4188 245.4 59.9338 246.9 59.9338 249.75C59.9338 252.6 58.4188 254.1 56.8738 254.1ZM65.7785 251.025H70.3535V250.05H65.7785V251.025ZM74.8459 253.575C75.0409 253.845 75.2959 254.085 75.5959 254.295C76.1209 254.67 76.8559 255.03 77.9209 255.135V256.65H78.9709V255.12C80.8459 254.895 81.8959 253.725 81.8959 252.15C81.8959 248.415 76.1959 249.9 76.1959 247.2C76.1959 246.255 77.0059 245.4 78.4459 245.4C79.2259 245.4 79.7809 245.67 80.1859 245.925C80.4109 246.09 80.6059 246.255 80.7709 246.45L81.5209 245.7C81.3559 245.49 81.1309 245.295 80.8759 245.115C80.4409 244.815 79.8109 244.485 78.9709 244.38V242.85H77.9209V244.38C76.1359 244.575 75.0709 245.82 75.0709 247.2C75.0709 250.935 80.7709 249.465 80.7709 252.15C80.7709 253.29 79.9459 254.1 78.3709 254.1C77.3959 254.1 76.6759 253.8 76.2109 253.455C75.9409 253.275 75.7159 253.065 75.5209 252.81L74.8459 253.575ZM85.2023 255H86.3273V244.5H85.5023C85.3973 244.755 85.2473 244.995 85.0523 245.19C84.7073 245.535 84.1523 245.88 83.2523 245.925V246.6H85.2023V255ZM93.0115 255.15C95.1715 255.15 97.1965 253.125 97.1965 249.75C97.1965 246.375 95.1565 244.35 92.9965 244.35C90.8365 244.35 88.7965 246.375 88.7965 249.75C88.7965 253.125 90.8215 255.15 93.0115 255.15ZM93.0115 254.1C91.4215 254.1 89.9215 252.6 89.9215 249.75C89.9215 246.9 91.4365 245.4 92.9965 245.4C94.5565 245.4 96.0715 246.9 96.0715 249.75C96.0715 252.6 94.5565 254.1 93.0115 254.1ZM103.207 255.15C105.367 255.15 107.392 253.125 107.392 249.75C107.392 246.375 105.352 244.35 103.192 244.35C101.032 244.35 98.9918 246.375 98.9918 249.75C98.9918 253.125 101.017 255.15 103.207 255.15ZM103.207 254.1C101.617 254.1 100.117 252.6 100.117 249.75C100.117 246.9 101.632 245.4 103.192 245.4C104.752 245.4 106.267 246.9 106.267 249.75C106.267 252.6 104.752 254.1 103.207 254.1ZM113.402 255.15C115.562 255.15 117.587 253.125 117.587 249.75C117.587 246.375 115.547 244.35 113.387 244.35C111.227 244.35 109.187 246.375 109.187 249.75C109.187 253.125 111.212 255.15 113.402 255.15ZM113.402 254.1C111.812 254.1 110.312 252.6 110.312 249.75C110.312 246.9 111.827 245.4 113.387 245.4C114.947 245.4 116.462 246.9 116.462 249.75C116.462 252.6 114.947 254.1 113.402 254.1Z" fill="black"/>
<path d="M24.675 293.575C24.87 293.845 25.125 294.085 25.425 294.295C25.95 294.67 26.685 295.03 27.75 295.135V296.65H28.8V295.12C30.675 294.895 31.725 293.725 31.725 292.15C31.725 288.415 26.025 289.9 26.025 287.2C26.025 286.255 26.835 285.4 28.275 285.4C29.055 285.4 29.61 285.67 30.015 285.925C30.24 286.09 30.435 286.255 30.6 286.45L31.35 285.7C31.185 285.49 30.96 285.295 30.705 285.115C30.27 284.815 29.64 284.485 28.8 284.38V282.85H27.75V284.38C25.965 284.575 24.9 285.82 24.9 287.2C24.9 290.935 30.6 289.465 30.6 292.15C30.6 293.29 29.775 294.1 28.2 294.1C27.225 294.1 26.505 293.8 26.04 293.455C25.77 293.275 25.545 293.065 25.35 292.81L24.675 293.575ZM34.3564 293.95C35.2564 291.175 39.8314 290.65 39.8314 287.425C39.8314 285.7 38.4964 284.35 36.4564 284.35C35.0914 284.35 34.3114 284.95 33.8314 285.55C33.5614 285.895 33.3664 286.3 33.2314 286.75L34.2064 287.2C34.2964 286.855 34.4314 286.555 34.6264 286.3C34.9714 285.835 35.4964 285.4 36.4564 285.4C37.8964 285.4 38.7064 286.225 38.7064 287.425C38.7064 290.44 33.0814 290.575 33.0814 295H39.8314V293.95H34.3564ZM45.8435 295.15C48.0035 295.15 50.0285 293.125 50.0285 289.75C50.0285 286.375 47.9885 284.35 45.8285 284.35C43.6685 284.35 41.6285 286.375 41.6285 289.75C41.6285 293.125 43.6535 295.15 45.8435 295.15ZM45.8435 294.1C44.2535 294.1 42.7535 292.6 42.7535 289.75C42.7535 286.9 44.2685 285.4 45.8285 285.4C47.3885 285.4 48.9035 286.9 48.9035 289.75C48.9035 292.6 47.3885 294.1 45.8435 294.1ZM56.0388 295.15C58.1988 295.15 60.2238 293.125 60.2238 289.75C60.2238 286.375 58.1838 284.35 56.0238 284.35C53.8638 284.35 51.8238 286.375 51.8238 289.75C51.8238 293.125 53.8488 295.15 56.0388 295.15ZM56.0388 294.1C54.4488 294.1 52.9488 292.6 52.9488 289.75C52.9488 286.9 54.4638 285.4 56.0238 285.4C57.5838 285.4 59.0988 286.9 59.0988 289.75C59.0988 292.6 57.5838 294.1 56.0388 294.1ZM66.2341 295.15C68.3941 295.15 70.4191 293.125 70.4191 289.75C70.4191 286.375 68.3791 284.35 66.2191 284.35C64.0591 284.35 62.0191 286.375 62.0191 289.75C62.0191 293.125 64.0441 295.15 66.2341 295.15ZM66.2341 294.1C64.6441 294.1 63.1441 292.6 63.1441 289.75C63.1441 286.9 64.6591 285.4 66.2191 285.4C67.7791 285.4 69.2941 286.9 69.2941 289.75C69.2941 292.6 67.7791 294.1 66.2341 294.1ZM75.1389 291.025H79.7139V290.05H75.1389V291.025ZM84.2063 293.575C84.4013 293.845 84.6563 294.085 84.9563 294.295C85.4813 294.67 86.2163 295.03 87.2812 295.135V296.65H88.3313V295.12C90.2063 294.895 91.2563 293.725 91.2563 292.15C91.2563 288.415 85.5563 289.9 85.5563 287.2C85.5563 286.255 86.3663 285.4 87.8063 285.4C88.5863 285.4 89.1413 285.67 89.5463 285.925C89.7713 286.09 89.9663 286.255 90.1313 286.45L90.8813 285.7C90.7163 285.49 90.4913 285.295 90.2363 285.115C89.8013 284.815 89.1713 284.485 88.3313 284.38V282.85H87.2812V284.38C85.4963 284.575 84.4313 285.82 84.4313 287.2C84.4313 290.935 90.1313 289.465 90.1313 292.15C90.1313 293.29 89.3063 294.1 87.7313 294.1C86.7563 294.1 86.0363 293.8 85.5713 293.455C85.3013 293.275 85.0763 293.065 84.8813 292.81L84.2063 293.575ZM92.4627 293.575C92.6877 293.875 92.9727 294.145 93.3177 294.37C93.9027 294.775 94.7877 295.15 95.9877 295.15C98.1477 295.15 99.5127 293.635 99.5127 292.075C99.5127 290.995 99.0177 290.35 98.5377 289.945C98.2527 289.72 97.9227 289.555 97.5627 289.45C97.8477 289.345 98.1177 289.18 98.3427 288.97C98.7477 288.61 99.1377 288.025 99.1377 287.125C99.1377 285.625 97.8627 284.35 95.9877 284.35C94.9227 284.35 94.1427 284.71 93.6177 285.07C93.3027 285.28 93.0477 285.52 92.8377 285.775L93.5877 286.6C93.7527 286.375 93.9627 286.18 94.2027 286C94.6077 285.7 95.1927 285.4 95.9877 285.4C97.2627 285.4 98.0127 286.15 98.0127 287.125C98.0127 288.265 97.2627 289 95.9877 289H94.9377V290.05H95.9877C97.5027 290.05 98.4627 291.01 98.4627 292.075C98.4627 293.2 97.5627 294.1 95.9877 294.1C95.0277 294.1 94.3677 293.785 93.9027 293.47C93.6327 293.29 93.4077 293.08 93.2127 292.825L92.4627 293.575ZM105.521 295.15C107.681 295.15 109.706 293.125 109.706 289.75C109.706 286.375 107.666 284.35 105.506 284.35C103.346 284.35 101.306 286.375 101.306 289.75C101.306 293.125 103.331 295.15 105.521 295.15ZM105.521 294.1C103.931 294.1 102.431 292.6 102.431 289.75C102.431 286.9 103.946 285.4 105.506 285.4C107.066 285.4 108.581 286.9 108.581 289.75C108.581 292.6 107.066 294.1 105.521 294.1ZM115.717 295.15C117.877 295.15 119.902 293.125 119.902 289.75C119.902 286.375 117.862 284.35 115.702 284.35C113.542 284.35 111.502 286.375 111.502 289.75C111.502 293.125 113.527 295.15 115.717 295.15ZM115.717 294.1C114.127 294.1 112.627 292.6 112.627 289.75C112.627 286.9 114.142 285.4 115.702 285.4C117.262 285.4 118.777 286.9 118.777 289.75C118.777 292.6 117.262 294.1 115.717 294.1ZM125.912 295.15C128.072 295.15 130.097 293.125 130.097 289.75C130.097 286.375 128.057 284.35 125.897 284.35C123.737 284.35 121.697 286.375 121.697 289.75C121.697 293.125 123.722 295.15 125.912 295.15ZM125.912 294.1C124.322 294.1 122.822 292.6 122.822 289.75C122.822 286.9 124.337 285.4 125.897 285.4C127.457 285.4 128.972 286.9 128.972 289.75C128.972 292.6 127.457 294.1 125.912 294.1Z" fill="black"/>
<path d="M180.675 253.575C180.87 253.845 181.125 254.085 181.425 254.295C181.95 254.67 182.685 255.03 183.75 255.135V256.65H184.8V255.12C186.675 254.895 187.725 253.725 187.725 252.15C187.725 248.415 182.025 249.9 182.025 247.2C182.025 246.255 182.835 245.4 184.275 245.4C185.055 245.4 185.61 245.67 186.015 245.925C186.24 246.09 186.435 246.255 186.6 246.45L187.35 245.7C187.185 245.49 186.96 245.295 186.705 245.115C186.27 244.815 185.64 244.485 184.8 244.38V242.85H183.75V244.38C181.965 244.575 180.9 245.82 180.9 247.2C180.9 250.935 186.6 249.465 186.6 252.15C186.6 253.29 185.775 254.1 184.2 254.1C183.225 254.1 182.505 253.8 182.04 253.455C181.77 253.275 181.545 253.065 181.35 252.81L180.675 253.575ZM191.031 255H192.156V244.5H191.331C191.226 244.755 191.076 244.995 190.881 245.19C190.536 245.535 189.981 245.88 189.081 245.925V246.6H191.031V255ZM198.841 255.15C201.001 255.15 203.026 253.125 203.026 249.75C203.026 246.375 200.986 244.35 198.826 244.35C196.666 244.35 194.626 246.375 194.626 249.75C194.626 253.125 196.651 255.15 198.841 255.15ZM198.841 254.1C197.251 254.1 195.751 252.6 195.751 249.75C195.751 246.9 197.266 245.4 198.826 245.4C200.386 245.4 201.901 246.9 201.901 249.75C201.901 252.6 200.386 254.1 198.841 254.1ZM209.036 255.15C211.196 255.15 213.221 253.125 213.221 249.75C213.221 246.375 211.181 244.35 209.021 244.35C206.861 244.35 204.821 246.375 204.821 249.75C204.821 253.125 206.846 255.15 209.036 255.15ZM209.036 254.1C207.446 254.1 205.946 252.6 205.946 249.75C205.946 246.9 207.461 245.4 209.021 245.4C210.581 245.4 212.096 246.9 212.096 249.75C212.096 252.6 210.581 254.1 209.036 254.1ZM219.231 255.15C221.391 255.15 223.416 253.125 223.416 249.75C223.416 246.375 221.376 244.35 219.216 244.35C217.056 244.35 215.016 246.375 215.016 249.75C215.016 253.125 217.041 255.15 219.231 255.15ZM219.231 254.1C217.641 254.1 216.141 252.6 216.141 249.75C216.141 246.9 217.656 245.4 219.216 245.4C220.776 245.4 222.291 246.9 222.291 249.75C222.291 252.6 220.776 254.1 219.231 254.1ZM228.136 251.025H232.711V250.05H228.136V251.025ZM237.203 253.575C237.398 253.845 237.653 254.085 237.953 254.295C238.478 254.67 239.213 255.03 240.278 255.135V256.65H241.328V255.12C243.203 254.895 244.253 253.725 244.253 252.15C244.253 248.415 238.553 249.9 238.553 247.2C238.553 246.255 239.363 245.4 240.803 245.4C241.583 245.4 242.138 245.67 242.543 245.925C242.768 246.09 242.963 246.255 243.128 246.45L243.878 245.7C243.713 245.49 243.488 245.295 243.233 245.115C242.798 244.815 242.168 244.485 241.328 244.38V242.85H240.278V244.38C238.493 244.575 237.428 245.82 237.428 247.2C237.428 250.935 243.128 249.465 243.128 252.15C243.128 253.29 242.303 254.1 240.728 254.1C239.753 254.1 239.033 253.8 238.568 253.455C238.298 253.275 238.073 253.065 237.878 252.81L237.203 253.575ZM246.885 253.95C247.785 251.175 252.36 250.65 252.36 247.425C252.36 245.7 251.025 244.35 248.985 244.35C247.62 244.35 246.84 244.95 246.36 245.55C246.09 245.895 245.895 246.3 245.76 246.75L246.735 247.2C246.825 246.855 246.96 246.555 247.155 246.3C247.5 245.835 248.025 245.4 248.985 245.4C250.425 245.4 251.235 246.225 251.235 247.425C251.235 250.44 245.61 250.575 245.61 255H252.36V253.95H246.885ZM258.372 255.15C260.532 255.15 262.557 253.125 262.557 249.75C262.557 246.375 260.517 244.35 258.357 244.35C256.197 244.35 254.157 246.375 254.157 249.75C254.157 253.125 256.182 255.15 258.372 255.15ZM258.372 254.1C256.782 254.1 255.282 252.6 255.282 249.75C255.282 246.9 256.797 245.4 258.357 245.4C259.917 245.4 261.432 246.9 261.432 249.75C261.432 252.6 259.917 254.1 258.372 254.1ZM268.567 255.15C270.727 255.15 272.752 253.125 272.752 249.75C272.752 246.375 270.712 244.35 268.552 244.35C266.392 244.35 264.352 246.375 264.352 249.75C264.352 253.125 266.377 255.15 268.567 255.15ZM268.567 254.1C266.977 254.1 265.477 252.6 265.477 249.75C265.477 246.9 266.992 245.4 268.552 245.4C270.112 245.4 271.627 246.9 271.627 249.75C271.627 252.6 270.112 254.1 268.567 254.1ZM278.762 255.15C280.922 255.15 282.947 253.125 282.947 249.75C282.947 246.375 280.907 244.35 278.747 244.35C276.587 244.35 274.547 246.375 274.547 249.75C274.547 253.125 276.572 255.15 278.762 255.15ZM278.762 254.1C277.172 254.1 275.672 252.6 275.672 249.75C275.672 246.9 277.187 245.4 278.747 245.4C280.307 245.4 281.822 246.9 281.822 249.75C281.822 252.6 280.307 254.1 278.762 254.1Z" fill="black"/>
<path d="M180.675 293.575C180.87 293.845 181.125 294.085 181.425 294.295C181.95 294.67 182.685 295.03 183.75 295.135V296.65H184.8V295.12C186.675 294.895 187.725 293.725 187.725 292.15C187.725 288.415 182.025 289.9 182.025 287.2C182.025 286.255 182.835 285.4 184.275 285.4C185.055 285.4 185.61 285.67 186.015 285.925C186.24 286.09 186.435 286.255 186.6 286.45L187.35 285.7C187.185 285.49 186.96 285.295 186.705 285.115C186.27 284.815 185.64 284.485 184.8 284.38V282.85H183.75V284.38C181.965 284.575 180.9 285.82 180.9 287.2C180.9 290.935 186.6 289.465 186.6 292.15C186.6 293.29 185.775 294.1 184.2 294.1C183.225 294.1 182.505 293.8 182.04 293.455C181.77 293.275 181.545 293.065 181.35 292.81L180.675 293.575ZM188.931 293.575C189.156 293.875 189.441 294.145 189.786 294.37C190.371 294.775 191.256 295.15 192.456 295.15C194.616 295.15 195.981 293.635 195.981 292.075C195.981 290.995 195.486 290.35 195.006 289.945C194.721 289.72 194.391 289.555 194.031 289.45C194.316 289.345 194.586 289.18 194.811 288.97C195.216 288.61 195.606 288.025 195.606 287.125C195.606 285.625 194.331 284.35 192.456 284.35C191.391 284.35 190.611 284.71 190.086 285.07C189.771 285.28 189.516 285.52 189.306 285.775L190.056 286.6C190.221 286.375 190.431 286.18 190.671 286C191.076 285.7 191.661 285.4 192.456 285.4C193.731 285.4 194.481 286.15 194.481 287.125C194.481 288.265 193.731 289 192.456 289H191.406V290.05H192.456C193.971 290.05 194.931 291.01 194.931 292.075C194.931 293.2 194.031 294.1 192.456 294.1C191.496 294.1 190.836 293.785 190.371 293.47C190.101 293.29 189.876 293.08 189.681 292.825L188.931 293.575ZM201.99 295.15C204.15 295.15 206.175 293.125 206.175 289.75C206.175 286.375 204.135 284.35 201.975 284.35C199.815 284.35 197.775 286.375 197.775 289.75C197.775 293.125 199.8 295.15 201.99 295.15ZM201.99 294.1C200.4 294.1 198.9 292.6 198.9 289.75C198.9 286.9 200.415 285.4 201.975 285.4C203.535 285.4 205.05 286.9 205.05 289.75C205.05 292.6 203.535 294.1 201.99 294.1ZM212.185 295.15C214.345 295.15 216.37 293.125 216.37 289.75C216.37 286.375 214.33 284.35 212.17 284.35C210.01 284.35 207.97 286.375 207.97 289.75C207.97 293.125 209.995 295.15 212.185 295.15ZM212.185 294.1C210.595 294.1 209.095 292.6 209.095 289.75C209.095 286.9 210.61 285.4 212.17 285.4C213.73 285.4 215.245 286.9 215.245 289.75C215.245 292.6 213.73 294.1 212.185 294.1ZM222.381 295.15C224.541 295.15 226.566 293.125 226.566 289.75C226.566 286.375 224.526 284.35 222.366 284.35C220.206 284.35 218.166 286.375 218.166 289.75C218.166 293.125 220.191 295.15 222.381 295.15ZM222.381 294.1C220.791 294.1 219.291 292.6 219.291 289.75C219.291 286.9 220.806 285.4 222.366 285.4C223.926 285.4 225.441 286.9 225.441 289.75C225.441 292.6 223.926 294.1 222.381 294.1ZM231.285 291.025H235.86V290.05H231.285V291.025ZM240.353 293.575C240.548 293.845 240.803 294.085 241.103 294.295C241.628 294.67 242.363 295.03 243.428 295.135V296.65H244.478V295.12C246.353 294.895 247.403 293.725 247.403 292.15C247.403 288.415 241.703 289.9 241.703 287.2C241.703 286.255 242.513 285.4 243.953 285.4C244.733 285.4 245.288 285.67 245.693 285.925C245.918 286.09 246.113 286.255 246.278 286.45L247.028 285.7C246.863 285.49 246.638 285.295 246.383 285.115C245.948 284.815 245.318 284.485 244.478 284.38V282.85H243.428V284.38C241.643 284.575 240.578 285.82 240.578 287.2C240.578 290.935 246.278 289.465 246.278 292.15C246.278 293.29 245.453 294.1 243.878 294.1C242.903 294.1 242.183 293.8 241.718 293.455C241.448 293.275 241.223 293.065 241.028 292.81L240.353 293.575ZM249.284 293.575C249.524 293.875 249.809 294.145 250.139 294.37C250.724 294.775 251.549 295.15 252.734 295.15C254.909 295.15 256.334 293.725 256.334 291.7C256.334 289.735 254.849 288.25 252.809 288.25C252.164 288.25 251.669 288.385 251.324 288.55C251.129 288.64 250.949 288.745 250.784 288.85L251.009 285.55H255.659V284.5H250.034L249.659 290.425H250.484C250.634 290.23 250.829 290.035 251.054 289.87C251.429 289.585 252.014 289.3 252.809 289.3C254.249 289.3 255.209 290.26 255.209 291.7C255.209 293.14 254.234 294.1 252.734 294.1C251.834 294.1 251.174 293.785 250.709 293.47C250.454 293.29 250.229 293.08 250.034 292.825L249.284 293.575ZM262.356 295.15C264.516 295.15 266.541 293.125 266.541 289.75C266.541 286.375 264.501 284.35 262.341 284.35C260.181 284.35 258.141 286.375 258.141 289.75C258.141 293.125 260.166 295.15 262.356 295.15ZM262.356 294.1C260.766 294.1 259.266 292.6 259.266 289.75C259.266 286.9 260.781 285.4 262.341 285.4C263.901 285.4 265.416 286.9 265.416 289.75C265.416 292.6 263.901 294.1 262.356 294.1ZM272.552 295.15C274.712 295.15 276.737 293.125 276.737 289.75C276.737 286.375 274.697 284.35 272.537 284.35C270.377 284.35 268.337 286.375 268.337 289.75C268.337 293.125 270.362 295.15 272.552 295.15ZM272.552 294.1C270.962 294.1 269.462 292.6 269.462 289.75C269.462 286.9 270.977 285.4 272.537 285.4C274.097 285.4 275.612 286.9 275.612 289.75C275.612 292.6 274.097 294.1 272.552 294.1ZM282.747 295.15C284.907 295.15 286.932 293.125 286.932 289.75C286.932 286.375 284.892 284.35 282.732 284.35C280.572 284.35 278.532 286.375 278.532 289.75C278.532 293.125 280.557 295.15 282.747 295.15ZM282.747 294.1C281.157 294.1 279.657 292.6 279.657 289.75C279.657 286.9 281.172 285.4 282.732 285.4C284.292 285.4 285.807 286.9 285.807 289.75C285.807 292.6 284.292 294.1 282.747 294.1Z" fill="black"/>
<path d="M228.454 103.148L248.453 103.369" stroke="black"/>
<path d="M256.285 104.135H257.469V105.02H256.285V107H255.195V105.02H251.311V104.381L255.131 98.4688H256.285V104.135ZM252.541 104.135H255.195V99.9512L255.066 100.186L252.541 104.135ZM262.602 103.25C262.375 103.52 262.104 103.736 261.787 103.9C261.475 104.064 261.131 104.146 260.756 104.146C260.264 104.146 259.834 104.025 259.467 103.783C259.104 103.541 258.822 103.201 258.623 102.764C258.424 102.322 258.324 101.836 258.324 101.305C258.324 100.734 258.432 100.221 258.646 99.7637C258.865 99.3066 259.174 98.957 259.572 98.7148C259.971 98.4727 260.436 98.3516 260.967 98.3516C261.811 98.3516 262.475 98.668 262.959 99.3008C263.447 99.9297 263.691 100.789 263.691 101.879V102.195C263.691 103.855 263.363 105.068 262.707 105.834C262.051 106.596 261.061 106.986 259.736 107.006H259.525V106.092H259.754C260.648 106.076 261.336 105.844 261.816 105.395C262.297 104.941 262.559 104.227 262.602 103.25ZM260.932 103.25C261.295 103.25 261.629 103.139 261.934 102.916C262.242 102.693 262.467 102.418 262.607 102.09V101.656C262.607 100.945 262.453 100.367 262.145 99.9219C261.836 99.4766 261.445 99.2539 260.973 99.2539C260.496 99.2539 260.113 99.4375 259.824 99.8047C259.535 100.168 259.391 100.648 259.391 101.246C259.391 101.828 259.529 102.309 259.807 102.688C260.088 103.062 260.463 103.25 260.932 103.25ZM265.32 106.432C265.32 106.244 265.375 106.088 265.484 105.963C265.598 105.838 265.766 105.775 265.988 105.775C266.211 105.775 266.379 105.838 266.492 105.963C266.609 106.088 266.668 106.244 266.668 106.432C266.668 106.611 266.609 106.762 266.492 106.883C266.379 107.004 266.211 107.064 265.988 107.064C265.766 107.064 265.598 107.004 265.484 106.883C265.375 106.762 265.32 106.611 265.32 106.432ZM271.912 107H270.822V99.7754L268.637 100.578V99.5938L271.742 98.4277H271.912V107ZM274.994 100.109C274.994 99.5977 275.156 99.1758 275.48 98.8438C275.809 98.5117 276.229 98.3457 276.74 98.3457C277.26 98.3457 277.68 98.5137 278 98.8496C278.324 99.1816 278.486 99.6133 278.486 100.145V100.561C278.486 101.076 278.322 101.498 277.994 101.826C277.67 102.15 277.256 102.312 276.752 102.312C276.244 102.312 275.824 102.15 275.492 101.826C275.16 101.498 274.994 101.062 274.994 100.52V100.109ZM275.803 100.561C275.803 100.865 275.889 101.117 276.061 101.316C276.232 101.512 276.463 101.609 276.752 101.609C277.029 101.609 277.252 101.514 277.42 101.322C277.592 101.131 277.678 100.869 277.678 100.537V100.109C277.678 99.8047 277.594 99.5527 277.426 99.3535C277.258 99.1543 277.029 99.0547 276.74 99.0547C276.451 99.0547 276.223 99.1543 276.055 99.3535C275.887 99.5527 275.803 99.8125 275.803 100.133V100.561ZM279.148 104.908C279.148 104.396 279.311 103.977 279.635 103.648C279.963 103.316 280.383 103.15 280.895 103.15C281.406 103.15 281.826 103.314 282.154 103.643C282.482 103.971 282.646 104.406 282.646 104.949V105.365C282.646 105.877 282.482 106.299 282.154 106.631C281.83 106.959 281.414 107.123 280.906 107.123C280.398 107.123 279.979 106.961 279.646 106.637C279.314 106.309 279.148 105.873 279.148 105.33V104.908ZM279.957 105.365C279.957 105.674 280.043 105.928 280.215 106.127C280.387 106.322 280.617 106.42 280.906 106.42C281.188 106.42 281.412 106.324 281.58 106.133C281.748 105.938 281.832 105.674 281.832 105.342V104.908C281.832 104.6 281.746 104.348 281.574 104.152C281.406 103.957 281.18 103.859 280.895 103.859C280.617 103.859 280.391 103.957 280.215 104.152C280.043 104.344 279.957 104.604 279.957 104.932V105.365ZM276.998 106.355L276.383 105.969L280.549 99.3008L281.164 99.6875L276.998 106.355Z" fill="black"/>
<path d="M86.0001 12.9914L97.9833 29.004" stroke="black"/>
<path d="M34 114.136L53.9985 114.377" stroke="black"/>
<path d="M74.2715 11H73.1816V3.77539L70.9961 4.57812V3.59375L74.1016 2.42773H74.2715V11ZM79.0234 6.20703H79.8379C80.3496 6.19922 80.752 6.06445 81.0449 5.80273C81.3379 5.54102 81.4844 5.1875 81.4844 4.74219C81.4844 3.74219 80.9863 3.24219 79.9902 3.24219C79.5215 3.24219 79.1465 3.37695 78.8652 3.64648C78.5879 3.91211 78.4492 4.26562 78.4492 4.70703H77.3652C77.3652 4.03125 77.6113 3.4707 78.1035 3.02539C78.5996 2.57617 79.2285 2.35156 79.9902 2.35156C80.7949 2.35156 81.4258 2.56445 81.8828 2.99023C82.3398 3.41602 82.5684 4.00781 82.5684 4.76562C82.5684 5.13672 82.4473 5.49609 82.2051 5.84375C81.9668 6.19141 81.6406 6.45117 81.2266 6.62305C81.6953 6.77148 82.0566 7.01758 82.3105 7.36133C82.5684 7.70508 82.6973 8.125 82.6973 8.62109C82.6973 9.38672 82.4473 9.99414 81.9473 10.4434C81.4473 10.8926 80.7969 11.1172 79.9961 11.1172C79.1953 11.1172 78.543 10.9004 78.0391 10.4668C77.5391 10.0332 77.2891 9.46094 77.2891 8.75H78.3789C78.3789 9.19922 78.5254 9.55859 78.8184 9.82812C79.1113 10.0977 79.5039 10.2324 79.9961 10.2324C80.5195 10.2324 80.9199 10.0957 81.1973 9.82227C81.4746 9.54883 81.6133 9.15625 81.6133 8.64453C81.6133 8.14844 81.4609 7.76758 81.1562 7.50195C80.8516 7.23633 80.4121 7.09961 79.8379 7.0918H79.0234V6.20703ZM84.3203 10.4316C84.3203 10.2441 84.375 10.0879 84.4844 9.96289C84.5977 9.83789 84.7656 9.77539 84.9883 9.77539C85.2109 9.77539 85.3789 9.83789 85.4922 9.96289C85.6094 10.0879 85.668 10.2441 85.668 10.4316C85.668 10.6113 85.6094 10.7617 85.4922 10.8828C85.3789 11.0039 85.2109 11.0645 84.9883 11.0645C84.7656 11.0645 84.5977 11.0039 84.4844 10.8828C84.375 10.7617 84.3203 10.6113 84.3203 10.4316ZM92.5234 4.69531C92.5234 5.12109 92.4102 5.5 92.1836 5.83203C91.9609 6.16406 91.6582 6.42383 91.2754 6.61133C91.7207 6.80273 92.0723 7.08203 92.3301 7.44922C92.5918 7.81641 92.7227 8.23242 92.7227 8.69727C92.7227 9.43555 92.4727 10.0234 91.9727 10.4609C91.4766 10.8984 90.8223 11.1172 90.0098 11.1172C89.1895 11.1172 88.5312 10.8984 88.0352 10.4609C87.543 10.0195 87.2969 9.43164 87.2969 8.69727C87.2969 8.23633 87.4219 7.82031 87.6719 7.44922C87.9258 7.07812 88.2754 6.79688 88.7207 6.60547C88.3418 6.41797 88.043 6.1582 87.8242 5.82617C87.6055 5.49414 87.4961 5.11719 87.4961 4.69531C87.4961 3.97656 87.7266 3.40625 88.1875 2.98438C88.6484 2.5625 89.2559 2.35156 90.0098 2.35156C90.7598 2.35156 91.3652 2.5625 91.8262 2.98438C92.291 3.40625 92.5234 3.97656 92.5234 4.69531ZM91.6387 8.67383C91.6387 8.19727 91.4863 7.80859 91.1816 7.50781C90.8809 7.20703 90.4863 7.05664 89.998 7.05664C89.5098 7.05664 89.1172 7.20508 88.8203 7.50195C88.5273 7.79883 88.3809 8.18945 88.3809 8.67383C88.3809 9.1582 88.5234 9.53906 88.8086 9.81641C89.0977 10.0938 89.498 10.2324 90.0098 10.2324C90.5176 10.2324 90.916 10.0938 91.2051 9.81641C91.4941 9.53516 91.6387 9.1543 91.6387 8.67383ZM90.0098 3.24219C89.584 3.24219 89.2383 3.375 88.9727 3.64062C88.7109 3.90234 88.5801 4.25977 88.5801 4.71289C88.5801 5.14648 88.709 5.49805 88.9668 5.76758C89.2285 6.0332 89.5762 6.16602 90.0098 6.16602C90.4434 6.16602 90.7891 6.0332 91.0469 5.76758C91.3086 5.49805 91.4395 5.14648 91.4395 4.71289C91.4395 4.2793 91.3047 3.92578 91.0352 3.65234C90.7656 3.37891 90.4238 3.24219 90.0098 3.24219ZM93.9941 4.10938C93.9941 3.59766 94.1562 3.17578 94.4805 2.84375C94.8086 2.51172 95.2285 2.3457 95.7402 2.3457C96.2598 2.3457 96.6797 2.51367 97 2.84961C97.3242 3.18164 97.4863 3.61328 97.4863 4.14453V4.56055C97.4863 5.07617 97.3223 5.49805 96.9941 5.82617C96.6699 6.15039 96.2559 6.3125 95.752 6.3125C95.2441 6.3125 94.8242 6.15039 94.4922 5.82617C94.1602 5.49805 93.9941 5.0625 93.9941 4.51953V4.10938ZM94.8027 4.56055C94.8027 4.86523 94.8887 5.11719 95.0605 5.31641C95.2324 5.51172 95.4629 5.60938 95.752 5.60938C96.0293 5.60938 96.252 5.51367 96.4199 5.32227C96.5918 5.13086 96.6777 4.86914 96.6777 4.53711V4.10938C96.6777 3.80469 96.5938 3.55273 96.4258 3.35352C96.2578 3.1543 96.0293 3.05469 95.7402 3.05469C95.4512 3.05469 95.2227 3.1543 95.0547 3.35352C94.8867 3.55273 94.8027 3.8125 94.8027 4.13281V4.56055ZM98.1484 8.9082C98.1484 8.39648 98.3105 7.97656 98.6348 7.64844C98.9629 7.31641 99.3828 7.15039 99.8945 7.15039C100.406 7.15039 100.826 7.31445 101.154 7.64258C101.482 7.9707 101.646 8.40625 101.646 8.94922V9.36523C101.646 9.87695 101.482 10.2988 101.154 10.6309C100.83 10.959 100.414 11.123 99.9062 11.123C99.3984 11.123 98.9785 10.9609 98.6465 10.6367C98.3145 10.3086 98.1484 9.87305 98.1484 9.33008V8.9082ZM98.957 9.36523C98.957 9.67383 99.043 9.92773 99.2148 10.127C99.3867 10.3223 99.6172 10.4199 99.9062 10.4199C100.188 10.4199 100.412 10.3242 100.58 10.1328C100.748 9.9375 100.832 9.67383 100.832 9.3418V8.9082C100.832 8.59961 100.746 8.34766 100.574 8.15234C100.406 7.95703 100.18 7.85938 99.8945 7.85938C99.6172 7.85938 99.3906 7.95703 99.2148 8.15234C99.043 8.34375 98.957 8.60352 98.957 8.93164V9.36523ZM95.998 10.3555L95.3828 9.96875L99.5488 3.30078L100.164 3.6875L95.998 10.3555Z" fill="black"/>
<path d="M6.29883 118H0.708984V117.221L3.66211 113.939C4.09961 113.443 4.40039 113.041 4.56445 112.732C4.73242 112.42 4.81641 112.098 4.81641 111.766C4.81641 111.32 4.68164 110.955 4.41211 110.67C4.14258 110.385 3.7832 110.242 3.33398 110.242C2.79492 110.242 2.375 110.396 2.07422 110.705C1.77734 111.01 1.62891 111.436 1.62891 111.982H0.544922C0.544922 111.197 0.796875 110.562 1.30078 110.078C1.80859 109.594 2.48633 109.352 3.33398 109.352C4.12695 109.352 4.75391 109.561 5.21484 109.979C5.67578 110.393 5.90625 110.945 5.90625 111.637C5.90625 112.477 5.37109 113.477 4.30078 114.637L2.01562 117.115H6.29883V118ZM7.94531 113.723L8.37891 109.469H12.75V110.471H9.29883L9.04102 112.797C9.45898 112.551 9.93359 112.428 10.4648 112.428C11.2422 112.428 11.8594 112.686 12.3164 113.201C12.7734 113.713 13.002 114.406 13.002 115.281C13.002 116.16 12.7637 116.854 12.2871 117.361C11.8145 117.865 11.1523 118.117 10.3008 118.117C9.54688 118.117 8.93164 117.908 8.45508 117.49C7.97852 117.072 7.70703 116.494 7.64062 115.756H8.66602C8.73242 116.244 8.90625 116.613 9.1875 116.863C9.46875 117.109 9.83984 117.232 10.3008 117.232C10.8047 117.232 11.1992 117.061 11.4844 116.717C11.7734 116.373 11.918 115.898 11.918 115.293C11.918 114.723 11.7617 114.266 11.4492 113.922C11.1406 113.574 10.7285 113.4 10.2129 113.4C9.74023 113.4 9.36914 113.504 9.09961 113.711L8.8125 113.945L7.94531 113.723ZM14.3203 117.432C14.3203 117.244 14.375 117.088 14.4844 116.963C14.5977 116.838 14.7656 116.775 14.9883 116.775C15.2109 116.775 15.3789 116.838 15.4922 116.963C15.6094 117.088 15.668 117.244 15.668 117.432C15.668 117.611 15.6094 117.762 15.4922 117.883C15.3789 118.004 15.2109 118.064 14.9883 118.064C14.7656 118.064 14.5977 118.004 14.4844 117.883C14.375 117.762 14.3203 117.611 14.3203 117.432ZM18.9258 113.207H19.7402C20.252 113.199 20.6543 113.064 20.9473 112.803C21.2402 112.541 21.3867 112.188 21.3867 111.742C21.3867 110.742 20.8887 110.242 19.8926 110.242C19.4238 110.242 19.0488 110.377 18.7676 110.646C18.4902 110.912 18.3516 111.266 18.3516 111.707H17.2676C17.2676 111.031 17.5137 110.471 18.0059 110.025C18.502 109.576 19.1309 109.352 19.8926 109.352C20.6973 109.352 21.3281 109.564 21.7852 109.99C22.2422 110.416 22.4707 111.008 22.4707 111.766C22.4707 112.137 22.3496 112.496 22.1074 112.844C21.8691 113.191 21.543 113.451 21.1289 113.623C21.5977 113.771 21.959 114.018 22.2129 114.361C22.4707 114.705 22.5996 115.125 22.5996 115.621C22.5996 116.387 22.3496 116.994 21.8496 117.443C21.3496 117.893 20.6992 118.117 19.8984 118.117C19.0977 118.117 18.4453 117.9 17.9414 117.467C17.4414 117.033 17.1914 116.461 17.1914 115.75H18.2812C18.2812 116.199 18.4277 116.559 18.7207 116.828C19.0137 117.098 19.4062 117.232 19.8984 117.232C20.4219 117.232 20.8223 117.096 21.0996 116.822C21.377 116.549 21.5156 116.156 21.5156 115.645C21.5156 115.148 21.3633 114.768 21.0586 114.502C20.7539 114.236 20.3145 114.1 19.7402 114.092H18.9258V113.207ZM23.9941 111.109C23.9941 110.598 24.1562 110.176 24.4805 109.844C24.8086 109.512 25.2285 109.346 25.7402 109.346C26.2598 109.346 26.6797 109.514 27 109.85C27.3242 110.182 27.4863 110.613 27.4863 111.145V111.561C27.4863 112.076 27.3223 112.498 26.9941 112.826C26.6699 113.15 26.2559 113.312 25.752 113.312C25.2441 113.312 24.8242 113.15 24.4922 112.826C24.1602 112.498 23.9941 112.062 23.9941 111.52V111.109ZM24.8027 111.561C24.8027 111.865 24.8887 112.117 25.0605 112.316C25.2324 112.512 25.4629 112.609 25.752 112.609C26.0293 112.609 26.252 112.514 26.4199 112.322C26.5918 112.131 26.6777 111.869 26.6777 111.537V111.109C26.6777 110.805 26.5938 110.553 26.4258 110.354C26.2578 110.154 26.0293 110.055 25.7402 110.055C25.4512 110.055 25.2227 110.154 25.0547 110.354C24.8867 110.553 24.8027 110.812 24.8027 111.133V111.561ZM28.1484 115.908C28.1484 115.396 28.3105 114.977 28.6348 114.648C28.9629 114.316 29.3828 114.15 29.8945 114.15C30.4062 114.15 30.8262 114.314 31.1543 114.643C31.4824 114.971 31.6465 115.406 31.6465 115.949V116.365C31.6465 116.877 31.4824 117.299 31.1543 117.631C30.8301 117.959 30.4141 118.123 29.9062 118.123C29.3984 118.123 28.9785 117.961 28.6465 117.637C28.3145 117.309 28.1484 116.873 28.1484 116.33V115.908ZM28.957 116.365C28.957 116.674 29.043 116.928 29.2148 117.127C29.3867 117.322 29.6172 117.42 29.9062 117.42C30.1875 117.42 30.4121 117.324 30.5801 117.133C30.748 116.938 30.832 116.674 30.832 116.342V115.908C30.832 115.6 30.7461 115.348 30.5742 115.152C30.4062 114.957 30.1797 114.859 29.8945 114.859C29.6172 114.859 29.3906 114.957 29.2148 115.152C29.043 115.344 28.957 115.604 28.957 115.932V116.365ZM25.998 117.355L25.3828 116.969L29.5488 110.301L30.1641 110.688L25.998 117.355Z" fill="black"/>
<path d="M103.327 183.948L94.8252 202.051" stroke="black"/>
<path d="M84.2715 212H83.1816V204.775L80.9961 205.578V204.594L84.1016 203.428H84.2715V212ZM91.0098 212H89.9199V204.775L87.7344 205.578V204.594L90.8398 203.428H91.0098V212ZM94.3203 211.432C94.3203 211.244 94.375 211.088 94.4844 210.963C94.5977 210.838 94.7656 210.775 94.9883 210.775C95.2109 210.775 95.3789 210.838 95.4922 210.963C95.6094 211.088 95.668 211.244 95.668 211.432C95.668 211.611 95.6094 211.762 95.4922 211.883C95.3789 212.004 95.2109 212.064 94.9883 212.064C94.7656 212.064 94.5977 212.004 94.4844 211.883C94.375 211.762 94.3203 211.611 94.3203 211.432ZM102.523 205.695C102.523 206.121 102.41 206.5 102.184 206.832C101.961 207.164 101.658 207.424 101.275 207.611C101.721 207.803 102.072 208.082 102.33 208.449C102.592 208.816 102.723 209.232 102.723 209.697C102.723 210.436 102.473 211.023 101.973 211.461C101.477 211.898 100.822 212.117 100.01 212.117C99.1895 212.117 98.5312 211.898 98.0352 211.461C97.543 211.02 97.2969 210.432 97.2969 209.697C97.2969 209.236 97.4219 208.82 97.6719 208.449C97.9258 208.078 98.2754 207.797 98.7207 207.605C98.3418 207.418 98.043 207.158 97.8242 206.826C97.6055 206.494 97.4961 206.117 97.4961 205.695C97.4961 204.977 97.7266 204.406 98.1875 203.984C98.6484 203.562 99.2559 203.352 100.01 203.352C100.76 203.352 101.365 203.562 101.826 203.984C102.291 204.406 102.523 204.977 102.523 205.695ZM101.639 209.674C101.639 209.197 101.486 208.809 101.182 208.508C100.881 208.207 100.486 208.057 99.998 208.057C99.5098 208.057 99.1172 208.205 98.8203 208.502C98.5273 208.799 98.3809 209.189 98.3809 209.674C98.3809 210.158 98.5234 210.539 98.8086 210.816C99.0977 211.094 99.498 211.232 100.01 211.232C100.518 211.232 100.916 211.094 101.205 210.816C101.494 210.535 101.639 210.154 101.639 209.674ZM100.01 204.242C99.584 204.242 99.2383 204.375 98.9727 204.641C98.7109 204.902 98.5801 205.26 98.5801 205.713C98.5801 206.146 98.709 206.498 98.9668 206.768C99.2285 207.033 99.5762 207.166 100.01 207.166C100.443 207.166 100.789 207.033 101.047 206.768C101.309 206.498 101.439 206.146 101.439 205.713C101.439 205.279 101.305 204.926 101.035 204.652C100.766 204.379 100.424 204.242 100.01 204.242ZM103.994 205.109C103.994 204.598 104.156 204.176 104.48 203.844C104.809 203.512 105.229 203.346 105.74 203.346C106.26 203.346 106.68 203.514 107 203.85C107.324 204.182 107.486 204.613 107.486 205.145V205.561C107.486 206.076 107.322 206.498 106.994 206.826C106.67 207.15 106.256 207.312 105.752 207.312C105.244 207.312 104.824 207.15 104.492 206.826C104.16 206.498 103.994 206.062 103.994 205.52V205.109ZM104.803 205.561C104.803 205.865 104.889 206.117 105.061 206.316C105.232 206.512 105.463 206.609 105.752 206.609C106.029 206.609 106.252 206.514 106.42 206.322C106.592 206.131 106.678 205.869 106.678 205.537V205.109C106.678 204.805 106.594 204.553 106.426 204.354C106.258 204.154 106.029 204.055 105.74 204.055C105.451 204.055 105.223 204.154 105.055 204.354C104.887 204.553 104.803 204.812 104.803 205.133V205.561ZM108.148 209.908C108.148 209.396 108.311 208.977 108.635 208.648C108.963 208.316 109.383 208.15 109.895 208.15C110.406 208.15 110.826 208.314 111.154 208.643C111.482 208.971 111.646 209.406 111.646 209.949V210.365C111.646 210.877 111.482 211.299 111.154 211.631C110.83 211.959 110.414 212.123 109.906 212.123C109.398 212.123 108.979 211.961 108.646 211.637C108.314 211.309 108.148 210.873 108.148 210.33V209.908ZM108.957 210.365C108.957 210.674 109.043 210.928 109.215 211.127C109.387 211.322 109.617 211.42 109.906 211.42C110.188 211.42 110.412 211.324 110.58 211.133C110.748 210.938 110.832 210.674 110.832 210.342V209.908C110.832 209.6 110.746 209.348 110.574 209.152C110.406 208.957 110.18 208.859 109.895 208.859C109.617 208.859 109.391 208.957 109.215 209.152C109.043 209.344 108.957 209.604 108.957 209.932V210.365ZM105.998 211.355L105.383 210.969L109.549 204.301L110.164 204.688L105.998 211.355Z" fill="black"/>
<path d="M52 106.5C52 155.377 91.6228 195 140.5 195C189.377 195 229 155.377 229 106.5C229 57.6228 189.377 18 140.5 18C91.6228 18 52 57.6228 52 106.5ZM181.446 106.5C181.446 129.114 163.114 147.446 140.5 147.446C117.886 147.446 99.5545 129.114 99.5545 106.5C99.5545 83.8864 117.886 65.5545 140.5 65.5545C163.114 65.5545 181.446 83.8864 181.446 106.5Z" fill="black"/>
<path d="M77.9211 169.079C86.139 177.297 95.8952 183.816 106.633 188.263C117.37 192.711 128.878 195 140.5 195L140.5 147.449C135.123 147.449 129.798 146.39 124.83 144.332C119.861 142.274 115.347 139.258 111.545 135.455L77.9211 169.079Z" fill="#FDC913"/>
<path d="M58.0104 74.4421C64.4621 57.8407 75.7729 43.5724 90.4639 33.5025C105.155 23.4325 122.543 18.0296 140.353 18.0001L140.432 65.5545C132.192 65.5682 124.147 68.0679 117.35 72.7269C110.553 77.3858 105.32 83.9872 102.335 91.668L58.0104 74.4421Z" fill="#0062FF"/>
<path d="M77.9211 169.079C62.2694 153.427 53.0511 132.479 52.0844 110.365C51.1178 88.2513 58.4729 66.5782 72.6991 49.6205L109.131 80.184C102.549 88.0297 99.1463 98.057 99.5935 108.288C100.041 118.519 104.306 128.211 111.547 135.453L77.9211 169.079Z" fill="#70EC75"/>
<circle cx="9.5" cy="249.5" r="5.5" fill="black"/>
<circle cx="9.5" cy="289.5" r="5.5" fill="#FDC913"/>
<circle cx="165.5" cy="249.5" r="5.5" fill="#70EC75"/>
<circle cx="165.5" cy="289.5" r="5.5" fill="#0062FF"/>
</svg>
