<svg width="455" height="236" viewBox="0 0 455 236" fill="none" xmlns="http://www.w3.org/2000/svg">
<path d="M1.575 28H2.7V17.5H1.575V28ZM5.47734 28H6.52734V24.025C6.52734 22.585 7.50234 21.625 8.77734 21.625C9.91734 21.625 10.7273 22.45 10.7273 23.725V28H11.7773V23.725C11.7773 21.85 10.5773 20.65 8.85234 20.65C8.05734 20.65 7.50234 20.95 7.09734 21.25C6.87234 21.43 6.67734 21.625 6.52734 21.85V20.8H5.47734V28ZM15.982 28H17.032L19.957 20.8H18.832L16.507 26.575L14.182 20.8H13.057L15.982 28ZM26.7855 25.975C26.6205 26.2 26.4105 26.395 26.1855 26.575C25.7805 26.875 25.2255 27.175 24.4605 27.175C23.0955 27.175 21.9855 26.05 21.9105 24.775L27.7605 24.79L27.7905 24.64C27.8055 24.535 27.8355 24.415 27.8355 24.25C27.8355 22.15 26.3505 20.65 24.3855 20.65C22.5105 20.65 20.8605 22.3 20.8605 24.4C20.8605 26.5 22.4955 28.15 24.4605 28.15C25.4355 28.15 26.1705 27.775 26.6955 27.4C26.9955 27.175 27.2505 26.935 27.4605 26.65L26.7855 25.975ZM21.9105 23.875C22.0755 22.675 23.0955 21.625 24.3855 21.625C25.6605 21.625 26.6205 22.6 26.7855 23.875H21.9105ZM29.0309 26.875C29.1959 27.13 29.4059 27.34 29.6609 27.52C30.0959 27.835 30.7559 28.15 31.6559 28.15C33.2909 28.15 34.2809 27.175 34.2809 25.975C34.2809 23.425 30.3809 24.25 30.3809 22.675C30.3809 22.15 30.9059 21.625 31.7309 21.625C32.2559 21.625 32.6309 21.82 32.9159 22C33.0659 22.105 33.2009 22.24 33.3059 22.375L34.0559 21.625C33.8909 21.445 33.6809 21.28 33.4559 21.145C33.0509 20.905 32.4959 20.65 31.7309 20.65C30.2909 20.65 29.3309 21.64 29.3309 22.675C29.3309 25.15 33.2309 24.325 33.2309 25.975C33.2309 26.65 32.7209 27.175 31.6559 27.175C31.0559 27.175 30.5759 26.935 30.2609 26.65C30.0809 26.5 29.9159 26.32 29.7809 26.125L29.0309 26.875ZM36.7512 26.05C36.7512 27.415 37.4862 28.15 38.7312 28.15C39.0162 28.15 39.2712 28.105 39.4512 28.045C39.5562 28 39.6612 27.97 39.7512 27.925V26.95C39.6762 26.995 39.5712 27.025 39.4662 27.07C39.2862 27.13 39.0312 27.175 38.7762 27.175C38.1762 27.175 37.8012 26.815 37.8012 26.05V21.775H39.3762V20.8H37.8012V18.4H36.8262V20.05C36.8262 20.545 36.6312 20.8 36.2262 20.8H35.4012V21.775H36.7512V26.05ZM1.575 46H5.85C7.8 46 9.075 44.725 9.075 43C9.075 42.025 8.64 41.38 8.205 40.96C7.95 40.72 7.665 40.525 7.35 40.375C7.575 40.27 7.77 40.105 7.95 39.91C8.25 39.565 8.55 39.04 8.55 38.2C8.55 36.7 7.35 35.5 5.625 35.5H1.575V46ZM2.7 39.91V36.55H5.625C6.765 36.55 7.425 37.225 7.425 38.2C7.425 39.265 6.765 39.91 5.625 39.91H2.7ZM2.7 44.95V40.9H5.85C7.125 40.9 7.95 41.875 7.95 43C7.95 44.14 7.125 44.95 5.85 44.95H2.7ZM15.5256 46H16.5756V41.425C16.5756 39.85 15.3756 38.65 13.7256 38.65C12.8406 38.65 12.1956 38.98 11.7306 39.325C11.4606 39.52 11.2206 39.745 11.0256 40L11.7006 40.675C11.8656 40.48 12.0456 40.315 12.2406 40.15C12.5856 39.895 13.0806 39.625 13.7256 39.625C14.7906 39.625 15.5256 40.36 15.5256 41.425L12.7506 41.875C11.3856 42.1 10.6506 42.85 10.6506 44.05C10.6506 45.1 11.7006 46.15 13.2006 46.15C13.9806 46.15 14.5506 45.88 14.9556 45.595C15.1806 45.43 15.3756 45.235 15.5256 45.025V46ZM15.5256 42.775C15.5256 44.215 14.5656 45.175 13.2006 45.175C12.2256 45.175 11.7006 44.65 11.7006 44.05C11.7006 43.375 12.1506 42.94 13.0506 42.775L15.5256 42.325V42.775ZM18.9686 46H20.0186V42.025C20.0186 40.525 20.9336 39.625 21.9686 39.625C23.0336 39.625 23.7686 40.36 23.7686 41.725V46H24.8186V42.025C24.8186 40.525 25.7336 39.625 26.7686 39.625C27.8336 39.625 28.5686 40.345 28.5686 41.725V46H29.6186V41.725C29.6186 39.715 28.4186 38.65 26.8436 38.65C25.9436 38.65 25.3286 38.98 24.9236 39.295C24.6986 39.475 24.5036 39.685 24.3686 39.925C24.2336 39.685 24.0686 39.475 23.8586 39.295C23.4986 38.98 22.8986 38.65 22.0436 38.65C21.3236 38.65 20.8436 38.92 20.4986 39.175C20.3036 39.34 20.1536 39.505 20.0186 39.7V38.8H18.9686V46ZM32.0953 46H33.1453V44.95C33.3103 45.175 33.5053 45.37 33.7603 45.55C34.1653 45.85 34.7803 46.15 35.6203 46.15C37.5703 46.15 39.1453 44.575 39.1453 42.4C39.1453 40.225 37.5703 38.65 35.6203 38.65C34.7803 38.65 34.1653 38.95 33.7603 39.25C33.5053 39.43 33.3103 39.625 33.1453 39.85V35.5H32.0953V46ZM35.6203 45.175C34.3603 45.175 33.1453 43.975 33.1453 42.4C33.1453 40.825 34.3603 39.625 35.6203 39.625C36.9853 39.625 38.0953 40.765 38.0953 42.4C38.0953 44.035 36.9853 45.175 35.6203 45.175ZM44.1645 46.15C46.1895 46.15 47.8395 44.5 47.8395 42.4C47.8395 40.3 46.1895 38.65 44.1645 38.65C42.1395 38.65 40.4895 40.3 40.4895 42.4C40.4895 44.5 42.1395 46.15 44.1645 46.15ZM44.1645 45.175C42.7395 45.175 41.5395 43.96 41.5395 42.4C41.5395 40.825 42.7395 39.625 44.1645 39.625C45.5895 39.625 46.7895 40.825 46.7895 42.4C46.7895 43.975 45.5895 45.175 44.1645 45.175ZM52.8656 46.15C54.8906 46.15 56.5406 44.5 56.5406 42.4C56.5406 40.3 54.8906 38.65 52.8656 38.65C50.8406 38.65 49.1906 40.3 49.1906 42.4C49.1906 44.5 50.8406 46.15 52.8656 46.15ZM52.8656 45.175C51.4406 45.175 50.2406 43.96 50.2406 42.4C50.2406 40.825 51.4406 39.625 52.8656 39.625C54.2906 39.625 55.4906 40.825 55.4906 42.4C55.4906 43.975 54.2906 45.175 52.8656 45.175Z" fill="black"/>
<path d="M1.575 80H2.7V75.8H5.7L8.025 80H9.3L6.825 75.65C7.23 75.515 7.59 75.305 7.905 75.05C8.445 74.585 9 73.85 9 72.65C9 70.85 7.65 69.5 5.775 69.5H1.575V80ZM2.7 74.75V70.55H5.775C7.05 70.55 7.875 71.375 7.875 72.65C7.875 73.925 7.05 74.75 5.775 74.75H2.7ZM11.1721 70.4C11.1721 70.775 11.4721 71.075 11.8471 71.075C12.2221 71.075 12.5221 70.775 12.5221 70.4C12.5221 70.025 12.2221 69.725 11.8471 69.725C11.4721 69.725 11.1721 70.025 11.1721 70.4ZM11.3221 80H12.3721V72.8H11.3221V80ZM14.1041 78.875C14.2691 79.13 14.4791 79.34 14.7341 79.52C15.1691 79.835 15.8291 80.15 16.7291 80.15C18.3641 80.15 19.3541 79.175 19.3541 77.975C19.3541 75.425 15.4541 76.25 15.4541 74.675C15.4541 74.15 15.9791 73.625 16.8041 73.625C17.3291 73.625 17.7041 73.82 17.9891 74C18.1391 74.105 18.2741 74.24 18.3791 74.375L19.1291 73.625C18.9641 73.445 18.7541 73.28 18.5291 73.145C18.1241 72.905 17.5691 72.65 16.8041 72.65C15.3641 72.65 14.4041 73.64 14.4041 74.675C14.4041 77.15 18.3041 76.325 18.3041 77.975C18.3041 78.65 17.7941 79.175 16.7291 79.175C16.1291 79.175 15.6491 78.935 15.3341 78.65C15.1541 78.5 14.9891 78.32 14.8541 78.125L14.1041 78.875ZM26.6244 77.975C26.4594 78.2 26.2494 78.395 26.0244 78.575C25.6194 78.875 25.0644 79.175 24.2994 79.175C22.9344 79.175 21.8244 78.05 21.7494 76.775L27.5994 76.79L27.6294 76.64C27.6444 76.535 27.6744 76.415 27.6744 76.25C27.6744 74.15 26.1894 72.65 24.2244 72.65C22.3494 72.65 20.6994 74.3 20.6994 76.4C20.6994 78.5 22.3344 80.15 24.2994 80.15C25.2744 80.15 26.0094 79.775 26.5344 79.4C26.8344 79.175 27.0894 78.935 27.2994 78.65L26.6244 77.975ZM21.7494 75.875C21.9144 74.675 22.9344 73.625 24.2244 73.625C25.4994 73.625 26.4594 74.6 26.6244 75.875H21.7494ZM32.9197 80H33.9697L38.0947 69.5H36.8947L33.4447 78.425L29.9947 69.5H28.7947L32.9197 80ZM44.2465 77.975C44.0815 78.2 43.8715 78.395 43.6465 78.575C43.2415 78.875 42.6865 79.175 41.9215 79.175C40.5565 79.175 39.4465 78.05 39.3715 76.775L45.2215 76.79L45.2515 76.64C45.2665 76.535 45.2965 76.415 45.2965 76.25C45.2965 74.15 43.8115 72.65 41.8465 72.65C39.9715 72.65 38.3215 74.3 38.3215 76.4C38.3215 78.5 39.9565 80.15 41.9215 80.15C42.8965 80.15 43.6315 79.775 44.1565 79.4C44.4565 79.175 44.7115 78.935 44.9215 78.65L44.2465 77.975ZM39.3715 75.875C39.5365 74.675 40.5565 73.625 41.8465 73.625C43.1215 73.625 44.0815 74.6 44.2465 75.875H39.3715ZM46.4918 78.875C46.6568 79.13 46.8668 79.34 47.1218 79.52C47.5568 79.835 48.2168 80.15 49.1168 80.15C50.7518 80.15 51.7418 79.175 51.7418 77.975C51.7418 75.425 47.8418 76.25 47.8418 74.675C47.8418 74.15 48.3668 73.625 49.1918 73.625C49.7168 73.625 50.0918 73.82 50.3768 74C50.5268 74.105 50.6618 74.24 50.7668 74.375L51.5168 73.625C51.3518 73.445 51.1418 73.28 50.9168 73.145C50.5118 72.905 49.9568 72.65 49.1918 72.65C47.7518 72.65 46.7918 73.64 46.7918 74.675C46.7918 77.15 50.6918 76.325 50.6918 77.975C50.6918 78.65 50.1818 79.175 49.1168 79.175C48.5168 79.175 48.0368 78.935 47.7218 78.65C47.5418 78.5 47.3768 78.32 47.2418 78.125L46.4918 78.875ZM54.2121 78.05C54.2121 79.415 54.9471 80.15 56.1921 80.15C56.4771 80.15 56.7321 80.105 56.9121 80.045C57.0171 80 57.1221 79.97 57.2121 79.925V78.95C57.1371 78.995 57.0321 79.025 56.9271 79.07C56.7471 79.13 56.4921 79.175 56.2371 79.175C55.6371 79.175 55.2621 78.815 55.2621 78.05V73.775H56.8371V72.8H55.2621V70.4H54.2871V72.05C54.2871 72.545 54.0921 72.8 53.6871 72.8H52.8621V73.775H54.2121V78.05Z" fill="black"/>
<path d="M365.45 37.575C365.675 37.875 365.96 38.145 366.305 38.37C366.89 38.775 367.775 39.15 368.975 39.15C371.135 39.15 372.5 37.635 372.5 36.075C372.5 34.995 372.005 34.35 371.525 33.945C371.24 33.72 370.91 33.555 370.55 33.45C370.835 33.345 371.105 33.18 371.33 32.97C371.735 32.61 372.125 32.025 372.125 31.125C372.125 29.625 370.85 28.35 368.975 28.35C367.91 28.35 367.13 28.71 366.605 29.07C366.29 29.28 366.035 29.52 365.825 29.775L366.575 30.6C366.74 30.375 366.95 30.18 367.19 30C367.595 29.7 368.18 29.4 368.975 29.4C370.25 29.4 371 30.15 371 31.125C371 32.265 370.25 33 368.975 33H367.925V34.05H368.975C370.49 34.05 371.45 35.01 371.45 36.075C371.45 37.2 370.55 38.1 368.975 38.1C368.015 38.1 367.355 37.785 366.89 37.47C366.62 37.29 366.395 37.08 366.2 36.825L365.45 37.575ZM378.509 39.15C380.669 39.15 382.694 37.125 382.694 33.75C382.694 30.375 380.654 28.35 378.494 28.35C376.334 28.35 374.294 30.375 374.294 33.75C374.294 37.125 376.319 39.15 378.509 39.15ZM378.509 38.1C376.919 38.1 375.419 36.6 375.419 33.75C375.419 30.9 376.934 29.4 378.494 29.4C380.054 29.4 381.569 30.9 381.569 33.75C381.569 36.6 380.054 38.1 378.509 38.1ZM385.464 37.95C386.364 35.175 390.939 34.65 390.939 31.425C390.939 29.7 389.604 28.35 387.564 28.35C386.199 28.35 385.419 28.95 384.939 29.55C384.669 29.895 384.474 30.3 384.339 30.75L385.314 31.2C385.404 30.855 385.539 30.555 385.734 30.3C386.079 29.835 386.604 29.4 387.564 29.4C389.004 29.4 389.814 30.225 389.814 31.425C389.814 34.44 384.189 34.575 384.189 39H390.939V37.95H385.464Z" fill="black"/>
<path d="M379.45 77.75H384.775V80H385.9V77.75H387.25V76.7H385.9V69.5H384.475L379.45 76.475V77.75ZM380.5 76.7L384.775 70.775V76.7H380.5ZM387.931 78.575C388.156 78.875 388.441 79.145 388.786 79.37C389.371 79.775 390.256 80.15 391.456 80.15C393.616 80.15 394.981 78.635 394.981 77.075C394.981 75.995 394.486 75.35 394.006 74.945C393.721 74.72 393.391 74.555 393.031 74.45C393.316 74.345 393.586 74.18 393.811 73.97C394.216 73.61 394.606 73.025 394.606 72.125C394.606 70.625 393.331 69.35 391.456 69.35C390.391 69.35 389.611 69.71 389.086 70.07C388.771 70.28 388.516 70.52 388.306 70.775L389.056 71.6C389.221 71.375 389.431 71.18 389.671 71C390.076 70.7 390.661 70.4 391.456 70.4C392.731 70.4 393.481 71.15 393.481 72.125C393.481 73.265 392.731 74 391.456 74H390.406V75.05H391.456C392.971 75.05 393.931 76.01 393.931 77.075C393.931 78.2 393.031 79.1 391.456 79.1C390.496 79.1 389.836 78.785 389.371 78.47C389.101 78.29 388.876 78.08 388.681 77.825L387.931 78.575ZM397.45 74.45C397.315 74.645 397.18 74.855 397.075 75.095C396.88 75.5 396.7 76.055 396.7 76.7C396.7 78.665 398.2 80.15 400.3 80.15C402.4 80.15 403.9 78.665 403.9 76.7C403.9 74.735 402.415 73.25 400.375 73.25C400.03 73.25 399.745 73.28 399.55 73.325L399.25 73.4L401.725 69.5H400.6L397.45 74.45ZM397.825 76.7C397.825 75.26 398.8 74.3 400.3 74.3C401.8 74.3 402.775 75.26 402.775 76.7C402.775 78.14 401.8 79.1 400.3 79.1C398.8 79.1 397.825 78.14 397.825 76.7Z" fill="black"/>
<path d="M244.55 123H245.675V112.5H244.85C244.745 112.755 244.595 112.995 244.4 113.19C244.055 113.535 243.5 113.88 242.6 113.925V114.6H244.55V123ZM250.244 123H251.369L254.519 118.05C254.654 117.855 254.789 117.645 254.894 117.405C255.074 117 255.269 116.445 255.269 115.8C255.269 113.835 253.769 112.35 251.669 112.35C249.569 112.35 248.069 113.835 248.069 115.8C248.069 117.765 249.554 119.25 251.594 119.25C251.924 119.25 252.194 119.22 252.419 119.175C252.524 119.16 252.629 119.13 252.719 119.1L250.244 123ZM249.194 115.8C249.194 114.36 250.169 113.4 251.669 113.4C253.169 113.4 254.144 114.36 254.144 115.8C254.144 117.24 253.169 118.2 251.669 118.2C250.169 118.2 249.194 117.24 249.194 115.8ZM256.992 119.925C256.992 121.65 258.477 123.15 260.517 123.15C262.557 123.15 264.042 121.65 264.042 119.925C264.042 118.95 263.607 118.305 263.142 117.885C262.887 117.645 262.587 117.45 262.242 117.3C262.497 117.165 262.722 117 262.917 116.805C263.262 116.46 263.592 115.92 263.592 115.125C263.592 113.7 262.242 112.35 260.517 112.35C258.792 112.35 257.442 113.7 257.442 115.125C257.442 115.92 257.772 116.46 258.117 116.805C258.312 117 258.537 117.165 258.792 117.3C258.447 117.45 258.147 117.645 257.892 117.885C257.427 118.305 256.992 118.95 256.992 119.925ZM258.567 115.125C258.567 114.15 259.317 113.4 260.517 113.4C261.717 113.4 262.467 114.15 262.467 115.125C262.467 116.1 261.717 116.85 260.517 116.85C259.317 116.85 258.567 116.1 258.567 115.125ZM258.117 119.925C258.117 118.8 259.167 117.75 260.517 117.75C261.867 117.75 262.917 118.8 262.917 119.925C262.917 121.05 262.017 122.1 260.517 122.1C259.017 122.1 258.117 121.05 258.117 119.925Z" fill="black"/>
<path d="M167.55 163H168.675V152.5H167.85C167.745 152.755 167.595 152.995 167.4 153.19C167.055 153.535 166.5 153.88 165.6 153.925V154.6H167.55V163ZM175.359 163.15C177.519 163.15 179.544 161.125 179.544 157.75C179.544 154.375 177.504 152.35 175.344 152.35C173.184 152.35 171.144 154.375 171.144 157.75C171.144 161.125 173.169 163.15 175.359 163.15ZM175.359 162.1C173.769 162.1 172.269 160.6 172.269 157.75C172.269 154.9 173.784 153.4 175.344 153.4C176.904 153.4 178.419 154.9 178.419 157.75C178.419 160.6 176.904 162.1 175.359 162.1ZM182.314 161.95C183.214 159.175 187.789 158.65 187.789 155.425C187.789 153.7 186.454 152.35 184.414 152.35C183.049 152.35 182.269 152.95 181.789 153.55C181.519 153.895 181.324 154.3 181.189 154.75L182.164 155.2C182.254 154.855 182.389 154.555 182.584 154.3C182.929 153.835 183.454 153.4 184.414 153.4C185.854 153.4 186.664 154.225 186.664 155.425C186.664 158.44 181.039 158.575 181.039 163H187.789V161.95H182.314Z" fill="black"/>
<path d="M110.45 203.575C110.675 203.875 110.96 204.145 111.305 204.37C111.89 204.775 112.775 205.15 113.975 205.15C116.135 205.15 117.5 203.635 117.5 202.075C117.5 200.995 117.005 200.35 116.525 199.945C116.24 199.72 115.91 199.555 115.55 199.45C115.835 199.345 116.105 199.18 116.33 198.97C116.735 198.61 117.125 198.025 117.125 197.125C117.125 195.625 115.85 194.35 113.975 194.35C112.91 194.35 112.13 194.71 111.605 195.07C111.29 195.28 111.035 195.52 110.825 195.775L111.575 196.6C111.74 196.375 111.95 196.18 112.19 196C112.595 195.7 113.18 195.4 113.975 195.4C115.25 195.4 116 196.15 116 197.125C116 198.265 115.25 199 113.975 199H112.925V200.05H113.975C115.49 200.05 116.45 201.01 116.45 202.075C116.45 203.2 115.55 204.1 113.975 204.1C113.015 204.1 112.355 203.785 111.89 203.47C111.62 203.29 111.395 203.08 111.2 202.825L110.45 203.575ZM118.844 202.75H124.169V205H125.294V202.75H126.644V201.7H125.294V194.5H123.869L118.844 201.475V202.75ZM119.894 201.7L124.169 195.775V201.7H119.894Z" fill="black"/>
<path d="M9.9 117.3C9.645 117.645 9.345 117.945 9 118.2C8.4 118.665 7.5 119.1 6.3 119.1C3.9 119.1 2.025 117.225 2.025 114.75C2.025 112.275 3.9 110.4 6.3 110.4C7.5 110.4 8.37 110.835 8.955 111.3C9.3 111.555 9.585 111.855 9.825 112.2L10.575 111.525C10.275 111.12 9.915 110.76 9.51 110.445C8.79 109.905 7.74 109.35 6.3 109.35C3.3 109.35 0.9 111.75 0.9 114.75C0.9 117.75 3.3 120.15 6.3 120.15C7.74 120.15 8.805 119.61 9.54 119.07C9.975 118.755 10.335 118.38 10.65 117.975L9.9 117.3ZM12.525 120H13.575V116.025C13.575 114.585 14.55 113.625 15.825 113.625C16.965 113.625 17.775 114.45 17.775 115.725V120H18.825V115.725C18.825 113.85 17.625 112.65 15.9 112.65C15.105 112.65 14.55 112.95 14.145 113.25C13.92 113.43 13.725 113.625 13.575 113.85V109.5H12.525V120ZM25.5744 120H26.6244V115.425C26.6244 113.85 25.4244 112.65 23.7744 112.65C22.8894 112.65 22.2444 112.98 21.7794 113.325C21.5094 113.52 21.2694 113.745 21.0744 114L21.7494 114.675C21.9144 114.48 22.0944 114.315 22.2894 114.15C22.6344 113.895 23.1294 113.625 23.7744 113.625C24.8394 113.625 25.5744 114.36 25.5744 115.425L22.7994 115.875C21.4344 116.1 20.6994 116.85 20.6994 118.05C20.6994 119.1 21.7494 120.15 23.2494 120.15C24.0294 120.15 24.5994 119.88 25.0044 119.595C25.2294 119.43 25.4244 119.235 25.5744 119.025V120ZM25.5744 116.775C25.5744 118.215 24.6144 119.175 23.2494 119.175C22.2744 119.175 21.7494 118.65 21.7494 118.05C21.7494 117.375 22.1994 116.94 23.0994 116.775L25.5744 116.325V116.775ZM29.0924 120H30.1424V117.975L31.5674 116.475L34.1174 120H35.3174L32.2424 115.725L35.0174 112.8H33.7424L30.1424 116.625V109.5H29.0924V120ZM41.0139 120H42.0639V115.425C42.0639 113.85 40.8639 112.65 39.2139 112.65C38.3289 112.65 37.6839 112.98 37.2189 113.325C36.9489 113.52 36.7089 113.745 36.5139 114L37.1889 114.675C37.3539 114.48 37.5339 114.315 37.7289 114.15C38.0739 113.895 38.5689 113.625 39.2139 113.625C40.2789 113.625 41.0139 114.36 41.0139 115.425L38.2389 115.875C36.8739 116.1 36.1389 116.85 36.1389 118.05C36.1389 119.1 37.1889 120.15 38.6889 120.15C39.4689 120.15 40.0389 119.88 40.4439 119.595C40.6689 119.43 40.8639 119.235 41.0139 119.025V120ZM41.0139 116.775C41.0139 118.215 40.0539 119.175 38.6889 119.175C37.7139 119.175 37.1889 118.65 37.1889 118.05C37.1889 117.375 37.6389 116.94 38.5389 116.775L41.0139 116.325V116.775Z" fill="black"/>
<path d="M3.6 161H4.725V151.55H8.025V150.5H0.3V151.55H3.6V161ZM8.62676 161H9.67676V157.025C9.67676 155.6 10.7268 154.7 11.9268 154.7H12.3768V153.65H12.0768C11.2368 153.65 10.6668 153.935 10.2618 154.22C10.0368 154.385 9.84176 154.58 9.67676 154.775V153.8H8.62676V161ZM16.8012 161.15C18.8262 161.15 20.4762 159.5 20.4762 157.4C20.4762 155.3 18.8262 153.65 16.8012 153.65C14.7762 153.65 13.1262 155.3 13.1262 157.4C13.1262 159.5 14.7762 161.15 16.8012 161.15ZM16.8012 160.175C15.3762 160.175 14.1762 158.96 14.1762 157.4C14.1762 155.825 15.3762 154.625 16.8012 154.625C18.2262 154.625 19.4262 155.825 19.4262 157.4C19.4262 158.975 18.2262 160.175 16.8012 160.175ZM24.3023 161H25.3523L28.2773 153.8H27.1523L24.8273 159.575L22.5023 153.8H21.3773L24.3023 161ZM35.1059 158.975C34.9409 159.2 34.7309 159.395 34.5059 159.575C34.1009 159.875 33.5459 160.175 32.7809 160.175C31.4159 160.175 30.3059 159.05 30.2309 157.775L36.0809 157.79L36.1109 157.64C36.1259 157.535 36.1559 157.415 36.1559 157.25C36.1559 155.15 34.6709 153.65 32.7059 153.65C30.8309 153.65 29.1809 155.3 29.1809 157.4C29.1809 159.5 30.8159 161.15 32.7809 161.15C33.7559 161.15 34.4909 160.775 35.0159 160.4C35.3159 160.175 35.5709 159.935 35.7809 159.65L35.1059 158.975ZM30.2309 156.875C30.3959 155.675 31.4159 154.625 32.7059 154.625C33.9809 154.625 34.9409 155.6 35.1059 156.875H30.2309Z" fill="black"/>
<path d="M0.9 195.75C0.9 198.75 3.3 201.15 6.3 201.15C9.3 201.15 11.7 198.75 11.7 195.75C11.7 192.75 9.3 190.35 6.3 190.35C3.3 190.35 0.9 192.75 0.9 195.75ZM6.3 200.1C3.9 200.1 2.025 198.225 2.025 195.75C2.025 193.275 3.9 191.4 6.3 191.4C8.7 191.4 10.575 193.275 10.575 195.75C10.575 198.225 8.7 200.1 6.3 200.1ZM14.3977 199.05C14.3977 200.415 15.1327 201.15 16.3777 201.15C16.6627 201.15 16.9177 201.105 17.0977 201.045C17.2027 201 17.3077 200.97 17.3977 200.925V199.95C17.3227 199.995 17.2177 200.025 17.1127 200.07C16.9327 200.13 16.6777 200.175 16.4227 200.175C15.8227 200.175 15.4477 199.815 15.4477 199.05V194.775H17.0227V193.8H15.4477V191.4H14.4727V193.05C14.4727 193.545 14.2777 193.8 13.8727 193.8H13.0477V194.775H14.3977V199.05ZM19.2779 201H20.3279V197.025C20.3279 195.585 21.3029 194.625 22.5779 194.625C23.7179 194.625 24.5279 195.45 24.5279 196.725V201H25.5779V196.725C25.5779 194.85 24.3779 193.65 22.6529 193.65C21.8579 193.65 21.3029 193.95 20.8979 194.25C20.6729 194.43 20.4779 194.625 20.3279 194.85V190.5H19.2779V201ZM33.3773 198.975C33.2123 199.2 33.0023 199.395 32.7773 199.575C32.3723 199.875 31.8173 200.175 31.0523 200.175C29.6873 200.175 28.5773 199.05 28.5023 197.775L34.3523 197.79L34.3823 197.64C34.3973 197.535 34.4273 197.415 34.4273 197.25C34.4273 195.15 32.9423 193.65 30.9773 193.65C29.1023 193.65 27.4523 195.3 27.4523 197.4C27.4523 199.5 29.0873 201.15 31.0523 201.15C32.0273 201.15 32.7623 200.775 33.2873 200.4C33.5873 200.175 33.8423 199.935 34.0523 199.65L33.3773 198.975ZM28.5023 196.875C28.6673 195.675 29.6873 194.625 30.9773 194.625C32.2523 194.625 33.2123 195.6 33.3773 196.875H28.5023ZM36.2977 201H37.3477V197.025C37.3477 195.6 38.3977 194.7 39.5977 194.7H40.0477V193.65H39.7477C38.9077 193.65 38.3377 193.935 37.9327 194.22C37.7077 194.385 37.5127 194.58 37.3477 194.775V193.8H36.2977V201ZM40.7936 199.875C40.9586 200.13 41.1686 200.34 41.4236 200.52C41.8586 200.835 42.5186 201.15 43.4186 201.15C45.0536 201.15 46.0436 200.175 46.0436 198.975C46.0436 196.425 42.1436 197.25 42.1436 195.675C42.1436 195.15 42.6686 194.625 43.4936 194.625C44.0186 194.625 44.3936 194.82 44.6786 195C44.8286 195.105 44.9636 195.24 45.0686 195.375L45.8186 194.625C45.6536 194.445 45.4436 194.28 45.2186 194.145C44.8136 193.905 44.2586 193.65 43.4936 193.65C42.0536 193.65 41.0936 194.64 41.0936 195.675C41.0936 198.15 44.9936 197.325 44.9936 198.975C44.9936 199.65 44.4836 200.175 43.4186 200.175C42.8186 200.175 42.3386 199.935 42.0236 199.65C41.8436 199.5 41.6786 199.32 41.5436 199.125L40.7936 199.875Z" fill="black"/>
<path d="M78 0L78 236" stroke="black"/>
<path d="M80 17H352C354.209 17 356 18.7909 356 21V46C356 48.2091 354.209 50 352 50H80V17Z" fill="#70EC75"/>
<path d="M80 58H451C453.209 58 455 59.7909 455 62V87C455 89.2091 453.209 91 451 91H80V58Z" fill="#70EC75"/>
<path d="M80 99H229C231.209 99 233 100.791 233 103V129C233 131.209 231.209 133 229 133H80V99Z" fill="#70EC75"/>
<path d="M80 141H152C154.209 141 156 142.791 156 145V170C156 172.209 154.209 174 152 174H80V141Z" fill="#70EC75"/>
<path d="M80 182H97C99.2091 182 101 183.791 101 186V211C101 213.209 99.2091 215 97 215H80V182Z" fill="#70EC75"/>
</svg>
