<svg width="345" height="236" viewBox="0 0 345 236" fill="none" xmlns="http://www.w3.org/2000/svg">
<path d="M2.55 41H3.675V30.5H2.85C2.745 30.755 2.595 30.995 2.4 31.19C2.055 31.535 1.5 31.88 0.6 31.925V32.6H2.55V41Z" fill="black"/>
<path d="M1.875 80.95C2.775 78.175 7.35 77.65 7.35 74.425C7.35 72.7 6.015 71.35 3.975 71.35C2.61 71.35 1.83 71.95 1.35 72.55C1.08 72.895 0.885 73.3 0.75 73.75L1.725 74.2C1.815 73.855 1.95 73.555 2.145 73.3C2.49 72.835 3.015 72.4 3.975 72.4C5.415 72.4 6.225 73.225 6.225 74.425C6.225 77.44 0.6 77.575 0.6 82H7.35V80.95H1.875Z" fill="black"/>
<path d="M104.9 35.925C104.9 37.65 106.385 39.15 108.425 39.15C110.465 39.15 111.95 37.65 111.95 35.925C111.95 34.95 111.515 34.305 111.05 33.885C110.795 33.645 110.495 33.45 110.15 33.3C110.405 33.165 110.63 33 110.825 32.805C111.17 32.46 111.5 31.92 111.5 31.125C111.5 29.7 110.15 28.35 108.425 28.35C106.7 28.35 105.35 29.7 105.35 31.125C105.35 31.92 105.68 32.46 106.025 32.805C106.22 33 106.445 33.165 106.7 33.3C106.355 33.45 106.055 33.645 105.8 33.885C105.335 34.305 104.9 34.95 104.9 35.925ZM106.475 31.125C106.475 30.15 107.225 29.4 108.425 29.4C109.625 29.4 110.375 30.15 110.375 31.125C110.375 32.1 109.625 32.85 108.425 32.85C107.225 32.85 106.475 32.1 106.475 31.125ZM106.025 35.925C106.025 34.8 107.075 33.75 108.425 33.75C109.775 33.75 110.825 34.8 110.825 35.925C110.825 37.05 109.925 38.1 108.425 38.1C106.925 38.1 106.025 37.05 106.025 35.925Z" fill="black"/>
<path d="M112.55 204H113.675V193.5H112.85C112.745 193.755 112.595 193.995 112.4 194.19C112.055 194.535 111.5 194.88 110.6 194.925V195.6H112.55V204ZM120.359 204.15C122.519 204.15 124.544 202.125 124.544 198.75C124.544 195.375 122.504 193.35 120.344 193.35C118.184 193.35 116.144 195.375 116.144 198.75C116.144 202.125 118.169 204.15 120.359 204.15ZM120.359 203.1C118.769 203.1 117.269 201.6 117.269 198.75C117.269 195.9 118.784 194.4 120.344 194.4C121.904 194.4 123.419 195.9 123.419 198.75C123.419 201.6 121.904 203.1 120.359 203.1Z" fill="black"/>
<path d="M264.875 160.95C265.775 158.175 270.35 157.65 270.35 154.425C270.35 152.7 269.015 151.35 266.975 151.35C265.61 151.35 264.83 151.95 264.35 152.55C264.08 152.895 263.885 153.3 263.75 153.75L264.725 154.2C264.815 153.855 264.95 153.555 265.145 153.3C265.49 152.835 266.015 152.4 266.975 152.4C268.415 152.4 269.225 153.225 269.225 154.425C269.225 157.44 263.6 157.575 263.6 162H270.35V160.95H264.875ZM271.243 159.75H276.568V162H277.693V159.75H279.043V158.7H277.693V151.5H276.268L271.243 158.475V159.75ZM272.293 158.7L276.568 152.775V158.7H272.293Z" fill="black"/>
<path d="M327.45 117.575C327.675 117.875 327.96 118.145 328.305 118.37C328.89 118.775 329.775 119.15 330.975 119.15C333.135 119.15 334.5 117.635 334.5 116.075C334.5 114.995 334.005 114.35 333.525 113.945C333.24 113.72 332.91 113.555 332.55 113.45C332.835 113.345 333.105 113.18 333.33 112.97C333.735 112.61 334.125 112.025 334.125 111.125C334.125 109.625 332.85 108.35 330.975 108.35C329.91 108.35 329.13 108.71 328.605 109.07C328.29 109.28 328.035 109.52 327.825 109.775L328.575 110.6C328.74 110.375 328.95 110.18 329.19 110C329.595 109.7 330.18 109.4 330.975 109.4C332.25 109.4 333 110.15 333 111.125C333 112.265 332.25 113 330.975 113H329.925V114.05H330.975C332.49 114.05 333.45 115.01 333.45 116.075C333.45 117.2 332.55 118.1 330.975 118.1C330.015 118.1 329.355 117.785 328.89 117.47C328.62 117.29 328.395 117.08 328.2 116.825L327.45 117.575ZM336.294 115.925C336.294 117.65 337.779 119.15 339.819 119.15C341.859 119.15 343.344 117.65 343.344 115.925C343.344 114.95 342.909 114.305 342.444 113.885C342.189 113.645 341.889 113.45 341.544 113.3C341.799 113.165 342.024 113 342.219 112.805C342.564 112.46 342.894 111.92 342.894 111.125C342.894 109.7 341.544 108.35 339.819 108.35C338.094 108.35 336.744 109.7 336.744 111.125C336.744 111.92 337.074 112.46 337.419 112.805C337.614 113 337.839 113.165 338.094 113.3C337.749 113.45 337.449 113.645 337.194 113.885C336.729 114.305 336.294 114.95 336.294 115.925ZM337.869 111.125C337.869 110.15 338.619 109.4 339.819 109.4C341.019 109.4 341.769 110.15 341.769 111.125C341.769 112.1 341.019 112.85 339.819 112.85C338.619 112.85 337.869 112.1 337.869 111.125ZM337.419 115.925C337.419 114.8 338.469 113.75 339.819 113.75C341.169 113.75 342.219 114.8 342.219 115.925C342.219 117.05 341.319 118.1 339.819 118.1C338.319 118.1 337.419 117.05 337.419 115.925Z" fill="black"/>
<path d="M186.875 78.95C187.775 76.175 192.35 75.65 192.35 72.425C192.35 70.7 191.015 69.35 188.975 69.35C187.61 69.35 186.83 69.95 186.35 70.55C186.08 70.895 185.885 71.3 185.75 71.75L186.725 72.2C186.815 71.855 186.95 71.555 187.145 71.3C187.49 70.835 188.015 70.4 188.975 70.4C190.415 70.4 191.225 71.225 191.225 72.425C191.225 75.44 185.6 75.575 185.6 80H192.35V78.95H186.875ZM198.362 80.15C200.522 80.15 202.547 78.125 202.547 74.75C202.547 71.375 200.507 69.35 198.347 69.35C196.187 69.35 194.147 71.375 194.147 74.75C194.147 78.125 196.172 80.15 198.362 80.15ZM198.362 79.1C196.772 79.1 195.272 77.6 195.272 74.75C195.272 71.9 196.787 70.4 198.347 70.4C199.907 70.4 201.422 71.9 201.422 74.75C201.422 77.6 199.907 79.1 198.362 79.1Z" fill="black"/>
<path d="M0.45 121.575C0.675 121.875 0.96 122.145 1.305 122.37C1.89 122.775 2.775 123.15 3.975 123.15C6.135 123.15 7.5 121.635 7.5 120.075C7.5 118.995 7.005 118.35 6.525 117.945C6.24 117.72 5.91 117.555 5.55 117.45C5.835 117.345 6.105 117.18 6.33 116.97C6.735 116.61 7.125 116.025 7.125 115.125C7.125 113.625 5.85 112.35 3.975 112.35C2.91 112.35 2.13 112.71 1.605 113.07C1.29 113.28 1.035 113.52 0.825 113.775L1.575 114.6C1.74 114.375 1.95 114.18 2.19 114C2.595 113.7 3.18 113.4 3.975 113.4C5.25 113.4 6 114.15 6 115.125C6 116.265 5.25 117 3.975 117H2.925V118.05H3.975C5.49 118.05 6.45 119.01 6.45 120.075C6.45 121.2 5.55 122.1 3.975 122.1C3.015 122.1 2.355 121.785 1.89 121.47C1.62 121.29 1.395 121.08 1.2 120.825L0.45 121.575Z" fill="black"/>
<path d="M0.45 161.75H5.775V164H6.9V161.75H8.25V160.7H6.9V153.5H5.475L0.45 160.475V161.75ZM1.5 160.7L5.775 154.775V160.7H1.5Z" fill="black"/>
<path d="M1.125 203.575C1.365 203.875 1.65 204.145 1.98 204.37C2.565 204.775 3.39 205.15 4.575 205.15C6.75 205.15 8.175 203.725 8.175 201.7C8.175 199.735 6.69 198.25 4.65 198.25C4.005 198.25 3.51 198.385 3.165 198.55C2.97 198.64 2.79 198.745 2.625 198.85L2.85 195.55H7.5V194.5H1.875L1.5 200.425H2.325C2.475 200.23 2.67 200.035 2.895 199.87C3.27 199.585 3.855 199.3 4.65 199.3C6.09 199.3 7.05 200.26 7.05 201.7C7.05 203.14 6.075 204.1 4.575 204.1C3.675 204.1 3.015 203.785 2.55 203.47C2.295 203.29 2.07 203.08 1.875 202.825L1.125 203.575Z" fill="black"/>
<path d="M25 0L25 236" stroke="black"/>
<path d="M27 17H86C88.2091 17 90 18.7909 90 21V46C90 48.2091 88.2091 50 86 50H27V17Z" fill="#70EC75"/>
<path d="M27 58H165C167.209 58 169 59.7909 169 62V87C169 89.2091 167.209 91 165 91H27V58Z" fill="#70EC75"/>
<path d="M27 99H308C310.209 99 312 100.791 312 103V129C312 131.209 310.209 133 308 133H27V99Z" fill="#70EC75"/>
<path d="M27 141H241C243.209 141 245 142.791 245 145V170C245 172.209 243.209 174 241 174H27V141Z" fill="#70EC75"/>
<path d="M27 182H92C94.2091 182 96 183.791 96 186V211C96 213.209 94.2091 215 92 215H27V182Z" fill="#70EC75"/>
</svg>
